<?xml version="1.0" encoding="iso-8859-1"?>
<!-- Generator: Adobe Illustrator 19.0.0, SVG Export Plug-In . SVG Version: 6.00 Build 0)  -->
<svg version="1.1" id="Layer_1" xmlns="http://www.w3.org/2000/svg" xmlns:xlink="http://www.w3.org/1999/xlink" x="0px" y="0px"
	 viewBox="0 0 512.001 512.001" style="enable-background:new 0 0 512.001 512.001;" xml:space="preserve">
<g>
	<g>
		<path d="M508.3,486.598L384.191,283.511c-6.506-10.646-21.995-10.646-28.499,0l-19.891,32.55l93.576,153.125
			c7.922,12.997,9.353,28.748,4.39,42.815h60.284V512C507.101,512,515.063,497.691,508.3,486.598z"/>
	</g>
</g>
<g>
	<g>
		<path d="M400.887,486.598L217.234,186.076c-6.506-10.646-21.995-10.646-28.5,0L5.083,486.598C-1.681,497.691,6.28,512,19.332,512
			h367.304C399.688,512,407.65,497.691,400.887,486.598z M236.375,338.125l-21.587-21.582c-6.521-6.521-17.087-6.521-23.609,0
			l-21.588,21.582l-21.5-21.501l54.891-89.826l54.891,89.826L236.375,338.125z"/>
	</g>
</g>
<g>
	<g>
		<path d="M191.516,54.75c-7.652-11.592-19.456-18.734-33.402-20.517C146.485,13.364,124.398,0,100.028,0
			c-24.37,0-46.456,13.37-58.086,34.239C28.006,36.023,16.202,43.168,8.55,54.766c-20.068,30.432-3.377,78.799,41.391,78.799
			h100.174C194.751,133.565,211.651,85.261,191.516,54.75z"/>
	</g>
</g>
<g>
	<g>
		<path d="M445.071,0c-24.416,0-46.283,13.467-57.929,33.996c-2.907-0.393-5.861-0.604-8.853-0.604
			c-24.37,0-46.456,13.37-58.087,34.239c-13.935,1.783-25.739,8.929-33.391,20.527c-20.067,30.432-3.376,78.799,41.392,78.799
			h100.174c25.557,0,45.127-16.488,48.996-41.785c20.982-11.609,34.482-33.81,34.482-58.389C511.854,29.956,481.897,0,445.071,0z
			 M470.115,88.744c-0.124-0.195-0.209-0.411-0.337-0.603c-7.652-11.592-19.456-18.734-33.402-20.517
			c-4.562-8.188-10.774-15.164-18.063-20.687c6.17-8.287,15.971-13.546,26.759-13.546c18.413,0,33.391,14.978,33.391,33.391
			C478.462,75.079,475.329,82.788,470.115,88.744z"/>
	</g>
</g>
<g>
</g>
<g>
</g>
<g>
</g>
<g>
</g>
<g>
</g>
<g>
</g>
<g>
</g>
<g>
</g>
<g>
</g>
<g>
</g>
<g>
</g>
<g>
</g>
<g>
</g>
<g>
</g>
<g>
</g>
</svg>
