<?xml version="1.0" encoding="UTF-8" standalone="no"?>
<!-- Created with Inkscape (http://www.inkscape.org/) -->

<svg
   width="128"
   height="128"
   viewBox="0 0 33.866666 33.866666"
   version="1.1"
   id="svg5"
   inkscape:version="1.2.1 (9c6d41e410, 2022-07-14)"
   sodipodi:docname="windmill.svg"
   xml:space="preserve"
   xmlns:inkscape="http://www.inkscape.org/namespaces/inkscape"
   xmlns:sodipodi="http://sodipodi.sourceforge.net/DTD/sodipodi-0.dtd"
   xmlns="http://www.w3.org/2000/svg"
   xmlns:svg="http://www.w3.org/2000/svg"><sodipodi:namedview
     id="namedview7"
     pagecolor="#ffffff"
     bordercolor="#000000"
     borderopacity="0.25"
     inkscape:showpageshadow="2"
     inkscape:pageopacity="0.0"
     inkscape:pagecheckerboard="0"
     inkscape:deskcolor="#d1d1d1"
     inkscape:document-units="px"
     showgrid="false"
     showguides="true"
     inkscape:zoom="2.9825758"
     inkscape:cx="82.814325"
     inkscape:cy="116.34239"
     inkscape:window-width="1920"
     inkscape:window-height="1017"
     inkscape:window-x="-8"
     inkscape:window-y="-8"
     inkscape:window-maximized="1"
     inkscape:current-layer="layer2"><sodipodi:guide
       position="16.41129,17.943279"
       orientation="1,0"
       id="guide274"
       inkscape:locked="false" /><sodipodi:guide
       position="-1.2419355,17.411021"
       orientation="0,-1"
       id="guide276"
       inkscape:locked="false" /></sodipodi:namedview><defs
     id="defs2" /><g
     inkscape:groupmode="layer"
     id="layer2"
     inkscape:label="Layer 2"
     style="display:inline"><path
       d="m 12.818233,11.248026 -6.1145182,6.114518 2.445807,2.445807 6.1145182,-6.114518 V 12.47093 l 1.222903,-1.222904 1.222905,1.222904 v 1.222903 l 6.114516,6.114518 2.445807,-2.445807 -6.114517,-6.114518 h -1.222905 l -1.222901,-1.222903 1.222901,-1.2229027 h 1.222905 L 26.270171,2.6877024 23.824364,0.24189471 17.709848,6.3564123 v 1.222903 L 16.486943,8.8022203 15.26404,7.5793153 V 6.3564123 L 9.1495218,0.24189471 6.7037148,2.6877024 12.818233,8.8022203 h 1.222903 l 1.222904,1.2229027 -1.222904,1.222903 z m 13.451938,19.566456 h -2.445807 l -2.445808,-9.783226 -4.891613,-4.891615 -4.891613,4.891615 -2.4458082,9.783226 h -2.445807 c -0.6752873,0 -1.2229035,0.547373 -1.2229035,1.222904 0,0.675287 0.5476162,1.222904 1.2229035,1.222904 H 26.270171 c 0.675287,0 1.222904,-0.547617 1.222904,-1.222904 0,-0.675531 -0.547617,-1.222904 -1.222904,-1.222904 z m -8.560323,0 H 15.26404 v -3.674579 c 0,-0.672109 0.544925,-1.217034 1.217033,-1.217034 0.678712,0 1.228775,0.550063 1.228775,1.228773 z"
       id="path568"
       style="stroke-width:2.44581" /></g></svg>
