<?xml version="1.0" encoding="UTF-8" standalone="no"?>
<!-- Created with Inkscape (http://www.inkscape.org/) -->

<svg
   width="128"
   height="128"
   viewBox="0 0 33.866666 33.866666"
   version="1.1"
   id="svg5"
   inkscape:version="1.2.1 (9c6d41e410, 2022-07-14)"
   sodipodi:docname="boar.svg"
   xml:space="preserve"
   xmlns:inkscape="http://www.inkscape.org/namespaces/inkscape"
   xmlns:sodipodi="http://sodipodi.sourceforge.net/DTD/sodipodi-0.dtd"
   xmlns="http://www.w3.org/2000/svg"
   xmlns:svg="http://www.w3.org/2000/svg"><sodipodi:namedview
     id="namedview7"
     pagecolor="#ffffff"
     bordercolor="#000000"
     borderopacity="0.25"
     inkscape:showpageshadow="2"
     inkscape:pageopacity="0.0"
     inkscape:pagecheckerboard="0"
     inkscape:deskcolor="#d1d1d1"
     inkscape:document-units="px"
     showgrid="false"
     showguides="true"
     inkscape:zoom="4.2179991"
     inkscape:cx="36.747281"
     inkscape:cy="85.111445"
     inkscape:window-width="1920"
     inkscape:window-height="1017"
     inkscape:window-x="-8"
     inkscape:window-y="-8"
     inkscape:window-maximized="1"
     inkscape:current-layer="layer2"><sodipodi:guide
       position="16.41129,17.943279"
       orientation="1,0"
       id="guide274"
       inkscape:locked="false" /><sodipodi:guide
       position="-1.2419355,17.411021"
       orientation="0,-1"
       id="guide276"
       inkscape:locked="false" /></sodipodi:namedview><defs
     id="defs2" /><g
     inkscape:groupmode="layer"
     id="layer2"
     inkscape:label="Layer 2"
     style="display:inline"><path
       style="fill:#000000;stroke-width:0.0650362"
       d="m 21.696164,27.376548 c -0.08173,-0.398409 -0.303961,-0.764295 -0.653352,-1.075701 l -0.349646,-0.311635 0.255521,-1.52262 c 0.140536,-0.837439 0.249259,-1.527259 0.241608,-1.532932 -0.0076,-0.0057 -0.352047,-0.02762 -0.765323,-0.04878 l -0.751412,-0.03846 -0.220266,1.357348 -0.220267,1.357347 0.237742,0.263152 c 0.323321,0.357878 0.549143,0.824929 0.646175,1.336441 l 0.08104,0.427214 h 0.77077 0.770769 z m -2.601447,0 c -0.08172,-0.398349 -0.30394,-0.764278 -0.653137,-1.075511 l -0.349433,-0.311446 0.351623,-2.102202 c 0.193395,-1.156213 0.363507,-2.114086 0.37803,-2.128608 0.01452,-0.01451 0.532435,0.0081 1.150917,0.05026 1.25805,0.08578 2.598935,0.01813 4.047214,-0.204194 0.744813,-0.114332 2.300854,-0.435739 2.403576,-0.496466 0.02432,-0.01438 -0.03967,-0.211204 -0.142229,-0.43738 -0.392161,-0.864892 -0.502496,-2.114158 -0.220127,-2.49236 0.07208,-0.09654 0.211873,-0.235873 0.310654,-0.309623 0.168576,-0.12586 0.266832,-0.134091 1.600856,-0.134091 1.334025,0 1.432281,0.0082 1.600858,0.134091 0.318271,0.237624 0.422034,0.440174 0.483917,0.944623 0.07741,0.631033 0.189755,1.099998 0.263511,1.099998 0.07643,0 1.625667,-0.571831 1.733708,-0.639917 0.04524,-0.02852 0.313583,-0.744431 0.596301,-1.590928 l 0.514033,-1.539084 -0.271122,-0.06748 c -0.76878,-0.191349 -1.800311,-0.559 -2.366606,-0.843484 -0.731733,-0.367594 -0.981252,-0.600842 -2.228139,-2.082859 -2.489628,-2.959108 -4.201281,-4.5015792 -5.952088,-5.363778 -1.252585,-0.6168444 -1.17957,-0.6392438 -0.874669,0.2683239 0.141254,0.4204512 0.256825,0.7732329 0.256825,0.7839594 0,0.010726 -0.936521,-0.4489355 -2.081157,-1.0214704 L 17.566876,6.7759494 v 0.7806308 c 0,0.429347 -0.008,0.7806307 -0.01779,0.7806307 -0.0098,0 -0.712171,-0.2319157 -1.560868,-0.5153678 L 14.445141,7.306475 V 7.8224118 8.3383475 L 14.071184,8.2890023 C 13.865507,8.2618602 12.789972,8.2404045 11.681105,8.2413181 10.055288,8.2426482 9.5201929,8.2658886 8.9170678,8.3613014 5.7221228,8.8667489 3.867124,10.07579 3.2164927,12.07679 3.0718078,12.521764 3.0426107,12.749057 3.0147923,13.646955 l -0.032526,1.049875 -0.9639776,0.798457 c -0.530188,0.439151 -0.9951329,0.87396 -1.03321337,0.966246 -0.0526344,0.127557 -0.0176664,0.629636 0.14583137,2.093928 L 1.3459741,20.4816 1.164777,20.698645 c -0.24332821,0.291467 -0.29023023,0.585624 -0.1588836,0.996464 0.1202671,0.376183 0.8574722,1.665455 0.9523065,1.665455 0.094834,0 0.8320393,-1.289272 0.9523061,-1.665455 0.1507517,-0.471536 0.081502,-0.764905 -0.2585618,-1.095368 L 2.3809346,20.336383 2.1831768,18.604146 1.9854186,16.871908 2.506415,16.442841 c 0.3508221,-0.288921 0.5348334,-0.402889 0.5633601,-0.34892 0.023298,0.04408 0.062752,0.343544 0.08767,0.665473 0.061308,0.792065 0.2749309,2.02302 0.4681077,2.697367 0.1916535,0.66903 0.5575939,1.467632 0.778699,1.69938 l 0.1616184,0.169398 -0.2638407,1.049427 -0.2638404,1.049426 0.4590316,1.837876 c 0.252467,1.010831 0.4879875,1.947623 0.5233796,2.081761 l 0.064348,0.243886 h 1.827459 1.8274606 L 8.6996041,27.245357 C 8.5831327,26.254367 8.1320779,25.724184 7.1936074,25.475165 7.1578391,25.465707 7.0175975,25.119976 6.8819625,24.70695 L 6.6353533,23.955989 7.6807172,21.866054 c 0.8553224,-1.709996 1.0656795,-2.083538 1.1571144,-2.054747 0.6396057,0.201394 4.4493954,1.038406 5.9324884,1.303369 0.518663,0.09266 1.008874,0.182825 1.089355,0.20036 l 0.146331,0.03188 v 3.120497 3.120497 h 1.566037 1.566035 z m 5.756208,-13.316155 v -0.520288 h 0.52029 0.520289 v 0.520288 0.520289 h -0.520289 -0.52029 z m -4.910246,-1.163958 c -0.395608,-0.174996 -0.589778,-0.350024 -0.762868,-0.68766 -0.202693,-0.395377 -0.239064,-1.423033 -0.06049,-1.709266 0.06438,-0.103199 0.588843,0.04305 1.125299,0.31379 0.714716,0.360708 1.348869,1.19663 1.460062,1.924614 0.03781,0.247523 0.0281,0.273771 -0.112385,0.304087 -0.08457,0.01825 -0.417533,0.02517 -0.739917,0.01536 -0.433265,-0.01316 -0.670543,-0.05514 -0.909696,-0.160932 z M 9.4018821,12.86018 C 9.3012593,12.759557 9.2422477,12.62624 9.2422477,12.499525 c 0,-0.126714 0.059009,-0.260028 0.1596344,-0.360654 0.1502969,-0.150298 0.2018228,-0.159635 0.8809439,-0.159635 0.679121,0 0.730648,0.0094 0.880945,0.159635 0.100623,0.100623 0.159634,0.23394 0.159634,0.360654 0,0.126715 -0.05901,0.26003 -0.159634,0.360655 -0.150297,0.150297 -0.201824,0.159634 -0.880945,0.159634 -0.6791211,0 -0.730647,-0.0094 -0.8809439,-0.159634 z m 3.1217349,-2.081158 c -0.100623,-0.100622 -0.159634,-0.23394 -0.159634,-0.360654 0,-0.126714 0.05901,-0.260029 0.159634,-0.360654 0.150297,-0.1502978 0.201825,-0.159635 0.880944,-0.159635 0.679121,0 0.730647,0.00936 0.880944,0.159635 0.100623,0.100623 0.159635,0.23394 0.159635,0.360654 0,0.126714 -0.05901,0.26003 -0.159635,0.360654 -0.150297,0.150298 -0.201823,0.159636 -0.880944,0.159636 -0.679119,0 -0.730647,-0.0094 -0.880944,-0.159636 z m -5.202892,0 C 7.2201023,10.6784 7.1610907,10.545082 7.1610907,10.418368 c 0,-0.126714 0.059009,-0.260029 0.1596343,-0.360654 0.150296,-0.1502978 0.2018229,-0.159635 0.8809436,-0.159635 0.6791207,0 0.7306478,0.00936 0.8809447,0.159635 0.1006227,0.100623 0.1596344,0.23394 0.1596344,0.360654 0,0.126714 -0.059009,0.26003 -0.1596344,0.360654 -0.1502969,0.150298 -0.201824,0.159636 -0.8809447,0.159636 -0.6791207,0 -0.7306476,-0.0094 -0.8809436,-0.159636 z m 4.499994,16.461039 c -0.07703,-0.655411 -0.354177,-1.203688 -0.734367,-1.452799 -0.08985,-0.05886 -0.313095,-0.155848 -0.496108,-0.21551 L 10.257493,25.463275 10.006631,24.710692 9.7557703,23.958108 10.376997,22.716962 c 0.341674,-0.68263 0.621227,-1.253413 0.621227,-1.268406 0,-0.0347 -1.6961986,-0.446344 -1.7221426,-0.417933 -0.010631,0.01164 -0.3548996,0.694282 -0.7650526,1.51699 l -0.7457334,1.49583 0.094199,0.278391 c 0.07696,0.227456 0.1496029,0.306716 0.3970356,0.433215 0.4321345,0.220927 0.7907904,0.553066 1.0333048,0.956911 0.2269956,0.378002 0.4727042,1.223296 0.4727042,1.626213 v 0.249742 h 1.049533 1.049534 z m 18.813837,-4.768574 c -0.530734,-0.553199 -0.785813,-0.924904 -1.100413,-1.603544 -0.262051,-0.565282 -0.425031,-1.141148 -0.495562,-1.750988 l -0.04326,-0.373957 h -1.039199 -1.039201 l 0.04535,0.438994 c 0.05646,0.546546 0.283492,1.218848 0.553917,1.640266 0.494498,0.77061 1.482532,1.468278 2.570144,1.814822 1.053319,0.33562 1.034525,0.341296 0.548221,-0.165593 z"
       id="path526" /></g></svg>
