<?xml version="1.0" encoding="utf-8"?>

<!DOCTYPE svg PUBLIC "-//W3C//DTD SVG 1.1//EN" "http://www.w3.org/Graphics/SVG/1.1/DTD/svg11.dtd">
<!-- Uploaded to: SVG Repo, www.svgrepo.com, Generator: SVG Repo Mixer Tools -->
<svg height="800px" width="800px" version="1.1" id="_x32_" xmlns="http://www.w3.org/2000/svg" xmlns:xlink="http://www.w3.org/1999/xlink" 
	 viewBox="0 0 512 512"  xml:space="preserve">
<style type="text/css">
	.st0{fill:#000000;}
</style>
<g>
	<path class="st0" d="M508.727,159.883c-14.908-8.942-74.31,45.732-91.456,68.595c-57.163-34.302-108.602-57.164-108.602-57.164
		s22.862-100.025-8.578-94.318c-28.638,5.212-81.664,42.558-125.749,77.172C100.033,174.176,10.164,225.086,0,274.201
		c28.577,94.318,191.489,140.042,288.66,160.05c47.831,9.852,20.009-57.155,20.009-57.155s51.439-22.87,108.602-57.163
		c17.147,22.862,76.548,77.536,91.456,68.594c14.293-8.577-22.862-114.326-22.862-114.326S523.02,168.461,508.727,159.883z
		 M101.69,279.265c-13.027,0-23.582-10.555-23.582-23.582c0-13.018,10.555-23.573,23.582-23.573
		c13.018,0,23.573,10.555,23.573,23.573C125.263,268.71,114.708,279.265,101.69,279.265z"/>
</g>
</svg>