<?xml version="1.0" encoding="iso-8859-1"?>
<!-- Generator: Adobe Illustrator 18.1.1, SVG Export Plug-In . SVG Version: 6.00 Build 0)  -->
<svg version="1.1" id="Capa_1" xmlns="http://www.w3.org/2000/svg" xmlns:xlink="http://www.w3.org/1999/xlink" x="0px" y="0px"
	 viewBox="0 0 281.176 281.176" style="enable-background:new 0 0 281.176 281.176;" xml:space="preserve">
<g>
	<path style="fill:#030104;" d="M198.504,127.437L120.87,4.476c-3.892-5.857-8.916-5.77-14.192-0.885L26.386,74.917
		c-5.302,4.792-4.782,10.35-0.119,14.469l111.875,93.276c6.628,5.003,12.659,4.453,17.436,0.283l42.73-39.477
		C203.117,139.043,202.957,134.671,198.504,127.437z"/>
	<path style="fill:#030104;" d="M206.234,147.202l-47.615,43.916C182.96,209.129,224.385,174.914,206.234,147.202z M182.463,193.434
		c-1.775,0-3.215-1.439-3.215-3.215s1.439-3.215,3.215-3.215s3.215,1.439,3.215,3.215S184.238,193.434,182.463,193.434z
		 M196.306,184.297c-1.775,0-3.216-1.439-3.216-3.215s1.44-3.215,3.216-3.215c1.774,0,3.215,1.439,3.215,3.215
		S198.08,184.297,196.306,184.297z M205.231,170.645c-1.775,0-3.215-1.439-3.215-3.215s1.439-3.215,3.215-3.215
		c1.774,0,3.215,1.439,3.215,3.215S207.005,170.645,205.231,170.645z"/>
	<circle style="fill:#030104;" cx="219.602" cy="198.474" r="7.089"/>
	<circle style="fill:#030104;" cx="210.152" cy="226.828" r="7.088"/>
	<circle style="fill:#030104;" cx="229.051" cy="236.283" r="7.088"/>
	<circle style="fill:#030104;" cx="225.507" cy="259.91" r="7.088"/>
	<circle style="fill:#030104;" cx="251.5" cy="274.087" r="7.089"/>
</g>
<g>
</g>
<g>
</g>
<g>
</g>
<g>
</g>
<g>
</g>
<g>
</g>
<g>
</g>
<g>
</g>
<g>
</g>
<g>
</g>
<g>
</g>
<g>
</g>
<g>
</g>
<g>
</g>
<g>
</g>
</svg>
