<?xml version="1.0" encoding="UTF-8" standalone="no"?>
<!-- Created with Inkscape (http://www.inkscape.org/) -->

<svg
   width="512"
   height="512"
   viewBox="0 0 135.46666 135.46667"
   version="1.1"
   id="svg5"
   xml:space="preserve"
   inkscape:version="1.2.1 (9c6d41e410, 2022-07-14)"
   sodipodi:docname="treasureTrader.svg"
   xmlns:inkscape="http://www.inkscape.org/namespaces/inkscape"
   xmlns:sodipodi="http://sodipodi.sourceforge.net/DTD/sodipodi-0.dtd"
   xmlns="http://www.w3.org/2000/svg"
   xmlns:svg="http://www.w3.org/2000/svg"><sodipodi:namedview
     id="namedview7"
     pagecolor="#ffffff"
     bordercolor="#000000"
     borderopacity="0.25"
     inkscape:showpageshadow="2"
     inkscape:pageopacity="0.0"
     inkscape:pagecheckerboard="0"
     inkscape:deskcolor="#d1d1d1"
     inkscape:document-units="px"
     showgrid="false"
     inkscape:zoom="1.0544998"
     inkscape:cx="413.46619"
     inkscape:cy="269.32201"
     inkscape:window-width="1920"
     inkscape:window-height="1017"
     inkscape:window-x="1912"
     inkscape:window-y="-8"
     inkscape:window-maximized="1"
     inkscape:current-layer="layer1" /><defs
     id="defs2" /><g
     inkscape:label="Layer 1"
     inkscape:groupmode="layer"
     id="layer1"><path
       d="m 97.01061,67.688047 -4.105541,9.77116 c -0.821163,0.245167 -1.560084,0.656988 -2.298991,1.067568 l -9.771167,-4.105512 -5.911965,5.911967 4.10551,9.771162 c -0.410579,0.821163 -0.738918,1.478141 -1.067257,2.298991 l -9.771192,4.105539 v 8.211058 l 9.771192,4.10554 c 0.328339,0.82116 0.656988,1.47815 1.067257,2.29899 l -4.10551,9.77117 5.911965,5.91196 9.771167,-4.10551 c 0.738907,0.32834 1.477828,0.73892 2.298991,1.06757 l 4.105541,9.77116 h 8.21106 l 4.10553,-9.77116 c 0.7389,-0.32834 1.56007,-0.65699 2.29899,-1.06757 l 9.77115,4.10551 5.91197,-5.91196 -4.1055,-9.77117 c 0.32834,-0.73891 0.7389,-1.56007 1.06756,-2.29899 l 9.77116,-4.10554 v -8.211058 l -9.77116,-4.105539 c -0.24516,-0.738921 -0.657,-1.56007 -1.06756,-2.298991 l 4.1055,-9.771162 -5.91197,-5.911967 -9.77115,4.105512 c -0.73892,-0.32834 -1.56009,-0.738918 -2.29899,-1.067568 l -4.10553,-9.77116 z m 4.10554,20.527678 c 6.81516,0 12.31659,5.501387 12.31659,12.316595 0,6.81517 -5.50143,12.3166 -12.31659,12.3166 -6.815211,0 -12.316595,-5.50143 -12.316595,-12.3166 0,-6.815208 5.501384,-12.316595 12.316595,-12.316595 z"
       id="path256"
       style="stroke-width:8.21106" /><g
       id="g1395"
       transform="matrix(0.21802798,0,0,0.21802798,10.299321,9.5465951)"><g
         id="g1332">
	<g
   id="g1330">
		<g
   id="g1328">
			<path
   d="M 469.333,17.067 H 307.2 V 8.533 C 307.2,3.823 303.386,0 298.667,0 h -85.333 c -4.719,0 -8.533,3.823 -8.533,8.533 v 8.533 H 42.667 C 19.14,17.067 0,36.207 0,59.733 V 247.466 C 0,252.177 3.814,256 8.533,256 h 460.8 c 4.719,0 8.533,-3.823 8.533,-8.533 v -179.2 c 0,-9.412 -7.654,-17.067 -17.067,-17.067 h -128 c -4.719,0 -8.533,3.823 -8.533,8.533 0,4.71 3.814,8.533 8.533,8.533 h 128 v 170.667 h -17.067 v -25.6 c 0,-4.71 -3.814,-8.533 -8.533,-8.533 H 384 c -4.719,0 -8.533,3.823 -8.533,8.533 0,4.71 3.814,8.533 8.533,8.533 h 42.667 v 17.067 h -85.333 v -17.067 h 8.533 c 4.719,0 8.533,-3.823 8.533,-8.533 v -25.6 h 76.8 c 4.719,0 8.533,-3.823 8.533,-8.533 0,-4.71 -3.814,-8.533 -8.533,-8.533 h -68.975 l -10.334,-17.903 59.119,-34.133 8.533,14.78 -18.21,10.505 c -4.079,2.364 -5.487,7.578 -3.123,11.657 2.355,4.079 7.578,5.478 11.657,3.132 l 25.6,-14.78 c 1.954,-1.135 3.388,-2.995 3.977,-5.18 0.58,-2.193 0.282,-4.514 -0.853,-6.477 l -17.067,-29.559 c -2.364,-4.087 -7.586,-5.478 -11.657,-3.123 l -73.899,42.667 c -1.963,1.135 -3.396,2.995 -3.977,5.18 -0.58,2.193 -0.282,4.523 0.853,6.477 l 10.018,17.365 c -3.226,1.22 -5.53,4.275 -5.53,7.927 v 25.6 H 332.8 c -4.719,0 -8.533,3.823 -8.533,8.533 v 25.6 h -18.645 c -3.533,-9.916 -12.911,-17.067 -24.021,-17.067 -11.11,0 -20.489,7.151 -24.021,17.067 h -46.72 c 9.327,-18.799 15.249,-40.38 17.843,-51.2 h 1.698 c 4.719,0 8.533,-3.823 8.533,-8.533 v -34.133 c 0,-4.71 -3.814,-8.533 -8.533,-8.533 h -27.179 c -3.533,-9.916 -12.911,-17.067 -24.021,-17.067 -11.11,0 -20.489,7.151 -24.021,17.067 h -20.224 c 0.964,-2.679 1.579,-5.53 1.579,-8.533 0,-14.114 -11.486,-25.6 -25.6,-25.6 -14.114,0 -25.6,11.486 -25.6,25.6 0,3.004 0.614,5.854 1.579,8.533 H 76.8 c -4.719,0 -8.533,3.823 -8.533,8.533 V 179.2 c 0,4.71 3.814,8.533 8.533,8.533 h 1.698 c 2.594,10.82 8.516,32.401 17.843,51.2 H 17.067 v -179.2 c 0,-14.114 11.486,-25.6 25.6,-25.6 H 204.8 v 25.6 c 0,15.078 10.522,25.6 25.6,25.6 h 51.2 c 15.078,0 25.6,-10.522 25.6,-25.6 v -25.6 h 162.133 c 14.114,0 25.6,11.486 25.6,25.6 v 409.6 c 0,14.114 -11.486,25.6 -25.6,25.6 H 42.667 c -14.114,0 -25.6,-11.486 -25.6,-25.6 V 281.6 c 0,-4.71 -3.814,-8.533 -8.533,-8.533 C 3.815,273.067 0,276.89 0,281.6 V 469.333 C 0,492.86 19.14,512 42.667,512 H 469.334 C 492.86,512 512,492.86 512,469.333 V 59.733 C 512,36.207 492.86,17.067 469.333,17.067 Z m -358.4,102.4 c 4.71,0 8.533,3.831 8.533,8.533 0,4.702 -3.823,8.533 -8.533,8.533 -4.71,0 -8.533,-3.831 -8.533,-8.533 0,-4.702 3.823,-8.533 8.533,-8.533 z M 96.102,187.733 H 179.2 c 4.719,0 8.533,-3.823 8.533,-8.533 0,-4.71 -3.814,-8.533 -8.533,-8.533 H 85.333 V 153.6 h 136.533 v 17.067 c -4.07,0 -7.569,2.867 -8.371,6.861 -0.077,0.393 -7.578,37.205 -21.973,61.406 h -75.844 c -9.72,-16.342 -16.299,-38.443 -19.576,-51.201 z m 194.031,-128 c 0,5.666 -2.876,8.533 -8.533,8.533 h -17.067 v -8.533 c 0,-4.71 -3.814,-8.533 -8.533,-8.533 -4.719,0 -8.533,3.823 -8.533,8.533 v 8.533 H 230.4 c -5.658,0 -8.533,-2.867 -8.533,-8.533 V 17.067 h 68.267 v 42.666 z"
   id="path1312" />
			<path
   d="m 196.267,409.6 h -102.4 c -4.719,0 -8.533,3.823 -8.533,8.533 0,4.71 3.814,8.533 8.533,8.533 h 102.4 c 4.719,0 8.533,-3.823 8.533,-8.533 0,-4.71 -3.814,-8.533 -8.533,-8.533 z"
   id="path1314" />
			<path
   d="M 298.667,409.6 H 332.8 c 4.719,0 8.533,-3.823 8.533,-8.533 0,-4.71 -3.814,-8.533 -8.533,-8.533 h -34.133 c -4.719,0 -8.533,3.823 -8.533,8.533 0,4.71 3.814,8.533 8.533,8.533 z"
   id="path1316" />
			<path
   d="M 213.333,273.067 H 42.667 c -4.719,0 -8.533,3.823 -8.533,8.533 v 187.733 c 0,4.71 3.814,8.533 8.533,8.533 h 426.667 c 4.719,0 8.533,-3.823 8.533,-8.533 V 281.6 c 0,-4.71 -3.814,-8.533 -8.533,-8.533 H 247.467 c -4.719,0 -8.533,3.823 -8.533,8.533 0,4.71 3.814,8.533 8.533,8.533 h 42.667 v 34.133 c 0,18.825 -15.309,34.133 -34.133,34.133 -18.825,0 -34.133,-15.309 -34.133,-34.133 V 281.6 c -0.001,-4.71 -3.816,-8.533 -8.535,-8.533 z M 256,375.467 c 28.237,0 51.2,-22.963 51.2,-51.2 V 290.134 H 460.8 V 358.4 h -59.733 c -4.719,0 -8.533,3.823 -8.533,8.533 0,4.71 3.814,8.533 8.533,8.533 H 460.8 V 460.8 H 51.2 v -85.333 h 25.6 c 4.719,0 8.533,-3.823 8.533,-8.533 0,-4.71 -3.814,-8.534 -8.533,-8.534 H 51.2 v -68.267 h 153.6 v 34.133 c 0,28.237 22.963,51.201 51.2,51.201 z"
   id="path1318" />
			<path
   d="m 290.133,128 c 0,-14.114 -11.486,-25.6 -25.6,-25.6 -14.114,0 -25.6,11.486 -25.6,25.6 0,14.114 11.486,25.6 25.6,25.6 14.114,0 25.6,-11.486 25.6,-25.6 z m -25.6,8.533 c -4.71,0 -8.533,-3.831 -8.533,-8.533 0,-4.702 3.823,-8.533 8.533,-8.533 4.71,0 8.533,3.831 8.533,8.533 0,4.702 -3.822,8.533 -8.533,8.533 z"
   id="path1320" />
			<path
   d="m 51.2,51.2 c -9.412,0 -17.067,7.654 -17.067,17.067 v 145.067 c 0,4.71 3.814,8.533 8.533,8.533 4.719,0 8.533,-3.823 8.533,-8.533 V 68.267 h 128 c 4.719,0 8.533,-3.823 8.533,-8.533 0,-4.71 -3.813,-8.534 -8.532,-8.534 z"
   id="path1322" />
			<path
   d="m 298.667,204.8 c 14.114,0 25.6,-11.486 25.6,-25.6 0,-14.114 -11.486,-25.6 -25.6,-25.6 -14.114,0 -25.6,11.486 -25.6,25.6 0,14.114 11.486,25.6 25.6,25.6 z m 0,-34.133 c 4.71,0 8.533,3.831 8.533,8.533 0,4.702 -3.823,8.533 -8.533,8.533 -4.71,0 -8.533,-3.831 -8.533,-8.533 -0.001,-4.702 3.822,-8.533 8.533,-8.533 z"
   id="path1324" />
			<path
   d="m 264.533,324.267 v -8.533 c 0,-4.71 -3.814,-8.533 -8.533,-8.533 -4.719,0 -8.533,3.823 -8.533,8.533 v 8.533 c 0,4.71 3.814,8.533 8.533,8.533 4.719,0 8.533,-3.823 8.533,-8.533 z"
   id="path1326" />
		</g>
	</g>
</g><g
         id="g1334">
</g><g
         id="g1336">
</g><g
         id="g1338">
</g><g
         id="g1340">
</g><g
         id="g1342">
</g><g
         id="g1344">
</g><g
         id="g1346">
</g><g
         id="g1348">
</g><g
         id="g1350">
</g><g
         id="g1352">
</g><g
         id="g1354">
</g><g
         id="g1356">
</g><g
         id="g1358">
</g><g
         id="g1360">
</g><g
         id="g1362">
</g></g></g></svg>
