<?xml version="1.0" encoding="utf-8"?>
<!-- Uploaded to SVGRepo https://www.svgrepo.com -->
<svg version="1.1" id="Layer_1" xmlns="http://www.w3.org/2000/svg" xmlns:xlink="http://www.w3.org/1999/xlink" x="0px" y="0px"
	 width="256px" height="177px" viewBox="0 0 256 177" enable-background="new 0 0 256 177" xml:space="preserve">
<path d="M168.337,116.926l13.771-8.763l0.009,54.647c6.523,0,11.811,5.288,11.811,11.811h-16.732c0-6.454-3.481-12.109-8.654-15.203
	l-0.204-0.12V116.926z M42.701,132.697l15.401,41.925h19.685c0-6.523-5.288-11.811-11.811-11.811l-6.89-29.669l28.34-20.534
	l-13.96-1.726L42.701,132.697z M249.881,28.937l-2.904,0.603L234.282,26l-3.937-7.874l-27.559-3.937L187.038,2.379l-1.968,7.874
	l1.968,7.874l-27.559,19.685L37.433,52.575l-23.54,24.667L2,128.425l25.281-32.847l-9.533,32.843v30.453l3.937,15.748h21.653
	c0-6.526-5.285-11.811-11.811-11.811l0.335-29.665l40.049-28.405l73.789,9.124v45.009l5.905,15.748h19.685
	c0-6.526-5.285-11.811-11.811-11.811v-47.244l43.307-27.559l6.377-24.196l5.434-6.316l23.622-1.968l3.937-5.905l-5.467-1.094v-4.077
	c0,0-2.184,2.024-3.595,3.358l-10.623-2.125l3.937-3.937l7.902,2.302l2.427-2.302h3.673v4.848l5.745-4.848h3.876l3.657-8.053
	C254.844,31.149,252.619,28.369,249.881,28.937z"/>
</svg>
