<?xml version="1.0" encoding="UTF-8" standalone="no"?>
<!-- Created with Inkscape (http://www.inkscape.org/) -->

<svg
   width="512"
   height="512"
   viewBox="0 0 135.46666 135.46667"
   version="1.1"
   id="svg5"
   xml:space="preserve"
   inkscape:version="1.2.1 (9c6d41e410, 2022-07-14)"
   sodipodi:docname="artisanTrader.svg"
   xmlns:inkscape="http://www.inkscape.org/namespaces/inkscape"
   xmlns:sodipodi="http://sodipodi.sourceforge.net/DTD/sodipodi-0.dtd"
   xmlns="http://www.w3.org/2000/svg"
   xmlns:svg="http://www.w3.org/2000/svg"><sodipodi:namedview
     id="namedview7"
     pagecolor="#ffffff"
     bordercolor="#000000"
     borderopacity="0.25"
     inkscape:showpageshadow="2"
     inkscape:pageopacity="0.0"
     inkscape:pagecheckerboard="0"
     inkscape:deskcolor="#d1d1d1"
     inkscape:document-units="px"
     showgrid="false"
     inkscape:zoom="1.0544998"
     inkscape:cx="413.46619"
     inkscape:cy="269.32201"
     inkscape:window-width="1920"
     inkscape:window-height="1017"
     inkscape:window-x="1912"
     inkscape:window-y="-8"
     inkscape:window-maximized="1"
     inkscape:current-layer="layer1" /><defs
     id="defs2" /><g
     inkscape:label="Layer 1"
     inkscape:groupmode="layer"
     id="layer1"><path
       d="m 97.01061,67.688047 -4.105541,9.77116 c -0.821163,0.245167 -1.560084,0.656988 -2.298991,1.067568 l -9.771167,-4.105512 -5.911965,5.911967 4.10551,9.771162 c -0.410579,0.821163 -0.738918,1.478141 -1.067257,2.298991 l -9.771192,4.105539 v 8.211058 l 9.771192,4.10554 c 0.328339,0.82116 0.656988,1.47815 1.067257,2.29899 l -4.10551,9.77117 5.911965,5.91196 9.771167,-4.10551 c 0.738907,0.32834 1.477828,0.73892 2.298991,1.06757 l 4.105541,9.77116 h 8.21106 l 4.10553,-9.77116 c 0.7389,-0.32834 1.56007,-0.65699 2.29899,-1.06757 l 9.77115,4.10551 5.91197,-5.91196 -4.1055,-9.77117 c 0.32834,-0.73891 0.7389,-1.56007 1.06756,-2.29899 l 9.77116,-4.10554 v -8.211058 l -9.77116,-4.105539 c -0.24516,-0.738921 -0.657,-1.56007 -1.06756,-2.298991 l 4.1055,-9.771162 -5.91197,-5.911967 -9.77115,4.105512 c -0.73892,-0.32834 -1.56009,-0.738918 -2.29899,-1.067568 l -4.10553,-9.77116 z m 4.10554,20.527678 c 6.81516,0 12.31659,5.501387 12.31659,12.316595 0,6.81517 -5.50143,12.3166 -12.31659,12.3166 -6.815211,0 -12.316595,-5.50143 -12.316595,-12.3166 0,-6.815208 5.501384,-12.316595 12.316595,-12.316595 z"
       id="path256"
       style="stroke-width:8.21106" /><g
       id="g606"
       transform="matrix(-0.59855919,0,0,0.59855919,128.01324,10.039982)"><g
         id="g546">
	<g
   id="g544">
		<path
   d="m 119.419,94.771 c -3.551,-2.781 0.036,-9.093 2.17,-13.25 2.705,-5.27 6.194,-10.082 9.007,-15.286 6.666,-12.332 3.383,-29.713 -3.231,-41.243 C 109.546,-6.069 68.253,13.11 47.497,29.394 20.795,50.345 1.468,78.158 0.058,112.926 c -1.537,37.855 27.99,63.878 64.88,64.047 15.057,0.068 28.898,-5.879 42.181,-12.303 12.377,-5.984 24.644,-13.346 33.499,-24.051 17.137,-20.716 -0.235,-39.64 -21.199,-45.848 z m 5.748,52.796 C 106.842,161.596 82.231,172.565 58.991,171.516 36.866,170.517 16.327,157.064 8.698,136.146 2.312,118.635 5.593,98.883 12.061,81.942 18.26,65.707 30.376,52.205 43.112,40.727 56.668,28.51 73.915,17.097 92.394,14.74 c 20.959,-2.675 34.491,13.479 35.566,33.294 0.783,14.452 -8.782,22.95 -13.843,35.443 -2.396,5.915 -2.872,12.579 1.362,15.498 0.299,0.297 0.682,0.541 1.182,0.685 0.049,0.015 0.098,0.03 0.146,0.044 0.542,0.229 1.134,0.413 1.789,0.543 8.854,2.796 17.484,7.26 22.109,15.67 6.68,12.149 -6.948,25.074 -15.538,31.65 z"
   id="path532" />
		<path
   d="M 101.131,34.277 C 88.771,22.53 68.023,48.042 80.071,60.422 c 7.658,7.869 22.238,0.136 26.102,-7.946 3.667,-7.67 0.858,-14.959 -5.042,-18.199 z m -1.295,17.535 c -2.713,4.292 -13.401,9.062 -16.663,2.996 -2.283,-4.246 0.704,-10.329 3.164,-13.753 1.163,-1.618 2.455,-2.676 3.837,-3.339 0.379,0.235 0.84,0.359 1.379,0.307 3.839,-0.37 7.499,-0.067 9.549,3.585 1.81,3.227 0.556,7.322 -1.266,10.204 z"
   id="path534" />
		<path
   d="m 52.571,64.276 c -1.207,-0.107 -2.376,0.039 -3.492,0.375 -5.768,0.128 -9.415,5.714 -10.132,11.835 -0.473,2.016 -0.358,4.041 0.24,5.877 0.086,0.409 0.181,0.815 0.297,1.213 1.383,4.733 5.135,8.396 10.176,8.598 7.232,0.289 11.72,-6.587 12.791,-12.919 1.207,-7.13 -2.127,-14.289 -9.88,-14.979 z"
   id="path536" />
		<path
   d="m 43.067,103.577 c -5.866,-3.049 -12.084,-0.302 -15.694,4.809 -3.715,5.26 -4.986,12.658 -0.016,17.569 4.274,4.225 11.477,2.937 15.785,-0.449 2.764,-2.173 4.428,-5.325 4.559,-8.521 0.283,-0.829 0.49,-1.645 0.599,-2.419 0.637,-4.53 -1.052,-8.816 -5.233,-10.989 z"
   id="path538" />
		<path
   d="m 59.134,135.775 c -0.689,0.663 -1.305,1.472 -1.854,2.366 -1.831,1.516 -3.2,4.124 -3.809,6.509 -1.138,4.455 0.545,10.198 4.884,12.309 7.618,3.707 17.788,-3.7 17.519,-11.866 -0.251,-7.64 -10.229,-15.583 -16.74,-9.318 z"
   id="path540" />
		<path
   d="m 175.538,14.614 c -0.759,-1.065 -1.896,-1.355 -2.918,-1.147 -0.922,-0.297 -2.009,-0.088 -2.427,0.891 -5.996,14.02 -33.74,42.598 -13.197,55.714 1.844,1.177 3.788,2.03 5.772,2.642 -0.195,1.899 -0.174,3.852 -0.32,5.318 -1.157,11.555 -0.937,23.534 -0.65,35.13 0.589,23.815 2.22,47.591 8.197,70.731 0.423,1.636 3.009,2.159 3.789,0.495 7.41,-15.813 7.801,-32.974 7.571,-50.133 -0.279,-20.873 -0.405,-41.709 -1.812,-62.543 4.711,-2.056 8.81,-5.567 11.44,-10.303 9.3,-16.74 -6.389,-34.079 -15.445,-46.795 z m -12.433,43.868 c -0.535,2.266 -0.984,4.77 -3.235,2.566 -4.208,-4.122 -2.424,-10.393 -0.697,-15.202 1.019,-2.834 2.416,-5.684 4.027,-8.474 0.447,-0.719 0.876,-1.41 1.258,-2.048 0.122,-0.204 0.254,-0.412 0.379,-0.617 -0.952,7.793 0.005,16.413 -1.732,23.775 z m 2.754,38.473 c 0.059,-4.545 0.164,-9.09 0.33,-13.628 0.102,-2.79 0.149,-5.519 0.138,-8.308 -0.002,-0.492 0.005,-0.981 0.011,-1.47 3.017,0.435 6.063,0.26 8.984,-0.426 0.501,7.65 0.812,15.297 1.047,22.947 -0.25,0.039 -0.51,0.112 -0.778,0.247 -3.039,1.529 -6.647,2.108 -9.732,0.638 z"
   id="path542" />
	</g>
</g><g
         id="g548">
</g><g
         id="g550">
</g><g
         id="g552">
</g><g
         id="g554">
</g><g
         id="g556">
</g><g
         id="g558">
</g><g
         id="g560">
</g><g
         id="g562">
</g><g
         id="g564">
</g><g
         id="g566">
</g><g
         id="g568">
</g><g
         id="g570">
</g><g
         id="g572">
</g><g
         id="g574">
</g><g
         id="g576">
</g></g></g></svg>
