<?xml version="1.0" standalone="no"?>
<!DOCTYPE svg PUBLIC "-//W3C//DTD SVG 20010904//EN" "http://www.w3.org/TR/2001/REC-SVG-20010904/DTD/svg10.dtd">
<!-- Created using Krita: https://krita.org -->
<svg xmlns="http://www.w3.org/2000/svg" 
    xmlns:xlink="http://www.w3.org/1999/xlink"
    xmlns:krita="http://krita.org/namespaces/svg/krita"
    xmlns:sodipodi="http://sodipodi.sourceforge.net/DTD/sodipodi-0.dtd"
    width="368.64pt"
    height="368.64pt"
    viewBox="0 0 368.64 368.64">
<defs/>
<path id="path256" transform="matrix(2.7212596790428 0 0 2.7212596790428 185.56273732431 184.196753054254)" fill="#000000" stroke-opacity="0" stroke="#000000" stroke-width="0" stroke-linecap="square" stroke-linejoin="bevel" d="M28.8206 0L24.7151 9.77116C23.8939 10.0163 23.155 10.4281 22.4161 10.8387L12.6449 6.73322L6.73294 12.6452L10.8384 22.4163C10.4279 23.2375 10.0995 23.8945 9.77119 24.7153L0 28.8209L0 37.0319L9.77119 41.1375C10.0995 41.9586 10.4282 42.6156 10.8384 43.4365L6.73294 53.2076L12.6449 59.1196L22.4161 55.0141C23.155 55.3424 23.8939 55.753 24.7151 56.0817L28.8206 65.8528L37.0317 65.8528L41.1372 56.0817C41.8761 55.7533 42.6973 55.4247 43.4362 55.0141L53.2073 59.1196L59.1193 53.2076L55.0138 43.4365C55.3421 42.6976 55.7527 41.8764 56.0814 41.1375L65.8525 37.0319L65.8525 28.8209L56.0814 24.7153C55.8362 23.9764 55.4244 23.1553 55.0138 22.4163L59.1193 12.6452L53.2073 6.73322L43.4362 10.8387C42.6973 10.5104 41.8761 10.0998 41.1372 9.77116L37.0317 0ZM32.9261 20.5277C39.7413 20.5277 45.2427 26.0291 45.2427 32.8443C45.2427 39.6594 39.7413 45.1609 32.9261 45.1609C26.1109 45.1609 20.6095 39.6594 20.6095 32.8443C20.6095 26.0291 26.1109 20.5277 32.9261 20.5277Z" sodipodi:nodetypes="cccccccccccccccccccccccccccccccccccccc"/><g id="group0" transform="matrix(0.665890402201549 0 0 0.665890402201549 13.8523930018443 13.8520599536385)" fill="none">
  <g id="group1" fill="none">
   <path id="shape0" transform="translate(122.436, -1.77635683940025e-15)" fill="#000000" stroke-opacity="0" stroke="#000000" stroke-width="0" stroke-linecap="square" stroke-linejoin="bevel" d="M233.738 0L33.391 0C14.949 0 0 14.949 0 33.391C0 51.833 14.949 66.782 33.391 66.782L233.739 66.782C252.181 66.782 267.13 51.833 267.13 33.391C267.13 14.949 252.18 0 233.738 0Z" sodipodi:nodetypes="ccccccc"/>
  </g>
 </g><g id="group2" transform="matrix(0.665890402201549 0 0 0.665890402201549 13.8523930018443 13.8520599536386)" fill="none">
  <g id="group3" fill="none">
   <path id="shape1" transform="translate(89.044, 345.043)" fill="#000000" stroke-opacity="0" stroke="#000000" stroke-width="0" stroke-linecap="square" stroke-linejoin="bevel" d="M332.247 0L1.666 0C0.673 7.349 0 14.761 0 22.261C0 25.994 0.13 29.705 0.372 33.391L333.54 33.391C333.783 29.705 333.913 25.994 333.913 22.261C333.913 14.762 333.24 7.35 332.247 0Z" sodipodi:nodetypes="ccccccc"/>
  </g>
 </g><g id="group4" transform="matrix(0.665890402201549 0 0 0.665890402201549 13.8523930018443 13.8520599536386)" fill="none">
  <g id="group5" fill="none">
   <path id="shape2" transform="translate(95.09, 411.826)" fill="#000000" stroke-opacity="0" stroke="#000000" stroke-width="0" stroke-linecap="square" stroke-linejoin="bevel" d="M0 5.68434e-14C11.074 40.146 36.96 75.038 73.867 97.706C76.497 99.32 79.519 100.174 82.607 100.174L239.216 100.174C242.302 100.174 245.324 99.32 247.956 97.706C284.862 75.038 310.748 40.146 321.822 0Z" sodipodi:nodetypes="ccccccc"/>
  </g>
 </g><g id="group6" transform="matrix(0.665890402201549 0 0 0.665890402201549 13.8523930018443 13.8520599536385)" fill="none">
  <g id="group7" fill="none">
   <path id="shape3" transform="translate(89.042, 100.174)" fill="#000000" stroke-opacity="0" stroke="#000000" stroke-width="0" stroke-linecap="square" stroke-linejoin="bevel" d="M333.915 100.174C333.915 63.348 303.959 33.391 267.132 33.391C264.02 33.391 260.961 33.623 257.961 34.037C258.155 32.862 258.352 31.686 258.572 30.511L264.292 0L69.625 0L75.344 30.511C75.564 31.685 75.761 32.861 75.955 34.037C72.954 33.623 69.897 33.391 66.783 33.391C29.957 33.391 0 63.347 0 100.174C0 126.904 15.79 150.003 38.526 160.666C25.889 175.892 16.237 193.12 9.715 211.479L324.199 211.479C317.679 193.119 308.028 175.892 295.392 160.664C318.128 150 333.915 126.902 333.915 100.174ZM59.269 132.701C44.465 129.283 33.393 116.002 33.393 100.173C33.393 81.76 48.371 66.782 66.784 66.782C70.643 66.782 74.346 67.448 77.796 68.656C76.477 91.527 70.136 113.527 59.269 132.701ZM274.65 132.701C263.782 113.525 257.44 91.525 256.12 68.656C259.57 67.447 263.275 66.782 267.132 66.782C285.545 66.782 300.523 81.76 300.523 100.173C300.524 116.001 289.452 129.281 274.65 132.701Z" sodipodi:nodetypes="ccccccccccccccccccccccccc"/>
  </g>
 </g>
</svg>
