<?xml version="1.0" standalone="no"?>
<!DOCTYPE svg PUBLIC "-//W3C//DTD SVG 20010904//EN" "http://www.w3.org/TR/2001/REC-SVG-20010904/DTD/svg10.dtd">
<!-- Created using Krita: https://krita.org -->
<svg xmlns="http://www.w3.org/2000/svg" 
    xmlns:xlink="http://www.w3.org/1999/xlink"
    xmlns:krita="http://krita.org/namespaces/svg/krita"
    xmlns:sodipodi="http://sodipodi.sourceforge.net/DTD/sodipodi-0.dtd"
    width="368.64pt"
    height="368.64pt"
    viewBox="0 0 368.64 368.64">
<defs/>
<path id="path256" transform="matrix(2.7212596790428 0 0 2.7212596790428 185.56273732431 184.196753054254)" fill="#000000" stroke-opacity="0" stroke="#000000" stroke-width="0" stroke-linecap="square" stroke-linejoin="bevel" d="M28.8206 0L24.7151 9.77116C23.8939 10.0163 23.155 10.4281 22.4161 10.8387L12.6449 6.73322L6.73294 12.6452L10.8384 22.4163C10.4279 23.2375 10.0995 23.8945 9.77119 24.7153L0 28.8209L0 37.0319L9.77119 41.1375C10.0995 41.9586 10.4282 42.6156 10.8384 43.4365L6.73294 53.2076L12.6449 59.1196L22.4161 55.0141C23.155 55.3424 23.8939 55.753 24.7151 56.0817L28.8206 65.8528L37.0317 65.8528L41.1372 56.0817C41.8761 55.7533 42.6973 55.4247 43.4362 55.0141L53.2073 59.1196L59.1193 53.2076L55.0138 43.4365C55.3421 42.6976 55.7527 41.8764 56.0814 41.1375L65.8525 37.0319L65.8525 28.8209L56.0814 24.7153C55.8362 23.9764 55.4244 23.1553 55.0138 22.4163L59.1193 12.6452L53.2073 6.73322L43.4362 10.8387C42.6973 10.5104 41.8761 10.0998 41.1372 9.77116L37.0317 0ZM32.9261 20.5277C39.7413 20.5277 45.2427 26.0291 45.2427 32.8443C45.2427 39.6594 39.7413 45.1609 32.9261 45.1609C26.1109 45.1609 20.6095 39.6594 20.6095 32.8443C20.6095 26.0291 26.1109 20.5277 32.9261 20.5277Z" sodipodi:nodetypes="cccccccccccccccccccccccccccccccccccccc"/><g id="g649" transform="matrix(0.719999947675877 0 0 0.719999947675877 9.85036878839685 191.471466620383)" fill="none"/><g id="g651" transform="matrix(0.719999947675877 0 0 0.719999947675877 9.85036878839685 191.471466620383)" fill="none"/><g id="g653" transform="matrix(0.719999947675877 0 0 0.719999947675877 9.85036878839685 191.471466620383)" fill="none"/><g id="g655" transform="matrix(0.719999947675877 0 0 0.719999947675877 9.85036878839685 191.471466620383)" fill="none"/><g id="g657" transform="matrix(0.719999947675877 0 0 0.719999947675877 9.85036878839685 191.471466620383)" fill="none"/><g id="g659" transform="matrix(0.719999947675877 0 0 0.719999947675877 9.85036878839685 191.471466620383)" fill="none"/><g id="g661" transform="matrix(0.719999947675877 0 0 0.719999947675877 9.85036878839685 191.471466620383)" fill="none"/><g id="g663" transform="matrix(0.719999947675877 0 0 0.719999947675877 9.85036878839685 191.471466620383)" fill="none"/><g id="g665" transform="matrix(0.719999947675877 0 0 0.719999947675877 9.85036878839685 191.471466620383)" fill="none"/><g id="g667" transform="matrix(0.719999947675877 0 0 0.719999947675877 9.85036878839685 191.471466620383)" fill="none"/><g id="g669" transform="matrix(0.719999947675877 0 0 0.719999947675877 9.85036878839685 191.471466620383)" fill="none"/><g id="g671" transform="matrix(0.719999947675877 0 0 0.719999947675877 9.85036878839685 191.471466620383)" fill="none"/><g id="g673" transform="matrix(0.719999947675877 0 0 0.719999947675877 9.85036878839685 191.471466620383)" fill="none"/><g id="g675" transform="matrix(0.719999947675877 0 0 0.719999947675877 9.85036878839685 191.471466620383)" fill="none"/><g id="g677" transform="matrix(0.719999947675877 0 0 0.719999947675877 9.85036878839685 191.471466620383)" fill="none"/><g id="group0" transform="matrix(-1.12793991437076 0 0 1.12793991437076 351.819077156151 5.30092632028914)" fill="none">
  <path id="shape0" transform="translate(61.977, 224.87)" fill="#000000" stroke-opacity="0" stroke="#000000" stroke-width="0" stroke-linecap="square" stroke-linejoin="bevel" d="M105.982 0L7.059 0C3.16 0 0 3.16 0 7.059L0 56.52C0 60.419 3.16 63.579 7.059 63.579L105.982 63.579C109.881 63.579 113.041 60.419 113.041 56.52L113.041 7.06C113.041 3.161 109.881 0 105.982 0Z" sodipodi:nodetypes="ccccccccc"/>
  <path id="shape1" transform="translate(183.958, 224.87)" fill="#000000" stroke-opacity="0" stroke="#000000" stroke-width="0" stroke-linecap="square" stroke-linejoin="bevel" d="M105.983 0L7.059 0C3.16 0 0 3.16 0 7.059L0 56.52C0 60.419 3.16 63.579 7.059 63.579L105.983 63.579C109.882 63.579 113.042 60.419 113.042 56.52L113.042 7.06C113.042 3.161 109.882 0 105.983 0Z" sodipodi:nodetypes="ccccccccc"/>
  <path id="shape2" transform="translate(61.977, 80.658)" fill="#000000" stroke-opacity="0" stroke="#000000" stroke-width="0" stroke-linecap="square" stroke-linejoin="bevel" d="M7.059 63.578L105.982 63.578C109.881 63.578 113.041 60.418 113.041 56.519L113.041 7.059C113.041 3.16 109.881 0 105.982 0L7.059 0C3.16 0 0 3.16 0 7.059L0 56.519C-7.10543e-15 60.417 3.16 63.578 7.059 63.578Z" sodipodi:nodetypes="ccccccccc"/>
  <path id="shape3" transform="translate(183.958, 80.656)" fill="#000000" stroke-opacity="0" stroke="#000000" stroke-width="0" stroke-linecap="square" stroke-linejoin="bevel" d="M105.983 0L7.059 0C3.16 0 0 3.16 0 7.059L0 56.519C0 60.418 3.16 63.578 7.059 63.578L105.983 63.578C109.882 63.578 113.042 60.418 113.042 56.519L113.042 7.059C113.042 3.161 109.882 0 105.983 0Z" sodipodi:nodetypes="ccccccccc"/>
  <path id="shape4" transform="translate(121.449, 8.55100000000001)" fill="#000000" stroke-opacity="0" stroke="#000000" stroke-width="0" stroke-linecap="square" stroke-linejoin="bevel" d="M7.059 63.578L105.983 63.578C109.882 63.578 113.042 60.418 113.042 56.519L113.042 7.059C113.042 3.16 109.882 0 105.983 0L7.059 0C3.16 0 0 3.16 0 7.059L0 56.519C-1.42109e-14 60.417 3.16 63.578 7.059 63.578Z" sodipodi:nodetypes="ccccccccc"/>
  <path id="shape5" transform="translate(123.495, 152.762999762799)" fill="#000000" stroke-opacity="0" stroke="#000000" stroke-width="0" stroke-linecap="square" stroke-linejoin="bevel" d="M0 7.059L0 56.521C0 60.42 3.16 63.58 7.059 63.58L105.982 63.58C109.881 63.58 113.041 60.42 113.041 56.521L113.041 7.059C113.041 3.16 109.881 2.37201e-07 105.982 2.37201e-07L7.059 2.37201e-07C3.16 -0.000999763 0 3.16 0 7.059Z" sodipodi:nodetypes="ccccccccc"/>
  <path id="shape6" transform="translate(0, 152.763)" fill="#000000" stroke-opacity="0" stroke="#000000" stroke-width="0" stroke-linecap="square" stroke-linejoin="bevel" d="M113.042 56.521L113.042 7.059C113.042 3.16 109.882 0 105.983 0L7.059 0C3.16 0 0 3.16 0 7.059L0 56.521C0 60.42 3.16 63.58 7.059 63.58L105.983 63.58C109.882 63.581 113.042 60.42 113.042 56.521Z" sodipodi:nodetypes="ccccccccc"/>
 </g>
</svg>
