<?xml version="1.0" standalone="no"?>
<!DOCTYPE svg PUBLIC "-//W3C//DTD SVG 20010904//EN" "http://www.w3.org/TR/2001/REC-SVG-20010904/DTD/svg10.dtd">
<!-- Created using Krita: https://krita.org -->
<svg xmlns="http://www.w3.org/2000/svg" 
    xmlns:xlink="http://www.w3.org/1999/xlink"
    xmlns:krita="http://krita.org/namespaces/svg/krita"
    xmlns:sodipodi="http://sodipodi.sourceforge.net/DTD/sodipodi-0.dtd"
    width="368.64pt"
    height="368.64pt"
    viewBox="0 0 368.64 368.64">
<defs/>
<path id="path256" transform="matrix(2.7212596790428 0 0 2.7212596790428 185.56273732431 184.196753054254)" fill="#000000" stroke-opacity="0" stroke="#000000" stroke-width="0" stroke-linecap="square" stroke-linejoin="bevel" d="M28.8206 0L24.7151 9.77116C23.8939 10.0163 23.155 10.4281 22.4161 10.8387L12.6449 6.73322L6.73294 12.6452L10.8384 22.4163C10.4279 23.2375 10.0995 23.8945 9.77119 24.7153L0 28.8209L0 37.0319L9.77119 41.1375C10.0995 41.9586 10.4282 42.6156 10.8384 43.4365L6.73294 53.2076L12.6449 59.1196L22.4161 55.0141C23.155 55.3424 23.8939 55.753 24.7151 56.0817L28.8206 65.8528L37.0317 65.8528L41.1372 56.0817C41.8761 55.7533 42.6973 55.4247 43.4362 55.0141L53.2073 59.1196L59.1193 53.2076L55.0138 43.4365C55.3421 42.6976 55.7527 41.8764 56.0814 41.1375L65.8525 37.0319L65.8525 28.8209L56.0814 24.7153C55.8362 23.9764 55.4244 23.1553 55.0138 22.4163L59.1193 12.6452L53.2073 6.73322L43.4362 10.8387C42.6973 10.5104 41.8761 10.0998 41.1372 9.77116L37.0317 0ZM32.9261 20.5277C39.7413 20.5277 45.2427 26.0291 45.2427 32.8443C45.2427 39.6594 39.7413 45.1609 32.9261 45.1609C26.1109 45.1609 20.6095 39.6594 20.6095 32.8443C20.6095 26.0291 26.1109 20.5277 32.9261 20.5277Z" sodipodi:nodetypes="cccccccccccccccccccccccccccccccccccccc"/><path id="rect4181-0-0" transform="matrix(38.4000002764997 0 0 38.4000002764997 5.77384334906699 29.579997714637)" fill="#000000" stroke-opacity="0" stroke="#000000" stroke-width="0" stroke-linecap="square" stroke-linejoin="bevel" d="M2.16983 0L0 1.85986L0 3.71971L1.79786 3.71971L1.85986 8.05938L7.43942 8.05938L7.43942 3.71971L9.29928 3.71971L9.29928 1.85986L7.12945 0L6.19952 0L4.64964 2.47981L3.09976 0Z" sodipodi:nodetypes="cccccccccccccc"/>
</svg>
