<?xml version="1.0" encoding="UTF-8" standalone="no"?>
<!-- Created with Inkscape (http://www.inkscape.org/) -->

<svg
   width="512"
   height="512"
   viewBox="0 0 135.46666 135.46667"
   version="1.1"
   id="svg5"
   xml:space="preserve"
   inkscape:version="1.2.1 (9c6d41e410, 2022-07-14)"
   sodipodi:docname="clothingTrader.svg"
   xmlns:inkscape="http://www.inkscape.org/namespaces/inkscape"
   xmlns:sodipodi="http://sodipodi.sourceforge.net/DTD/sodipodi-0.dtd"
   xmlns="http://www.w3.org/2000/svg"
   xmlns:svg="http://www.w3.org/2000/svg"><sodipodi:namedview
     id="namedview7"
     pagecolor="#ffffff"
     bordercolor="#000000"
     borderopacity="0.25"
     inkscape:showpageshadow="2"
     inkscape:pageopacity="0.0"
     inkscape:pagecheckerboard="0"
     inkscape:deskcolor="#d1d1d1"
     inkscape:document-units="px"
     showgrid="false"
     inkscape:zoom="1.0544998"
     inkscape:cx="413.46619"
     inkscape:cy="269.32201"
     inkscape:window-width="1920"
     inkscape:window-height="1017"
     inkscape:window-x="1912"
     inkscape:window-y="-8"
     inkscape:window-maximized="1"
     inkscape:current-layer="layer1" /><defs
     id="defs2" /><g
     inkscape:label="Layer 1"
     inkscape:groupmode="layer"
     id="layer1"><path
       d="m 97.01061,67.688047 -4.105541,9.77116 c -0.821163,0.245167 -1.560084,0.656988 -2.298991,1.067568 l -9.771167,-4.105512 -5.911965,5.911967 4.10551,9.771162 c -0.410579,0.821163 -0.738918,1.478141 -1.067257,2.298991 l -9.771192,4.105539 v 8.211058 l 9.771192,4.10554 c 0.328339,0.82116 0.656988,1.47815 1.067257,2.29899 l -4.10551,9.77117 5.911965,5.91196 9.771167,-4.10551 c 0.738907,0.32834 1.477828,0.73892 2.298991,1.06757 l 4.105541,9.77116 h 8.21106 l 4.10553,-9.77116 c 0.7389,-0.32834 1.56007,-0.65699 2.29899,-1.06757 l 9.77115,4.10551 5.91197,-5.91196 -4.1055,-9.77117 c 0.32834,-0.73891 0.7389,-1.56007 1.06756,-2.29899 l 9.77116,-4.10554 v -8.211058 l -9.77116,-4.105539 c -0.24516,-0.738921 -0.657,-1.56007 -1.06756,-2.298991 l 4.1055,-9.771162 -5.91197,-5.911967 -9.77115,4.105512 c -0.73892,-0.32834 -1.56009,-0.738918 -2.29899,-1.067568 l -4.10553,-9.77116 z m 4.10554,20.527678 c 6.81516,0 12.31659,5.501387 12.31659,12.316595 0,6.81517 -5.50143,12.3166 -12.31659,12.3166 -6.815211,0 -12.316595,-5.50143 -12.316595,-12.3166 0,-6.815208 5.501384,-12.316595 12.316595,-12.316595 z"
       id="path256"
       style="stroke-width:8.21106" /><path
       d="m 112.32665,19.851562 v -6.386777 c 0,-1.461294 -1.18481,-2.645833 -2.64584,-2.645833 H 83.640259 c -1.461029,0 -2.645834,1.184539 -2.645834,2.645833 v 6.386777 c -4.741068,0.586846 -8.424068,4.637617 -8.424068,9.53479 V 96.543949 H 42.113111 l 1.323975,-15.34583 h 1.629569 c 4.238625,0 8.224573,-1.6518 11.223889,-4.65111 2.999317,-2.99932 4.651111,-6.98553 4.651111,-11.22389 0,-8.381207 -6.530181,-15.261961 -14.769042,-15.832138 l 1.648619,-19.109002 c 8.166894,-0.336021 14.707923,-7.081838 14.707923,-15.329694 0,-1.461294 -1.18454,-2.645833 -2.645834,-2.645833 -1.461293,0 -2.645833,1.184539 -2.645833,2.645833 0,5.172604 -3.926946,9.443773 -8.955881,9.993048 l 0.0799,-0.924983 c 0.270938,-3.138223 -0.795069,-6.269302 -2.9247,-8.590492 -2.129631,-2.32119 -5.157523,-3.652573 -8.307652,-3.652573 -3.149864,0 -6.177756,1.331119 -8.307387,3.652308 -2.129367,2.32119 -3.195638,5.452269 -2.924704,8.590757 l 0.08625,1.000389 c -7.90998,0.297127 -14.254159,6.821223 -14.254159,14.802379 0,3.955521 1.540669,7.676092 4.33996,10.478823 2.80088,2.797175 6.521451,4.337844 10.476707,4.337844 h 1.992842 l 1.826154,21.166664 h -1.437746 c -7.148777,0 -12.964584,5.81581 -12.964584,12.96458 0,3.46393 1.348317,6.71989 3.796507,9.16808 2.448189,2.448191 5.704152,3.796511 9.168077,3.796511 h 3.674533 l 1.891506,21.92337 c 0.118005,1.3679 1.262857,2.41829 2.636044,2.41829 1.373188,0 2.51804,-1.05039 2.636044,-2.41829 l 1.891506,-21.92337 h 30.913652 v 2.59847 c 0,4.89744 3.683,8.94794 8.424068,9.53479 v 6.38757 c 0,1.46129 1.184805,2.64583 2.645834,2.64583 h 26.040551 c 1.46103,0 2.64584,-1.18454 2.64584,-2.64583 v -6.38731 c 4.74107,-0.58684 8.42407,-4.63761 8.42407,-9.53478 V 29.386352 c 0,-4.897438 -3.683,-8.947944 -8.42407,-9.53479 z M 37.129155,92.749829 36.132734,81.198119 h 1.993106 z m 18.520833,-27.42671 c 0,2.82495 -1.10146,5.48217 -3.101181,7.48215 -1.999721,1.99972 -4.656931,3.10118 -7.482152,3.10118 h -1.173163 l 1.824303,-21.144704 c 5.533495,0.337873 9.932193,4.944533 9.932193,10.561374 z M 26.545822,49.448118 c -2.543175,0 -4.935802,-0.990864 -6.734969,-2.787914 -1.799167,-1.801284 -2.790031,-4.193911 -2.790031,-6.737086 0,-5.21626 4.215077,-9.46441 9.417844,-9.522354 l 1.643327,19.047354 z m 5.204089,-19.05 h 2.733675 v 3.704167 c 0,1.461294 1.18454,2.645833 2.645834,2.645833 1.461293,0 2.645833,-1.184539 2.645833,-2.645833 v -11.1125 c 0,-1.461294 -1.18454,-2.645833 -2.645833,-2.645833 -1.461294,0 -2.645834,1.184539 -2.645834,2.645833 v 2.116667 h -3.190345 l -0.124355,-1.440921 c -0.145785,-1.689629 0.405342,-3.308615 1.552046,-4.558506 1.146704,-1.249892 2.712244,-1.938073 4.408223,-1.938073 1.696244,0 3.261783,0.688446 4.408223,1.938073 1.146439,1.249627 1.697831,2.868612 1.552046,4.558506 l -4.506913,52.240918 h -2.906183 z m -2.822839,66.145831 c -2.050521,0 -3.977746,-0.79772 -5.42634,-2.24658 -1.448858,-1.44885 -2.246577,-3.37581 -2.246577,-5.42634 0,-4.23095 3.441965,-7.67291 7.672917,-7.67291 h 1.894152 l 1.323975,15.34583 z m 86.531978,0.0699 -37.572685,8.274581 c -0.01561,-0.14949 -0.02434,-0.30083 -0.02434,-0.45429 v -4.33864 l 37.597025,-8.279871 z m 0,-10.21662 -37.597027,8.27987 v -4.79822 l 37.597027,-8.27987 z m 0,-10.21688 -37.597027,8.27987 v -4.79822 l 37.597027,-8.27987 z m 0,-10.21663 -37.597027,8.27988 v -4.79822 l 37.597027,-8.279873 z m 0,-10.21688 -37.597027,8.27987 V 59.228491 L 115.45905,50.94862 Z m 0,-10.216621 -37.597027,8.279871 V 49.01187 L 115.45905,40.732 Z m 0,-10.216885 -37.597027,8.279871 v -4.798219 l 37.597027,-8.279871 z m -8.42406,-19.202665 v 3.665009 H 86.286092 v -3.665009 z m -24.853908,8.956675 h 28.958648 c 0.74692,0 1.44991,0.19103 2.06348,0.525992 l -35.341187,7.783248 v -3.990181 c 0,-2.381515 1.937544,-4.319059 4.319059,-4.319059 z m 4.10501,92.643327 v -3.66554 h 20.748898 v 3.66554 z m 24.853638,-8.95721 H 84.940421 l 30.518369,-6.72094 v 2.40189 c 2.6e-4,2.38151 -1.93755,4.31905 -4.31906,4.31905 z"
       id="path734"
       style="stroke-width:0.264583" /></g></svg>
