<?xml version="1.0" encoding="UTF-8" standalone="no"?>
<!-- Created with Inkscape (http://www.inkscape.org/) -->

<svg
   width="512"
   height="512"
   viewBox="0 0 135.46666 135.46667"
   version="1.1"
   id="svg5"
   xml:space="preserve"
   inkscape:version="1.2.1 (9c6d41e410, 2022-07-14)"
   sodipodi:docname="ÑommoditiesTrader.svg"
   xmlns:inkscape="http://www.inkscape.org/namespaces/inkscape"
   xmlns:sodipodi="http://sodipodi.sourceforge.net/DTD/sodipodi-0.dtd"
   xmlns="http://www.w3.org/2000/svg"
   xmlns:svg="http://www.w3.org/2000/svg"><sodipodi:namedview
     id="namedview7"
     pagecolor="#ffffff"
     bordercolor="#000000"
     borderopacity="0.25"
     inkscape:showpageshadow="2"
     inkscape:pageopacity="0.0"
     inkscape:pagecheckerboard="0"
     inkscape:deskcolor="#d1d1d1"
     inkscape:document-units="px"
     showgrid="false"
     inkscape:zoom="1.0544998"
     inkscape:cx="413.46619"
     inkscape:cy="269.32201"
     inkscape:window-width="1920"
     inkscape:window-height="1017"
     inkscape:window-x="1912"
     inkscape:window-y="-8"
     inkscape:window-maximized="1"
     inkscape:current-layer="layer1" /><defs
     id="defs2" /><g
     inkscape:label="Layer 1"
     inkscape:groupmode="layer"
     id="layer1"><path
       d="m 97.01061,67.688047 -4.105541,9.77116 c -0.821163,0.245167 -1.560084,0.656988 -2.298991,1.067568 l -9.771167,-4.105512 -5.911965,5.911967 4.10551,9.771162 c -0.410579,0.821163 -0.738918,1.478141 -1.067257,2.298991 l -9.771192,4.105539 v 8.211058 l 9.771192,4.10554 c 0.328339,0.82116 0.656988,1.47815 1.067257,2.29899 l -4.10551,9.77117 5.911965,5.91196 9.771167,-4.10551 c 0.738907,0.32834 1.477828,0.73892 2.298991,1.06757 l 4.105541,9.77116 h 8.21106 l 4.10553,-9.77116 c 0.7389,-0.32834 1.56007,-0.65699 2.29899,-1.06757 l 9.77115,4.10551 5.91197,-5.91196 -4.1055,-9.77117 c 0.32834,-0.73891 0.7389,-1.56007 1.06756,-2.29899 l 9.77116,-4.10554 v -8.211058 l -9.77116,-4.105539 c -0.24516,-0.738921 -0.657,-1.56007 -1.06756,-2.298991 l 4.1055,-9.771162 -5.91197,-5.911967 -9.77115,4.105512 c -0.73892,-0.32834 -1.56009,-0.738918 -2.29899,-1.067568 l -4.10553,-9.77116 z m 4.10554,20.527678 c 6.81516,0 12.31659,5.501387 12.31659,12.316595 0,6.81517 -5.50143,12.3166 -12.31659,12.3166 -6.815211,0 -12.316595,-5.50143 -12.316595,-12.3166 0,-6.815208 5.501384,-12.316595 12.316595,-12.316595 z"
       id="path256"
       style="stroke-width:8.21106" /><g
       id="g826"
       transform="matrix(0.40876149,0,0,0.40876149,10.229053,7.9708732)"><g
         id="g765">
	<g
   id="g763">
		<g
   id="g761">
			
			
			
			<rect
   x="168.75"
   y="225"
   width="9.375"
   height="9.375"
   id="rect755" />
			<rect
   x="168.75"
   y="206.25"
   width="9.375"
   height="9.375"
   id="rect757" />
			<path
   d="M 234.586,69.206 C 251.142,60.618 262.5,43.345 262.5,23.437 c 0,-10.341 -8.409,-18.75 -18.75,-18.75 -5.241,0 -9.989,2.161 -13.392,5.639 C 226.139,4.102 219.009,0 210.938,0 c -8.071,0 -15.202,4.102 -19.42,10.327 -3.403,-3.478 -8.152,-5.639 -13.392,-5.639 -10.341,0 -18.75,8.409 -18.75,18.75 0,19.913 11.363,37.186 27.928,45.773 -10.767,3.338 -20.7,9.009 -29.288,16.673 C 147.699,78.004 135.811,72.14 122.878,68.817 139.012,60.098 150,43.031 150,23.438 c 0,-10.341 -8.409,-18.75 -18.75,-18.75 -5.241,0 -9.989,2.161 -13.392,5.639 C 113.639,4.102 106.509,0 98.438,0 90.367,0 83.236,4.102 79.018,10.327 75.615,6.849 70.866,4.688 65.626,4.688 c -10.341,0 -18.75,8.409 -18.75,18.75 0,19.594 10.987,36.661 27.117,45.384 C 31.523,79.734 0,118.238 0,164.063 V 225 c 0,36.188 29.438,65.625 65.625,65.625 h 65.625 c 26.114,0 48.642,-15.366 59.203,-37.5 h 57.984 c 23.264,0 42.188,-18.923 42.188,-42.188 v -65.625 c 0,-35.709 -23.611,-66.009 -56.039,-76.106 z M 168.75,23.438 c 0,-5.17 4.205,-9.375 9.375,-9.375 5.17,0 9.375,4.205 9.375,9.375 h 9.375 c 0,-7.753 6.309,-14.063 14.063,-14.063 7.754,0 14.062,6.309 14.062,14.063 h 9.375 c 0,-5.17 4.205,-9.375 9.375,-9.375 5.17,0 9.375,4.205 9.375,9.375 0,23.264 -18.923,42.188 -42.188,42.188 -23.265,0 -42.187,-18.924 -42.187,-42.188 z m 19.814,55.27 c -4.209,6.155 -7.917,15.066 -10.636,27.53 -3.764,-5.156 -8.002,-9.923 -12.675,-14.255 6.924,-5.953 14.817,-10.425 23.311,-13.275 z M 56.25,23.438 c 0,-5.17 4.205,-9.375 9.375,-9.375 5.17,0 9.375,4.205 9.375,9.375 h 9.375 c 0,-7.753 6.309,-14.063 14.063,-14.063 7.754,0 14.062,6.309 14.062,14.063 h 9.375 c 0,-5.17 4.205,-9.375 9.375,-9.375 5.17,0 9.375,4.205 9.375,9.375 0,23.264 -18.923,42.188 -42.188,42.188 C 75.172,65.626 56.25,46.702 56.25,23.438 Z M 187.499,225 c 0.001,31.017 -25.232,56.25 -56.249,56.25 H 65.625 C 34.608,281.25 9.375,256.017 9.375,225 v -60.938 c 0,-40.594 27.333,-74.864 64.537,-85.552 -13.481,15.473 -22.35,43.462 -22.35,76.177 h 9.375 c 0,-43.195 17.17,-79.688 37.5,-79.688 20.33,0 37.5,36.492 37.5,79.688 h 9.375 c 0,-32.714 -8.869,-60.703 -22.35,-76.177 37.205,10.687 64.537,44.958 64.537,85.552 V 225 Z m 93.752,-14.062 h -10e-4 c 0,18.089 -14.723,32.813 -32.813,32.813 h -54.328 c 1.781,-5.948 2.766,-12.234 2.766,-18.75 v -60.938 c 0,-16.697 -4.209,-32.419 -11.573,-46.209 C 187.809,101.18 194.386,75 210.938,75 c 17.348,0 28.125,30.534 28.125,79.688 h 9.375 c 0,-35.803 -5.18,-61.57 -14.934,-75.905 27.722,9.431 47.747,35.658 47.747,66.53 z"
   id="path759" />
		</g>
	</g>
</g><g
         id="g767">
</g><g
         id="g769">
</g><g
         id="g771">
</g><g
         id="g773">
</g><g
         id="g775">
</g><g
         id="g777">
</g><g
         id="g779">
</g><g
         id="g781">
</g><g
         id="g783">
</g><g
         id="g785">
</g><g
         id="g787">
</g><g
         id="g789">
</g><g
         id="g791">
</g><g
         id="g793">
</g><g
         id="g795">
</g></g><g
       id="g980"
       transform="matrix(0.26458333,0,0,0.26458333,-84.779139,-9.7574855)"><g
         id="g926">
	<path
   d="m 580.11833,325.49152 c -2.49827,-0.65241 -4.68057,0.89099 -5.47919,3.20253 -0.17835,0.51623 -0.36162,1.03063 -0.55676,1.54084 -0.0792,0.20737 -0.15863,0.41455 -0.24004,0.62082 -0.37385,0.89209 -0.7634,1.77742 -1.17795,2.65107 -1.97566,4.16124 -4.3436,8.14395 -7.05326,11.86946 -0.22654,0.31179 -0.4538,0.6232 -0.68545,0.93152 -0.0199,0.0266 -0.0469,0.0621 -0.077,0.10149 -0.32182,0.41401 -0.64584,0.82637 -0.97697,1.2329 -0.73565,0.9034 -1.48754,1.79402 -2.26736,2.65982 -1.61422,1.79221 -3.3126,3.51249 -5.12634,5.10389 -0.50108,0.43957 -1.00691,0.87456 -1.52405,1.29514 -0.20481,0.16685 -1.09161,0.84974 -1.06094,0.83532 -0.74806,0.55 -1.50853,1.0832 -2.29018,1.58374 -1.63047,1.04414 -3.32738,1.99446 -5.0975,2.78213 1.42675,-1.02242 2.81536,-2.17865 4.12857,-3.49204 10.65117,-10.651 11.1685,-26.17989 11.19314,-27.91642 l 0.0754,-5.47609 c 0.0416,-3.02437 -2.3767,-5.44233 -5.4007,-5.40089 -3.02437,0.0418 -5.47628,0.0754 -5.47628,0.0754 -1.56147,0.0223 -14.27264,0.44449 -24.56329,8.27119 0.15352,-1.25334 0.27838,-2.50631 0.37677,-3.75381 0.69238,-8.75693 0.0955,-17.55731 -0.9536,-26.26112 -0.29207,-2.4258 -1.82269,-4.48689 -4.48654,-4.48689 -2.22501,0 -4.78006,2.05433 -4.48671,4.48689 1.0195,8.45811 1.64507,17.03597 1.008,25.54957 -0.0885,1.18288 -0.19386,2.36521 -0.33533,3.54297 -0.01,0.0823 -0.0175,0.14749 -0.0237,0.20025 -0.003,0.0215 -0.006,0.0422 -0.009,0.0664 -0.0323,0.23311 -0.0653,0.46622 -0.0997,0.69914 -0.0701,0.46403 -0.14074,0.92787 -0.22069,1.39043 -0.35359,2.05214 -0.78731,4.09352 -1.36451,6.09546 -0.31415,1.09014 -0.65368,2.1739 -1.04578,3.23849 -0.0135,0.0367 -0.0394,0.10295 -0.0719,0.18528 -3.19814,-6.88733 -7.47548,-11.45108 -8.21678,-12.21447 l -3.81934,-3.92558 c -2.10965,-2.16806 -5.5294,-2.16806 -7.63886,0 -2.10946,2.16806 -3.81952,3.92558 -3.81952,3.92558 -1.09854,1.13048 -9.91735,10.59422 -11.54381,23.58943 l -3.02236,-3.10706 c -1.66898,-1.7159 -4.72858,-1.34771 -6.83348,0.82308 -2.10489,2.17043 -3.81167,3.92978 -3.81167,3.92978 -1.09872,1.13048 -9.90731,10.60426 -11.53413,23.59947 l -3.0125,-3.09775 c -1.66315,-1.71024 -4.71362,-1.33128 -6.81103,0.849 -2.09705,2.18029 -3.80163,3.94329 -3.80163,3.94329 -1.21026,1.24567 -11.74807,12.67247 -11.74807,27.73369 0,15.06469 10.77293,26.56779 11.983,27.81309 l 0.81232,0.82674 -23.75901,23.7601 c -2.62825,2.62825 -3.14704,6.3711 -1.18981,8.32851 1.95722,1.95704 5.69989,1.43862 8.32832,-1.18981 l 23.76704,-23.76723 c 1.45249,1.40302 12.6836,11.79079 27.62088,11.79791 15.06304,-0.002 26.41938,-10.60645 27.66523,-11.81634 l 3.92576,-3.81952 c 2.16806,-2.10928 2.53461,-5.17217 0.81852,-6.84152 -1.7159,-1.66898 -3.10705,-3.02199 -3.10705,-3.02199 12.99867,-1.62682 22.45912,-10.44563 23.58942,-11.54363 l 3.92595,-3.81988 c 2.16805,-2.10928 2.5346,-5.17216 0.81833,-6.84115 -1.7159,-1.66935 -3.10705,-3.02199 -3.10705,-3.02199 12.99867,-1.62682 22.45912,-10.44563 23.58961,-11.54399 l 3.92557,-3.81952 c 2.16806,-2.10965 2.16806,-5.5294 0,-7.63868 -2.16805,-2.10946 -3.92557,-3.81952 -3.92557,-3.81952 -0.48374,-0.46986 -2.49536,-2.36064 -5.65663,-4.49693 7.62498,-3.02309 14.26972,-8.58681 19.55925,-14.7164 6.29772,-7.29751 11.44524,-15.67091 14.60067,-24.80279 0.7988,-2.31062 -0.9735,-4.8967 -3.20235,-5.47883 z m -49.47852,12.92803 c 7.8977,-7.89752 20.52946,-8.07295 20.52946,-8.07295 0,0 -0.17524,12.63195 -8.07294,20.52947 -7.89752,7.89734 -20.52947,8.07276 -20.52947,8.07276 0,0 0.17543,-12.63176 8.07295,-20.52928 z m -31.74744,-4.28628 c 0,0 8.80841,9.0563 8.80841,20.22662 0,11.16997 -8.80841,20.22645 -8.80841,20.22645 0,0 -8.80822,-9.0563 -8.80822,-20.22645 0,-11.17032 8.80822,-20.22662 8.80822,-20.22662 z m -25.22501,25.225 c 0,0 8.81006,9.05448 8.81006,20.22462 0,11.17015 -8.80823,20.22627 -8.80823,20.22627 0,0 -8.80987,-9.05484 -8.80987,-20.22462 0,-11.16996 8.80804,-20.22627 8.80804,-20.22627 z m -25.225,65.6779 c 0,0 -8.80805,-9.05612 -8.80823,-20.22663 0,-11.16996 8.80823,-20.22626 8.80823,-20.22626 0,0 8.80822,9.05612 8.80822,20.22626 0,11.17051 -8.80822,20.22663 -8.80822,20.22663 z m 28.25558,16.83736 c -10.35674,10e-4 -18.92948,-7.60691 -20.08242,-8.6746 l 1.83564,-1.8362 c 3.22334,-2.58845 10.19446,-7.10985 18.2424,-7.10985 11.16996,0 20.23411,8.81589 20.23411,8.81589 0,0 -9.05977,8.8044 -20.22973,8.80476 z m 25.22409,-25.2261 c -10.35673,0.002 -18.92857,-7.60582 -20.08169,-8.67406 l 1.83602,-1.83583 c 3.22315,-2.58882 10.19774,-7.10675 18.24567,-7.11021 11.1685,0.002 20.23557,8.82118 20.23557,8.82118 0,0 -9.06542,8.79892 -20.23557,8.79892 z m 25.22665,-25.22647 c -10.35655,0.002 -18.92838,-7.60618 -20.0815,-8.67442 l 0.23109,-0.23074 -0.11646,-0.11627 c 1.8247,-1.66534 9.96756,-8.54866 19.9362,-8.54866 11.17033,0 20.26059,8.76497 20.26059,8.76497 0,0 -9.05977,8.80512 -20.22992,8.80512 z"
   id="path924"
   style="stroke-width:0.182543" />
</g><g
         id="g928">
</g><g
         id="g930">
</g><g
         id="g932">
</g><g
         id="g934">
</g><g
         id="g936">
</g><g
         id="g938">
</g><g
         id="g940">
</g><g
         id="g942">
</g><g
         id="g944">
</g><g
         id="g946">
</g><g
         id="g948">
</g><g
         id="g950">
</g><g
         id="g952">
</g><g
         id="g954">
</g><g
         id="g956">
</g></g></g></svg>
