<?xml version="1.0" standalone="no"?>
<!DOCTYPE svg PUBLIC "-//W3C//DTD SVG 20010904//EN" "http://www.w3.org/TR/2001/REC-SVG-20010904/DTD/svg10.dtd">
<!-- Created using Krita: https://krita.org -->
<svg xmlns="http://www.w3.org/2000/svg" 
    xmlns:xlink="http://www.w3.org/1999/xlink"
    xmlns:krita="http://krita.org/namespaces/svg/krita"
    xmlns:sodipodi="http://sodipodi.sourceforge.net/DTD/sodipodi-0.dtd"
    width="368.64pt"
    height="368.64pt"
    viewBox="0 0 368.64 368.64">
<defs/>
<path id="path256" transform="matrix(2.7212596790428 0 0 2.7212596790428 185.56273732431 184.196753054254)" fill="#000000" stroke-opacity="0" stroke="#000000" stroke-width="0" stroke-linecap="square" stroke-linejoin="bevel" d="M28.8206 0L24.7151 9.77116C23.8939 10.0163 23.155 10.4281 22.4161 10.8387L12.6449 6.73322L6.73294 12.6452L10.8384 22.4163C10.4279 23.2375 10.0995 23.8945 9.77119 24.7153L0 28.8209L0 37.0319L9.77119 41.1375C10.0995 41.9586 10.4282 42.6156 10.8384 43.4365L6.73294 53.2076L12.6449 59.1196L22.4161 55.0141C23.155 55.3424 23.8939 55.753 24.7151 56.0817L28.8206 65.8528L37.0317 65.8528L41.1372 56.0817C41.8761 55.7533 42.6973 55.4247 43.4362 55.0141L53.2073 59.1196L59.1193 53.2076L55.0138 43.4365C55.3421 42.6976 55.7527 41.8764 56.0814 41.1375L65.8525 37.0319L65.8525 28.8209L56.0814 24.7153C55.8362 23.9764 55.4244 23.1553 55.0138 22.4163L59.1193 12.6452L53.2073 6.73322L43.4362 10.8387C42.6973 10.5104 41.8761 10.0998 41.1372 9.77116L37.0317 0ZM32.9261 20.5277C39.7413 20.5277 45.2427 26.0291 45.2427 32.8443C45.2427 39.6594 39.7413 45.1609 32.9261 45.1609C26.1109 45.1609 20.6095 39.6594 20.6095 32.8443C20.6095 26.0291 26.1109 20.5277 32.9261 20.5277Z" sodipodi:nodetypes="cccccccccccccccccccccccccccccccccccccc"/><path id="shape0" transform="matrix(11.5199997616997 0 0 11.5199997616997 14.5703266497493 64.077119489494)" fill="#000000" stroke-opacity="0" stroke="#000000" stroke-width="0" stroke-linecap="square" stroke-linejoin="bevel" d="M27.9275 0L1.5429 0C0.694397 0 0 0.771757 0 1.53492C0 2.29808 0.694397 3.06922 1.5429 3.06922L1.91558 3.06922L1.91558 6.13906L27.5923 6.13906L27.5923 3.06922L27.9275 3.06922C28.7766 3.06922 29.4704 2.29808 29.4704 1.53492C29.4704 0.771757 28.7766 1.09062e-15 27.9275 0ZM14.7352 4.61703C14.3091 4.61703 13.9641 4.26155 13.9641 3.82379C13.9641 3.38603 14.3091 3.03054 14.7352 3.03054C15.1619 3.03054 15.5064 3.38603 15.5064 3.82379C15.5064 4.26155 15.1619 4.61703 14.7352 4.61703ZM1.91558 12.2781L27.5923 12.2781L27.5923 7.36761L1.91558 7.36761ZM14.7352 8.97866C15.1619 8.97866 15.5064 9.33353 15.5064 9.77129C15.5064 10.2097 15.1619 10.5645 14.7352 10.5645C14.3091 10.5645 13.9641 10.2097 13.9641 9.77129C13.9635 9.33353 14.3091 8.97866 14.7352 8.97866ZM1.91558 16.5126L1.91558 20.0823C1.91558 20.5182 1.97022 20.8755 2.39447 20.8755L5.47904 20.8755C5.9033 20.8755 6.09547 20.5182 6.09547 20.0823L6.09547 17.8044L23.4124 17.8044L23.4124 20.0823C23.4124 20.5182 23.5671 20.8755 23.9908 20.8755L27.076 20.8755C27.499 20.8755 27.5917 20.5182 27.5917 20.0823L27.5917 13.5073L1.91558 13.5073ZM14.7352 14.9268C15.1619 14.9268 15.5064 15.2823 15.5064 15.7194C15.5064 16.1584 15.1619 16.512 14.7352 16.512C14.3091 16.512 13.9641 16.1584 13.9641 15.7194C13.9635 15.2829 14.3091 14.9268 14.7352 14.9268Z" sodipodi:nodetypes="ccccccccccccccccccccccccccccccccccccccccccccc"/>
</svg>
