<?xml version="1.0" encoding="UTF-8" standalone="no"?>
<!-- Created with Inkscape (http://www.inkscape.org/) -->

<svg
   width="512"
   height="512"
   viewBox="0 0 135.46666 135.46667"
   version="1.1"
   id="svg5"
   xml:space="preserve"
   inkscape:version="1.2.1 (9c6d41e410, 2022-07-14)"
   sodipodi:docname="furnitureTrader.svg"
   xmlns:inkscape="http://www.inkscape.org/namespaces/inkscape"
   xmlns:sodipodi="http://sodipodi.sourceforge.net/DTD/sodipodi-0.dtd"
   xmlns="http://www.w3.org/2000/svg"
   xmlns:svg="http://www.w3.org/2000/svg"><sodipodi:namedview
     id="namedview7"
     pagecolor="#ffffff"
     bordercolor="#000000"
     borderopacity="0.25"
     inkscape:showpageshadow="2"
     inkscape:pageopacity="0.0"
     inkscape:pagecheckerboard="0"
     inkscape:deskcolor="#d1d1d1"
     inkscape:document-units="px"
     showgrid="false"
     inkscape:zoom="1.0544998"
     inkscape:cx="413.46619"
     inkscape:cy="269.32201"
     inkscape:window-width="1920"
     inkscape:window-height="1017"
     inkscape:window-x="1912"
     inkscape:window-y="-8"
     inkscape:window-maximized="1"
     inkscape:current-layer="layer1" /><defs
     id="defs2" /><g
     inkscape:label="Layer 1"
     inkscape:groupmode="layer"
     id="layer1"><path
       d="m 97.01061,67.688047 -4.105541,9.77116 c -0.821163,0.245167 -1.560084,0.656988 -2.298991,1.067568 l -9.771167,-4.105512 -5.911965,5.911967 4.10551,9.771162 c -0.410579,0.821163 -0.738918,1.478141 -1.067257,2.298991 l -9.771192,4.105539 v 8.211058 l 9.771192,4.10554 c 0.328339,0.82116 0.656988,1.47815 1.067257,2.29899 l -4.10551,9.77117 5.911965,5.91196 9.771167,-4.10551 c 0.738907,0.32834 1.477828,0.73892 2.298991,1.06757 l 4.105541,9.77116 h 8.21106 l 4.10553,-9.77116 c 0.7389,-0.32834 1.56007,-0.65699 2.29899,-1.06757 l 9.77115,4.10551 5.91197,-5.91196 -4.1055,-9.77117 c 0.32834,-0.73891 0.7389,-1.56007 1.06756,-2.29899 l 9.77116,-4.10554 v -8.211058 l -9.77116,-4.105539 c -0.24516,-0.738921 -0.657,-1.56007 -1.06756,-2.298991 l 4.1055,-9.771162 -5.91197,-5.911967 -9.77115,4.105512 c -0.73892,-0.32834 -1.56009,-0.738918 -2.29899,-1.067568 l -4.10553,-9.77116 z m 4.10554,20.527678 c 6.81516,0 12.31659,5.501387 12.31659,12.316595 0,6.81517 -5.50143,12.3166 -12.31659,12.3166 -6.815211,0 -12.316595,-5.50143 -12.316595,-12.3166 0,-6.815208 5.501384,-12.316595 12.316595,-12.316595 z"
       id="path256"
       style="stroke-width:8.21106" /><g
       id="g1209"
       transform="matrix(2.0585816,0,0,2.0585816,0.41960878,0.49077927)"><path
         d="M 35.998,19.312 45.693,9.495 41.992,2 H 22.009 l -3.702,7.495 9.696,9.817 C 18.17,21.212 10.711,29.965 10.711,40.459 10.711,52.338 20.262,62 32,62 43.738,62 53.289,52.338 53.289,40.459 53.289,29.965 45.83,21.211 35.998,19.312 m -2.617,-4.637 h -2.778 l -1.452,-4.402 h 5.681 l -1.451,4.402 M 40.789,3.936 42.963,8.338 H 36.994 L 36.277,3.936 h 4.512 m -3.918,6.337 h 5.334 l -4.35,4.402 H 35.42 l 1.451,-4.402 M 29.682,3.936 h 4.634 l 0.717,4.402 h -6.08 l 0.729,-4.402 m -6.471,0 h 4.51 l -0.729,4.402 h -5.955 l 2.174,-4.402 m -1.419,6.337 h 5.321 l 1.451,4.402 H 26.127 L 21.792,10.273 M 32,60.064 c -10.672,0 -19.354,-8.795 -19.354,-19.605 0,-10.81 8.683,-19.606 19.354,-19.606 10.671,0 19.353,8.795 19.353,19.606 0,10.811 -8.681,19.605 -19.353,19.605"
         fill="currentColor"
         id="path1197" /><path
         d="m 32,23.108 c -9.457,0 -17.152,7.784 -17.152,17.351 0,9.568 7.695,17.352 17.152,17.352 9.457,0 17.152,-7.783 17.152,-17.352 0,-9.567 -7.695,-17.351 -17.152,-17.351 m 0,32.767 c -8.391,0 -15.217,-6.916 -15.217,-15.416 0,-8.5 6.827,-15.416 15.217,-15.416 8.39,0 15.216,6.916 15.216,15.416 0,8.5 -6.825,15.416 -15.216,15.416"
         fill="currentColor"
         id="path1199" /></g></g></svg>
