<?xml version="1.0" standalone="no"?>
<!DOCTYPE svg PUBLIC "-//W3C//DTD SVG 20010904//EN" "http://www.w3.org/TR/2001/REC-SVG-20010904/DTD/svg10.dtd">
<!-- Created using Krita: https://krita.org -->
<svg xmlns="http://www.w3.org/2000/svg" 
    xmlns:xlink="http://www.w3.org/1999/xlink"
    xmlns:krita="http://krita.org/namespaces/svg/krita"
    xmlns:sodipodi="http://sodipodi.sourceforge.net/DTD/sodipodi-0.dtd"
    width="368.64pt"
    height="368.64pt"
    viewBox="0 0 368.64 368.64">
<defs/>
<path id="path256" transform="matrix(2.7212596790428 0 0 2.7212596790428 185.56273732431 184.196753054254)" fill="#000000" stroke-opacity="0" stroke="#000000" stroke-width="0" stroke-linecap="square" stroke-linejoin="bevel" d="M28.8206 0L24.7151 9.77116C23.8939 10.0163 23.155 10.4281 22.4161 10.8387L12.6449 6.73322L6.73294 12.6452L10.8384 22.4163C10.4279 23.2375 10.0995 23.8945 9.77119 24.7153L0 28.8209L0 37.0319L9.77119 41.1375C10.0995 41.9586 10.4282 42.6156 10.8384 43.4365L6.73294 53.2076L12.6449 59.1196L22.4161 55.0141C23.155 55.3424 23.8939 55.753 24.7151 56.0817L28.8206 65.8528L37.0317 65.8528L41.1372 56.0817C41.8761 55.7533 42.6973 55.4247 43.4362 55.0141L53.2073 59.1196L59.1193 53.2076L55.0138 43.4365C55.3421 42.6976 55.7527 41.8764 56.0814 41.1375L65.8525 37.0319L65.8525 28.8209L56.0814 24.7153C55.8362 23.9764 55.4244 23.1553 55.0138 22.4163L59.1193 12.6452L53.2073 6.73322L43.4362 10.8387C42.6973 10.5104 41.8761 10.0998 41.1372 9.77116L37.0317 0ZM32.9261 20.5277C39.7413 20.5277 45.2427 26.0291 45.2427 32.8443C45.2427 39.6594 39.7413 45.1609 32.9261 45.1609C26.1109 45.1609 20.6095 39.6594 20.6095 32.8443C20.6095 26.0291 26.1109 20.5277 32.9261 20.5277Z" sodipodi:nodetypes="cccccccccccccccccccccccccccccccccccccc"/><path id="path1197" transform="matrix(5.60193510409942 0 0 5.60193510409942 61.144212115559 12.5394080469599)" fill="#000000" stroke-opacity="0" stroke="#000000" stroke-width="0" stroke-linecap="square" stroke-linejoin="bevel" d="M25.287 17.312L34.982 7.495L31.281 0L11.298 0L7.596 7.495L17.292 17.312C7.459 19.212 0 27.965 0 38.459C0 50.338 9.551 60 21.289 60C33.027 60 42.578 50.338 42.578 38.459C42.578 27.965 35.119 19.211 25.287 17.312M30.078 1.936L32.252 6.338L26.283 6.338L25.566 1.936L30.078 1.936M18.971 1.936L23.605 1.936L24.322 6.338L18.242 6.338L18.971 1.936M12.5 1.936L17.01 1.936L16.281 6.338L10.326 6.338L12.5 1.936M24.3021 56.2444C13.6301 56.2444 1.935 49.269 1.935 38.459C1.935 27.649 11.3171 20.3459 21.9881 20.3459C32.6591 20.3459 39.4794 28.3929 39.4794 39.2039C39.4794 50.0149 30.4299 56.1989 19.7579 56.1989" sodipodi:nodetypes="cccccccccccccccccccccccccccccc"/><path id="path1199" transform="matrix(5.60193510409942 0 0 5.60193510409942 69.7490117003375 116.587764083046)" fill="#000000" stroke-opacity="0" stroke="#000000" stroke-width="0" stroke-linecap="square" stroke-linejoin="bevel" d="M19.7215 0.136323C10.2645 0.136323 0 10.3362 0 19.9032C0 29.4712 10.995 40.17 20.452 40.17C29.909 40.17 39.8973 29.4722 39.8973 19.9032C39.8973 10.3362 29.909 0 20.452 0M19.753 35.3014C11.362 35.3014 4.53596 28.3854 4.53596 19.8854C4.53596 11.3854 11.363 4.46935 19.753 4.46935C28.143 4.46935 34.969 11.3854 34.969 19.8854C34.969 28.3854 28.144 35.3014 19.753 35.3014" sodipodi:nodetypes="cccccccccc"/>
</svg>
