<?xml version="1.0" encoding="UTF-8" standalone="no"?>
<!-- Created with Inkscape (http://www.inkscape.org/) -->

<svg
   width="512"
   height="512"
   viewBox="0 0 135.46666 135.46667"
   version="1.1"
   id="svg5"
   xml:space="preserve"
   inkscape:version="1.2.1 (9c6d41e410, 2022-07-14)"
   sodipodi:docname="survivalGoodsTrader.svg"
   xmlns:inkscape="http://www.inkscape.org/namespaces/inkscape"
   xmlns:sodipodi="http://sodipodi.sourceforge.net/DTD/sodipodi-0.dtd"
   xmlns="http://www.w3.org/2000/svg"
   xmlns:svg="http://www.w3.org/2000/svg"><sodipodi:namedview
     id="namedview7"
     pagecolor="#ffffff"
     bordercolor="#000000"
     borderopacity="0.25"
     inkscape:showpageshadow="2"
     inkscape:pageopacity="0.0"
     inkscape:pagecheckerboard="0"
     inkscape:deskcolor="#d1d1d1"
     inkscape:document-units="px"
     showgrid="false"
     inkscape:zoom="1.0544998"
     inkscape:cx="413.46619"
     inkscape:cy="269.32201"
     inkscape:window-width="1920"
     inkscape:window-height="1017"
     inkscape:window-x="1912"
     inkscape:window-y="-8"
     inkscape:window-maximized="1"
     inkscape:current-layer="layer1" /><defs
     id="defs2" /><g
     inkscape:label="Layer 1"
     inkscape:groupmode="layer"
     id="layer1"><path
       d="m 97.01061,67.688047 -4.105541,9.77116 c -0.821163,0.245167 -1.560084,0.656988 -2.298991,1.067568 l -9.771167,-4.105512 -5.911965,5.911967 4.10551,9.771162 c -0.410579,0.821163 -0.738918,1.478141 -1.067257,2.298991 l -9.771192,4.105539 v 8.211058 l 9.771192,4.10554 c 0.328339,0.82116 0.656988,1.47815 1.067257,2.29899 l -4.10551,9.77117 5.911965,5.91196 9.771167,-4.10551 c 0.738907,0.32834 1.477828,0.73892 2.298991,1.06757 l 4.105541,9.77116 h 8.21106 l 4.10553,-9.77116 c 0.7389,-0.32834 1.56007,-0.65699 2.29899,-1.06757 l 9.77115,4.10551 5.91197,-5.91196 -4.1055,-9.77117 c 0.32834,-0.73891 0.7389,-1.56007 1.06756,-2.29899 l 9.77116,-4.10554 v -8.211058 l -9.77116,-4.105539 c -0.24516,-0.738921 -0.657,-1.56007 -1.06756,-2.298991 l 4.1055,-9.771162 -5.91197,-5.911967 -9.77115,4.105512 c -0.73892,-0.32834 -1.56009,-0.738918 -2.29899,-1.067568 l -4.10553,-9.77116 z m 4.10554,20.527678 c 6.81516,0 12.31659,5.501387 12.31659,12.316595 0,6.81517 -5.50143,12.3166 -12.31659,12.3166 -6.815211,0 -12.316595,-5.50143 -12.316595,-12.3166 0,-6.815208 5.501384,-12.316595 12.316595,-12.316595 z"
       id="path256"
       style="stroke-width:8.21106" /><g
       id="g1286"
       transform="matrix(-0.23226198,0,0,0.23226198,124.98746,6.4830239)"><g
         transform="translate(1,1)"
         id="g1231">
	<g
   id="g1229">
		<path
   d="m 508.76,419.871 -34.133,-34.133 c -1.707,-1.707 -3.413,-2.56 -5.973,-2.56 h -22.187 l 4.267,-14.507 c 1.707,-3.413 0,-6.827 -2.56,-9.387 l -42.667,-34.133 c -1.707,-0.853 -3.413,-1.707 -5.12,-1.707 h -64.853 l -46.934,-46.933 6.827,-6.827 c 3.413,-3.413 3.413,-8.533 0,-11.947 -3.413,-3.413 -8.533,-3.413 -11.947,0 l -6.827,6.827 L 254.466,242.377 396.89,99.954 c 7.821,3.766 11.801,6.514 12.03,6.743 l 3.413,1.707 0.853,0.853 c 42.667,17.92 64,10.24 82.773,0.853 7.68,-3.413 13.653,-11.093 14.507,-19.627 0.853,-7.68 -2.56,-16.213 -8.533,-22.187 -7.68,-6.827 -18.773,-8.533 -28.16,-4.267 -8.533,4.267 -14.507,6.827 -37.547,-2.56 C 419.16,51.231 332.12,17.097 243.373,26.484 c -0.787,0 -66.201,7.989 -133.946,70.854 L 82.093,70.004 c -0.34,-0.34 -0.701,-0.636 -1.071,-0.909 13.864,-12.265 30.311,-21.799 48.858,-28.105 3.413,-0.853 5.973,-5.12 5.973,-8.533 0,-3.413 -2.56,-6.827 -6.827,-7.68 L 9.56,-0.823 c -2.56,0 -5.12,0.853 -7.68,2.56 -2.56,1.707 -3.413,5.12 -2.56,7.68 l 25.6,119.467 c 0.853,4.267 4.267,6.827 8.533,6.827 3.413,0 6.827,-2.56 7.68,-5.973 6.306,-18.547 15.84,-34.994 28.105,-48.858 0.272,0.37 0.569,0.731 0.909,1.071 l 27.194,27.194 c -1.67,1.713 -3.34,3.449 -5.007,5.233 -66.56,63.147 -70.827,125.44 -70.827,142.507 -6.827,110.932 21.333,167.252 34.133,186.879 8.533,19.627 6.827,22.187 3.413,28.16 l -0.853,0.853 c -5.12,9.387 -3.413,20.48 3.413,28.16 l 2.56,2.56 c 5.12,5.12 11.093,7.68 17.92,7.68 0.853,0 1.707,0 2.56,0 7.68,-0.853 13.653,-5.12 17.92,-11.093 11.093,-17.92 18.773,-35.84 0,-79.36 l -0.853,-1.707 c 0,0 -3.584,-5.078 -8.233,-15.661 l 149.033,-149.032 22.187,22.187 -6.827,6.827 c -3.413,3.413 -3.413,8.533 0,11.947 1.707,1.707 3.413,2.56 5.973,2.56 2.56,0 4.267,-0.853 5.973,-2.56 l 6.827,-6.827 46.636,46.636 -4.822,64.298 c 0,1.707 0.853,4.267 2.56,5.973 l 47.787,52.053 c 2.56,2.56 5.973,3.413 9.387,2.56 l 13.653,-5.12 v 22.187 c 0,2.56 0.853,4.267 2.56,5.973 l 25.6,25.6 c 1.707,1.707 3.413,2.56 5.973,2.56 0.853,0 1.707,0 2.56,-0.853 3.413,-0.853 5.973,-3.413 5.973,-6.827 l 6.353,-50.821 19.247,19.247 v 22.187 c 0,5.12 3.413,8.533 8.533,8.533 5.12,0 8.533,-3.413 8.533,-8.533 v -17.067 h 17.067 c 5.12,0 8.533,-3.413 8.533,-8.533 0,-5.12 -3.413,-8.533 -8.533,-8.533 h -22.187 l -19.247,-19.247 50.821,-6.353 c 3.413,-0.853 5.973,-2.56 6.827,-5.973 1.706,-2.561 0.853,-5.974 -1.707,-8.534 z M 36.013,99.017 18.947,18.804 99.16,35.871 C 71.853,50.377 50.52,71.711 36.013,99.017 Z m 206.507,131.414 -22.187,-22.187 6.827,-6.827 c 3.413,-3.413 3.413,-8.533 0,-11.947 -3.413,-3.414 -8.533,-3.413 -11.947,0 l -6.827,6.827 -61.431,-61.431 c 48.913,-47.158 91.636,-57.225 98.124,-58.036 63.952,-3.966 108.601,6.468 134.963,16.077 z m 2.56,-186.88 c 9.387,-0.853 19.627,-1.707 29.013,-1.707 75.093,0 142.507,27.307 152.747,34.133 l 3.413,1.707 c 28.16,11.093 39.253,8.533 52.053,2.56 3.413,-0.853 6.827,-0.853 9.387,1.707 1.707,1.707 2.56,5.12 2.56,7.68 -0.853,3.413 -2.56,5.12 -5.12,6.827 -16.213,7.68 -33.28,13.653 -68.267,-1.707 l -2.56,-1.707 c -2.56,-1.707 -58.88,-39.253 -174.933,-32.427 l -8.533,1.707 c -16.921,4.029 -56.67,18.725 -99.845,60.582 L 121.784,109.695 C 183.841,52.186 244.297,43.551 245.08,43.551 Z m -157.013,448 c -1.707,1.707 -4.267,2.56 -5.12,2.56 -2.56,0 -4.267,-0.853 -5.973,-2.56 l -2.56,-2.56 c -1.707,-2.56 -2.56,-5.12 -0.853,-7.68 l 0.853,-0.853 c 5.973,-11.093 7.68,-18.773 -2.56,-44.373 L 71,434.377 C 61.613,420.724 32.6,367.817 39.427,256.884 v -0.853 c -0.853,-15.36 3.413,-71.68 65.707,-129.707 1.523,-1.639 3.049,-3.235 4.576,-4.811 l 13.164,13.164 c -62.294,58.344 -66.38,115.516 -66.38,121.354 -6.827,111.787 25.6,164.693 30.72,172.373 16.213,38.4 8.533,51.2 0.853,63.147 z M 86.913,386.038 c -8.581,-26.166 -17.029,-68.5 -13.353,-129.154 0,-2.499 2.45,-54.585 61.28,-110.24 l 61.6,61.6 -6.827,6.827 c -3.413,3.413 -3.413,8.533 0,11.947 1.707,1.707 3.413,2.56 5.973,2.56 2.56,0 4.267,-0.853 5.973,-2.56 l 6.827,-6.827 22.187,22.187 z m 333.1,98.686 -11.093,-11.093 v -30.72 c 0,-2.56 -2.56,-5.12 -5.12,-6.827 -2.56,-1.707 -5.12,-1.707 -7.68,-0.853 l -19.627,7.68 -40.96,-45.227 3.496,-46.85 18.294,18.294 c 0.113,0.353 0.244,0.693 0.397,1.018 v 30.099 c 0,5.12 3.413,8.533 8.533,8.533 5.12,0 8.533,-3.413 8.533,-8.533 v -13.653 l 50.754,50.754 z m 17.474,-59.326 -50.754,-50.754 h 13.653 c 5.12,0 8.533,-3.413 8.533,-8.533 0,-5.12 -3.413,-8.533 -8.533,-8.533 h -30.099 c -0.325,-0.153 -0.665,-0.284 -1.018,-0.397 l -16.67,-16.67 h 44.373 l 36.693,29.013 -6.827,19.627 c -0.853,2.56 -0.853,5.12 0.853,7.68 1.707,1.707 4.267,3.413 6.827,3.413 h 30.72 l 19.627,19.627 z"
   id="path1227" />
	</g>
</g><g
         id="g1233">
</g><g
         id="g1235">
</g><g
         id="g1237">
</g><g
         id="g1239">
</g><g
         id="g1241">
</g><g
         id="g1243">
</g><g
         id="g1245">
</g><g
         id="g1247">
</g><g
         id="g1249">
</g><g
         id="g1251">
</g><g
         id="g1253">
</g><g
         id="g1255">
</g><g
         id="g1257">
</g><g
         id="g1259">
</g><g
         id="g1261">
</g></g></g></svg>
