<?xml version="1.0" standalone="no"?>
<!DOCTYPE svg PUBLIC "-//W3C//DTD SVG 20010904//EN" "http://www.w3.org/TR/2001/REC-SVG-20010904/DTD/svg10.dtd">
<!-- Created using Krita: https://krita.org -->
<svg xmlns="http://www.w3.org/2000/svg" 
    xmlns:xlink="http://www.w3.org/1999/xlink"
    xmlns:krita="http://krita.org/namespaces/svg/krita"
    xmlns:sodipodi="http://sodipodi.sourceforge.net/DTD/sodipodi-0.dtd"
    width="368.64pt"
    height="368.64pt"
    viewBox="0 0 368.64 368.64">
<defs/>
<path id="shape0" transform="matrix(0.664759340655425 0 0 0.664759340655425 176.762018676418 241.364640515597)" fill="#000000" stroke-opacity="0" stroke="#000000" stroke-width="0" stroke-linecap="square" stroke-linejoin="bevel" d="M5.37 21.018L2.002 41.694L20.742 41.694L17.374 21.018C20.593 19.006 22.739 15.438 22.739 11.37C22.739 5.093 17.65 0 11.373 0C5.093 0 0 5.093 0 11.37C-5.68434e-14 15.439 2.148 19.006 5.37 21.018Z" sodipodi:nodetypes="cccccccc"/><path id="shape1" transform="matrix(0.664759340655425 0 0 0.664759340655425 171.097604334693 168.37273539295)" fill="#000000" stroke-opacity="0" stroke="#000000" stroke-width="0" stroke-linecap="square" stroke-linejoin="bevel" d="M0 15.14L27.541 37.923L40.179 33.804L1.372 0Z" sodipodi:nodetypes="ccccc"/><path id="shape2" transform="matrix(0.664759340655425 0 0 0.664759340655425 218.61194296738 180.025966634639)" fill="#000000" stroke-opacity="0" stroke="#000000" stroke-width="0" stroke-linecap="square" stroke-linejoin="bevel" d="M0 3.342L12.514 18.359L18.363 10.011L9.179 0Z" sodipodi:nodetypes="ccccc"/><path id="shape3" transform="matrix(0.664759340655425 0 0 0.664759340655425 209.177678404799 195.002329820265)" fill="#000000" stroke-opacity="0" stroke="#000000" stroke-width="0" stroke-linecap="square" stroke-linejoin="bevel" d="M2.507 6.676L0 19.194L31.719 8.347L20.868 0Z" sodipodi:nodetypes="ccccc"/><path id="shape4" transform="matrix(0.664759340655425 0 0 0.664759340655425 133.726828481067 186.680872393941)" fill="#000000" stroke-opacity="0" stroke="#000000" stroke-width="0" stroke-linecap="square" stroke-linejoin="bevel" d="M0 20.037L17.527 5.842L0 0Z" sodipodi:nodetypes="cccc"/><path id="shape5" transform="matrix(0.664759340655425 0 0 0.664759340655425 156.613827820493 198.330115079587)" fill="#000000" stroke-opacity="0" stroke="#000000" stroke-width="0" stroke-linecap="square" stroke-linejoin="bevel" d="M4.381 0L0 9.393L26.289 9.393L23.16 0Z" sodipodi:nodetypes="ccccc"/><path id="shape6" transform="matrix(0.664759340655425 0 0 0.664759340655425 129.829344466805 84.7945377703652)" fill="#000000" stroke-opacity="0" stroke="#000000" stroke-width="0" stroke-linecap="square" stroke-linejoin="bevel" d="M37.636 75.272C39.646 65.864 43.692 55.526 49.609 49.605C55.527 43.691 65.861 39.644 75.262 37.625C65.861 35.62 55.526 31.573 49.605 25.652C43.691 19.738 39.641 9.401 37.632 0C35.62 9.401 31.573 19.739 25.652 25.66C19.738 31.574 9.4 35.621 0 37.633C9.404 39.645 19.739 43.691 25.656 49.606C31.57 55.526 35.624 65.864 37.636 75.272Z" sodipodi:nodetypes="ccccccccc"/><path id="shape7" transform="matrix(0.664759340655425 0 0 0.664759340655425 221.328814392639 115.659978716337)" fill="#000000" stroke-opacity="0" stroke="#000000" stroke-width="0" stroke-linecap="square" stroke-linejoin="bevel" d="M22.619 45.231C23.825 39.579 26.259 33.367 29.811 29.807C33.368 26.255 39.571 23.821 45.224 22.608C39.572 21.402 33.368 18.968 29.811 15.416C26.255 11.863 23.825 5.652 22.615 0C21.409 5.652 18.972 11.864 15.42 15.416C11.863 18.976 5.652 21.402 0 22.615C5.652 23.821 11.864 26.255 15.42 29.815C18.972 33.366 21.409 39.578 22.619 45.231Z" sodipodi:nodetypes="ccccccccc"/><path id="shape8" transform="matrix(0.664759340655425 0 0 0.664759340655425 42.4354282288578 8.54132332246271)" fill="#000000" stroke-opacity="0" stroke="#000000" stroke-width="0" stroke-linecap="square" stroke-linejoin="bevel" d="M370.006 213.874L397.489 81.448L375.106 36.688C363.867 14.203 340.881 0 315.744 0L111.14 0C85.996 0 63.017 14.203 51.774 36.688L29.391 81.448L56.874 213.874L0 317.727L0 512L426.875 512L426.875 317.727ZM370.122 265.034C365.88 265.942 361.216 267.766 358.55 270.439C355.876 273.105 354.053 277.769 353.144 282.012C352.236 277.769 350.405 273.106 347.739 270.439C345.066 267.765 340.401 265.942 336.166 265.034C340.401 264.126 345.066 262.296 347.739 259.629C350.405 256.955 352.229 252.291 353.144 248.056C354.045 252.291 355.876 256.956 358.55 259.629C361.215 262.296 365.879 264.126 370.122 265.034ZM79.232 302.354L94.256 289.524L103.642 275.088L126.174 275.088L129.93 262.265L152.462 246.225L182.503 249.429L186.259 233.395L225.69 225.367L253.852 249.429L272.632 243.014L297.039 265.47L317.697 275.089L347.011 302.354L321.409 302.354L308.209 288.638L305.84 302.354ZM258.942 333.252L258.942 407.384L167.938 407.384L167.938 333.252ZM71.956 246.341C77.136 245.237 82.832 242.999 86.094 239.745C89.352 236.483 91.583 230.795 92.69 225.607C93.798 230.787 96.029 236.483 99.287 239.745C102.549 242.999 108.245 245.23 113.428 246.341C108.245 247.446 102.549 249.683 99.291 252.937C96.033 256.199 93.802 261.895 92.69 267.075C91.582 261.895 89.352 256.199 86.094 252.937C82.835 249.683 77.14 247.446 71.956 246.341ZM368.313 92.636L344.157 209.057L82.723 209.057L58.56 92.636Z" sodipodi:nodetypes="ccccccccccccccccccccccccccccccccccccccccccccccccccccccccccc"/>
</svg>
