<?xml version="1.0" encoding="iso-8859-1"?>
<!-- Generator: Adobe Illustrator 19.0.0, SVG Export Plug-In . SVG Version: 6.00 Build 0)  -->
<svg version="1.1" id="Layer_1" xmlns="http://www.w3.org/2000/svg" xmlns:xlink="http://www.w3.org/1999/xlink" x="0px" y="0px"
	 viewBox="0 0 512 512" style="enable-background:new 0 0 512 512;" xml:space="preserve">
<g>
	<g>
		<path d="M397.263,297.531c-7.692-12.194-13.396-26.232-16.95-41.721c-11.112-48.418-34.173-112.321-67.564-148.943
			c32.398-17.97,48.046-55.092,39.73-90.035c-1.535-6.45-6.4-11.587-12.757-13.471c-41.105-12.176-85.196,9.637-99.75,50.811
			L220.24,34.44c-7.232-7.233-18.959-7.233-26.192,0c-7.233,7.233-7.233,18.959,0,26.192l27.276,27.276
			c-46.715,29.291-77.027,113.401-89.456,167.153c-3.712,16.051-9.474,30.341-17.126,42.473C56.932,389.192,149.935,512,256.005,512
			C362.448,512.002,454.957,388.987,397.263,297.531z M221.821,431.376c-6.233,8.107-17.862,9.63-25.971,3.392
			c-16.166-12.431-29.254-29.026-36.852-46.726c-4.034-9.4,0.314-20.29,9.714-24.324c9.401-4.036,20.29,0.314,24.324,9.714
			c5.069,11.806,14.324,23.46,25.393,31.973C226.538,411.639,228.057,423.268,221.821,431.376z M274.684,79.934
			c-0.773-0.215-1.547-0.415-2.321-0.604c1.111-24.036,21.025-42.799,45.256-42.262C316.866,60.341,298.243,79.307,274.684,79.934z"
			/>
	</g>
</g>
<g>
</g>
<g>
</g>
<g>
</g>
<g>
</g>
<g>
</g>
<g>
</g>
<g>
</g>
<g>
</g>
<g>
</g>
<g>
</g>
<g>
</g>
<g>
</g>
<g>
</g>
<g>
</g>
<g>
</g>
</svg>
