<?xml version="1.0" encoding="iso-8859-1"?>
<!-- Generator: Adobe Illustrator 19.0.0, SVG Export Plug-In . SVG Version: 6.00 Build 0)  -->
<svg version="1.1" id="Layer_1" xmlns="http://www.w3.org/2000/svg" xmlns:xlink="http://www.w3.org/1999/xlink" x="0px" y="0px"
	 viewBox="0 0 511.998 511.998" style="enable-background:new 0 0 511.998 511.998;" xml:space="preserve">
<g>
	<g>
		<path d="M340.983,141.019c21.951-30.419,36.661-65.91,38.684-70.912c5.336-13.199-5.004-27.439-19.166-26.489
			c-1.617,0.107-32.619,2.331-63.546,15.43c-6.848-19.896-16.234-38.065-25.137-50.811c-7.669-10.973-23.959-10.991-31.638,0
			c-8.824,12.629-18.185,30.808-25.059,50.844c-30.953-13.13-62.007-15.358-63.627-15.464
			c-14.179-0.952-24.497,13.306-19.166,26.489c11.758,29.073,25.954,53.217,38.83,70.922
			c-52.627,18.578-79.927,57.507-79.927,112.877c0,86.902,68.918,258.093,164.766,258.093c95.702,0,164.766-170.895,164.766-258.093
			C420.765,195.884,390.767,158.754,340.983,141.019z M327.997,88.87c-6.075,11.177-13.236,22.925-20.943,33.121
			c0.753-11.433,0.087-15.605-0.992-24.729C313.282,93.719,320.839,90.978,327.997,88.87z M256,59.973
			c8.699,20.829,15.319,46.106,11.501,68.605c-7.416-0.265-15.21-0.306-23.218-0.046C240.675,107.035,247.523,80.31,256,59.973z
			 M255.999,244.063c8.941,0,16.19,7.248,16.19,16.19c0,8.942-7.249,16.19-16.19,16.19s-16.19-7.248-16.19-16.19
			C239.809,251.311,247.058,244.063,255.999,244.063z M205.941,97.285c-1.061,8.922-1.357,17.534-1.051,24.587
			c-7.393-9.8-14.569-21.344-20.924-32.987C191.246,91.043,198.814,93.805,205.941,97.285z M192.834,276.441
			c-8.941,0-16.19-7.248-16.19-16.19c0-8.941,7.248-16.19,16.19-16.19c8.942,0,16.19,7.248,16.19,16.19
			C209.024,269.194,201.777,276.441,192.834,276.441z M223.619,339.606c-8.941,0-16.19-7.248-16.19-16.19
			c0-8.941,7.249-16.19,16.19-16.19c8.942,0,16.19,7.249,16.19,16.19C239.809,332.358,232.561,339.606,223.619,339.606z
			 M255.999,402.771c-8.941,0-16.19-7.248-16.19-16.19c0-8.942,7.249-16.19,16.19-16.19s16.19,7.248,16.19,16.19
			C272.189,395.523,264.94,402.771,255.999,402.771z M286.784,339.606c-8.942,0-16.19-7.248-16.19-16.19
			c0-8.941,7.248-16.19,16.19-16.19c8.941,0,16.19,7.249,16.19,16.19C302.974,332.358,295.726,339.606,286.784,339.606z
			 M319.164,276.441c-8.942,0-16.19-7.248-16.19-16.19c0-8.941,7.248-16.19,16.19-16.19c8.941,0,16.19,7.248,16.19,16.19
			C335.354,269.194,328.105,276.441,319.164,276.441z"/>
	</g>
</g>
<g>
</g>
<g>
</g>
<g>
</g>
<g>
</g>
<g>
</g>
<g>
</g>
<g>
</g>
<g>
</g>
<g>
</g>
<g>
</g>
<g>
</g>
<g>
</g>
<g>
</g>
<g>
</g>
<g>
</g>
</svg>
