<?xml version="1.0" encoding="iso-8859-1"?>
<!-- Generator: Adobe Illustrator 17.1.0, SVG Export Plug-In . SVG Version: 6.00 Build 0)  -->
<!DOCTYPE svg PUBLIC "-//W3C//DTD SVG 1.1//EN" "http://www.w3.org/Graphics/SVG/1.1/DTD/svg11.dtd">
<svg version="1.1" id="Capa_1" xmlns="http://www.w3.org/2000/svg" xmlns:xlink="http://www.w3.org/1999/xlink" x="0px" y="0px"
	 viewBox="0 0 363.787 363.787" style="enable-background:new 0 0 363.787 363.787;" xml:space="preserve">
<path d="M333.466,109.364c-4.146-12.894-12.939-23.429-24.824-29.769c0.106-0.198,0.21-0.397,0.313-0.599
	c9.546-18.699,2.068-41.692-16.668-51.257c-5.336-2.725-11.31-4.164-17.274-4.164c-6.267,0-12.498,1.578-18.024,4.512
	c-4.799-7.972-11.65-14.36-20.064-18.655c-7.09-3.619-14.732-5.454-22.716-5.454c-11.464,0-22.84,3.991-31.732,11.046L165.754,6.49
	c-0.365-0.187-0.755-0.327-1.155-0.42C156.372,2.042,147.577,0,138.439,0C115.81,0,95.365,12.514,85.082,32.658
	c-3.479,6.814-5.619,14.269-6.303,21.855c-1.224-0.15-2.459-0.227-3.703-0.227c-16.542,0-30,13.458-30,30
	c0,4.913,1.164,9.632,3.401,13.888c-6.262,4.706-11.387,10.789-14.977,17.822c-6.286,12.313-7.419,26.359-3.188,39.549
	c4.122,12.85,12.848,23.356,24.645,29.707c-5.428,17.313,2.505,36.944,19.069,45.4c5.372,2.742,11.154,4.131,17.186,4.131
	c4.482,0,8.955-0.801,13.176-2.333c4.72,9.942,12.539,18.017,22.44,23.071c7.097,3.622,14.744,5.443,22.732,5.443
	c5.977,0,11.927-1.104,17.516-3.151v77.974h-29.128c-4.414,0-7.872,3.454-7.872,7.863v12.295c0,4.397,3.458,7.842,7.872,7.842
	h87.092c4.506,0,8.036-3.444,8.036-7.842V343.65c0-4.336-3.605-7.863-8.036-7.863h-28.964v-78.388l1.912,0.969l1.086,0.419h0.448
	c8.119,4,16.788,6.021,25.788,6.021c22.641,0,43.096-12.456,53.385-32.611c3.102-6.077,5.116-12.437,6.016-19.099
	c1.114,0.125,2.238,0.188,3.365,0.188c16.542,0,30-13.458,30-30c0-5.501-1.497-10.828-4.289-15.463
	c6.957-4.831,12.604-11.291,16.504-18.932C336.577,136.58,337.705,122.542,333.466,109.364z"/>
<g>
</g>
<g>
</g>
<g>
</g>
<g>
</g>
<g>
</g>
<g>
</g>
<g>
</g>
<g>
</g>
<g>
</g>
<g>
</g>
<g>
</g>
<g>
</g>
<g>
</g>
<g>
</g>
<g>
</g>
</svg>
