<?xml version="1.0" encoding="UTF-8" standalone="no"?>
<!-- Created with Inkscape (http://www.inkscape.org/) -->

<svg
   width="512"
   height="512"
   viewBox="0 0 135.46666 135.46667"
   version="1.1"
   id="svg5"
   xml:space="preserve"
   inkscape:version="1.2.1 (9c6d41e410, 2022-07-14)"
   sodipodi:docname="agricultureTrader.svg"
   xmlns:inkscape="http://www.inkscape.org/namespaces/inkscape"
   xmlns:sodipodi="http://sodipodi.sourceforge.net/DTD/sodipodi-0.dtd"
   xmlns="http://www.w3.org/2000/svg"
   xmlns:svg="http://www.w3.org/2000/svg"><sodipodi:namedview
     id="namedview7"
     pagecolor="#ffffff"
     bordercolor="#000000"
     borderopacity="0.25"
     inkscape:showpageshadow="2"
     inkscape:pageopacity="0.0"
     inkscape:pagecheckerboard="0"
     inkscape:deskcolor="#d1d1d1"
     inkscape:document-units="px"
     showgrid="false"
     inkscape:zoom="1.0544998"
     inkscape:cx="413.46619"
     inkscape:cy="269.32201"
     inkscape:window-width="1920"
     inkscape:window-height="1017"
     inkscape:window-x="1912"
     inkscape:window-y="-8"
     inkscape:window-maximized="1"
     inkscape:current-layer="layer1" /><defs
     id="defs2" /><g
     inkscape:label="Layer 1"
     inkscape:groupmode="layer"
     id="layer1"><path
       d="m 97.01061,67.688047 -4.105541,9.77116 c -0.821163,0.245167 -1.560084,0.656988 -2.298991,1.067568 l -9.771167,-4.105512 -5.911965,5.911967 4.10551,9.771162 c -0.410579,0.821163 -0.738918,1.478141 -1.067257,2.298991 l -9.771192,4.105539 v 8.211058 l 9.771192,4.10554 c 0.328339,0.82116 0.656988,1.47815 1.067257,2.29899 l -4.10551,9.77117 5.911965,5.91196 9.771167,-4.10551 c 0.738907,0.32834 1.477828,0.73892 2.298991,1.06757 l 4.105541,9.77116 h 8.21106 l 4.10553,-9.77116 c 0.7389,-0.32834 1.56007,-0.65699 2.29899,-1.06757 l 9.77115,4.10551 5.91197,-5.91196 -4.1055,-9.77117 c 0.32834,-0.73891 0.7389,-1.56007 1.06756,-2.29899 l 9.77116,-4.10554 v -8.211058 l -9.77116,-4.105539 c -0.24516,-0.738921 -0.657,-1.56007 -1.06756,-2.298991 l 4.1055,-9.771162 -5.91197,-5.911967 -9.77115,4.105512 c -0.73892,-0.32834 -1.56009,-0.738918 -2.29899,-1.067568 l -4.10553,-9.77116 z m 4.10554,20.527678 c 6.81516,0 12.31659,5.501387 12.31659,12.316595 0,6.81517 -5.50143,12.3166 -12.31659,12.3166 -6.815211,0 -12.316595,-5.50143 -12.316595,-12.3166 0,-6.815208 5.501384,-12.316595 12.316595,-12.316595 z"
       id="path256"
       style="stroke-width:8.21106" /><g
       id="g482"
       transform="matrix(0.19152922,0,0,0.20381634,16.957741,15.819317)"><g
         id="g427">
	<g
   id="g425">
		<path
   d="m 389.212,345.155 c -8.41,-0.022 -20.264,-0.099 -28.359,0.115 -16.769,-35.403 -50.111,-60.158 -88.446,-65.783 v -45.802 c 30.67,-0.559 92.052,-8.548 141.9,-58.396 C 482.209,107.376 472.481,19.299 472.024,15.522 471.121,7.859 465.079,1.82 457.415,0.908 453.622,0.467 364.143,-10.494 296.252,57.418 278.902,74.768 266.667,93.507 258.004,111.866 230.12,46.069 164.755,0 88.755,0 H 55.364 C 46.147,0 38.668,7.473 38.668,16.696 v 33.391 c 0,101.266 82.391,183.6 183.652,183.6 h 16.696 v 45.784 c -38.31,5.592 -71.729,30.221 -88.533,65.573 H 122.08 c -75.206,0 -116.804,66.337 -116.804,112.19 0,31.97 19.02,54.766 50.022,54.766 h 400.696 c 31.717,0 50.728,-22.798 50.728,-54.37 0.001,-46.016 -41.847,-112.475 -117.51,-112.475 z M 319.862,81.026 c 41.609,-41.603 94.467,-46.837 119.392,-47.348 -0.511,24.951 -6.968,76.397 -48.554,118 -29.95,29.943 -65.678,41.633 -92.671,46.05 l 69.663,-69.664 c 6.521,-6.516 6.521,-17.092 0,-23.609 -6.521,-6.521 -17.087,-6.521 -23.609,0 l -70.649,70.649 c 4.169,-27.031 15.734,-63.382 46.428,-94.078 z m -152.519,23.431 c -6.521,-6.521 -17.087,-6.521 -23.609,0 -6.521,6.516 -6.521,17.092 0,23.609 l 71.308,71.308 C 135.573,195.573 72.06,130.483 72.06,50.087 V 33.391 h 16.696 c 80.4,0 146.055,62.945 149.891,142.371 z"
   id="path423" />
	</g>
</g><g
         id="g429">
</g><g
         id="g431">
</g><g
         id="g433">
</g><g
         id="g435">
</g><g
         id="g437">
</g><g
         id="g439">
</g><g
         id="g441">
</g><g
         id="g443">
</g><g
         id="g445">
</g><g
         id="g447">
</g><g
         id="g449">
</g><g
         id="g451">
</g><g
         id="g453">
</g><g
         id="g455">
</g><g
         id="g457">
</g></g></g></svg>
