<?xml version="1.0" encoding="UTF-8" standalone="no"?>
<!-- Created with Inkscape (http://www.inkscape.org/) -->

<svg
   width="512"
   height="512"
   viewBox="0 0 135.46666 135.46667"
   version="1.1"
   id="svg5"
   xml:space="preserve"
   inkscape:version="1.2.1 (9c6d41e410, 2022-07-14)"
   sodipodi:docname="bmatTrader.svg"
   xmlns:inkscape="http://www.inkscape.org/namespaces/inkscape"
   xmlns:sodipodi="http://sodipodi.sourceforge.net/DTD/sodipodi-0.dtd"
   xmlns="http://www.w3.org/2000/svg"
   xmlns:svg="http://www.w3.org/2000/svg"><sodipodi:namedview
     id="namedview7"
     pagecolor="#ffffff"
     bordercolor="#000000"
     borderopacity="0.25"
     inkscape:showpageshadow="2"
     inkscape:pageopacity="0.0"
     inkscape:pagecheckerboard="0"
     inkscape:deskcolor="#d1d1d1"
     inkscape:document-units="px"
     showgrid="false"
     inkscape:zoom="1.0544998"
     inkscape:cx="413.46619"
     inkscape:cy="269.32201"
     inkscape:window-width="1920"
     inkscape:window-height="1017"
     inkscape:window-x="1912"
     inkscape:window-y="-8"
     inkscape:window-maximized="1"
     inkscape:current-layer="layer1" /><defs
     id="defs2" /><g
     inkscape:label="Layer 1"
     inkscape:groupmode="layer"
     id="layer1"><path
       d="m 97.01061,67.688047 -4.105541,9.77116 c -0.821163,0.245167 -1.560084,0.656988 -2.298991,1.067568 l -9.771167,-4.105512 -5.911965,5.911967 4.10551,9.771162 c -0.410579,0.821163 -0.738918,1.478141 -1.067257,2.298991 l -9.771192,4.105539 v 8.211058 l 9.771192,4.10554 c 0.328339,0.82116 0.656988,1.47815 1.067257,2.29899 l -4.10551,9.77117 5.911965,5.91196 9.771167,-4.10551 c 0.738907,0.32834 1.477828,0.73892 2.298991,1.06757 l 4.105541,9.77116 h 8.21106 l 4.10553,-9.77116 c 0.7389,-0.32834 1.56007,-0.65699 2.29899,-1.06757 l 9.77115,4.10551 5.91197,-5.91196 -4.1055,-9.77117 c 0.32834,-0.73891 0.7389,-1.56007 1.06756,-2.29899 l 9.77116,-4.10554 v -8.211058 l -9.77116,-4.105539 c -0.24516,-0.738921 -0.657,-1.56007 -1.06756,-2.298991 l 4.1055,-9.771162 -5.91197,-5.911967 -9.77115,4.105512 c -0.73892,-0.32834 -1.56009,-0.738918 -2.29899,-1.067568 l -4.10553,-9.77116 z m 4.10554,20.527678 c 6.81516,0 12.31659,5.501387 12.31659,12.316595 0,6.81517 -5.50143,12.3166 -12.31659,12.3166 -6.815211,0 -12.316595,-5.50143 -12.316595,-12.3166 0,-6.815208 5.501384,-12.316595 12.316595,-12.316595 z"
       id="path256"
       style="stroke-width:8.21106" /><g
       id="g705"
       transform="matrix(0.26458333,0,0,0.26458333,3.6197751,70.361336)"><g
         id="g647"
         transform="matrix(-1.3207845,0,0,1.3207845,464.67243,-232.74105)">
	<path
   d="M 340.101,156.218 300.813,68.66 c -4.417,-9.844 -13.854,-15.959 -24.63,-15.959 -11.446,0 -21.404,6.929 -25.368,17.653 l -32.361,87.559 c -3.063,8.286 -1.876,17.561 3.173,24.81 5.05,7.249 13.338,11.577 22.173,11.577 h 28.326 v 27.337 h -18.571 c -4.143,0 -7.5,3.357 -7.5,7.5 v 61.04 c 0,18.367 14.943,33.311 33.311,33.311 h 0.521 c 18.367,0 33.311,-14.943 33.311,-33.311 v -61.04 c 0,-4.143 -3.357,-7.5 -7.5,-7.5 H 287.127 V 194.3 h 28.321 c 9.202,0 17.683,-4.612 22.684,-12.337 4.999,-7.725 5.735,-17.349 1.969,-25.745 z m -41.904,133.958 c 0,10.097 -8.214,18.311 -18.311,18.311 h -0.521 c -10.097,0 -18.311,-8.214 -18.311,-18.311 v -53.54 h 37.143 z m 27.342,-116.365 c -2.259,3.488 -5.937,5.488 -10.092,5.488 H 243.8 c -3.989,0 -7.585,-1.877 -9.864,-5.15 -2.279,-3.272 -2.794,-7.296 -1.411,-11.037 l 32.361,-87.558 c 2.14,-5.791 7.239,-7.854 11.298,-7.854 4.858,0 8.949,2.653 10.944,7.1 l 39.287,87.559 c 1.701,3.79 1.381,7.965 -0.876,11.452 z"
   id="path637" />
	<path
   d="m 229.92,236.636 c 4.143,0 7.5,-3.357 7.5,-7.5 0,-4.143 -3.357,-7.5 -7.5,-7.5 H 116.197 c -4.143,0 -7.5,3.357 -7.5,7.5 v 79.688 c 0,4.143 3.357,7.5 7.5,7.5 H 229.92 c 4.143,0 7.5,-3.357 7.5,-7.5 0,-4.143 -3.357,-7.5 -7.5,-7.5 H 123.697 v -64.688 z"
   id="path639" />
	<path
   d="m 229.92,200.003 h -39.162 v -64.688 h 28.577 c 4.143,0 7.5,-3.357 7.5,-7.5 0,-4.143 -3.357,-7.5 -7.5,-7.5 h -36.077 c -4.143,0 -7.5,3.357 -7.5,7.5 v 79.688 c 0,4.143 3.357,7.5 7.5,7.5 h 46.662 c 4.143,0 7.5,-3.357 7.5,-7.5 0,-4.143 -3.357,-7.5 -7.5,-7.5 z"
   id="path641" />
	<path
   d="m 116.197,113.682 h 104.468 c 4.143,0 7.5,-3.357 7.5,-7.5 0,-4.143 -3.357,-7.5 -7.5,-7.5 H 123.697 V 33.995 h 191.275 v 46.154 c 0,4.143 3.357,7.5 7.5,7.5 4.143,0 7.5,-3.357 7.5,-7.5 V 26.495 c 0,-4.143 -3.357,-7.5 -7.5,-7.5 H 116.197 c -4.143,0 -7.5,3.357 -7.5,7.5 v 79.688 c 0,4.142 3.358,7.499 7.5,7.499 z"
   id="path643" />
	<path
   d="m 168.546,207.503 v -79.688 c 0,-4.143 -3.357,-7.5 -7.5,-7.5 H 7.5 c -4.143,0 -7.5,3.357 -7.5,7.5 v 79.688 c 0,4.143 3.357,7.5 7.5,7.5 h 153.546 c 4.142,0 7.5,-3.357 7.5,-7.5 z m -15,-7.5 H 15 v -64.688 h 138.546 z"
   id="path645" />
</g><g
         id="g649">
</g><g
         id="g651">
</g><g
         id="g653">
</g><g
         id="g655">
</g><g
         id="g657">
</g><g
         id="g659">
</g><g
         id="g661">
</g><g
         id="g663">
</g><g
         id="g665">
</g><g
         id="g667">
</g><g
         id="g669">
</g><g
         id="g671">
</g><g
         id="g673">
</g><g
         id="g675">
</g><g
         id="g677">
</g></g></g></svg>
