<?xml version="1.0" standalone="no"?>
<!DOCTYPE svg PUBLIC "-//W3C//DTD SVG 20010904//EN" "http://www.w3.org/TR/2001/REC-SVG-20010904/DTD/svg10.dtd">
<!-- Created using Krita: https://krita.org -->
<svg xmlns="http://www.w3.org/2000/svg" 
    xmlns:xlink="http://www.w3.org/1999/xlink"
    xmlns:krita="http://krita.org/namespaces/svg/krita"
    xmlns:sodipodi="http://sodipodi.sourceforge.net/DTD/sodipodi-0.dtd"
    width="272.16pt"
    height="272.16pt"
    viewBox="0 0 272.16 272.16">
<defs/>
<g id="group0" transform="matrix(0.513273841354655 0 0 0.513273841354655 4.68048199488808 4.68061342860494)" fill="none">
  <g id="group1" fill="none">
   <path id="shape0" transform="translate(0.00976719940263904, -4.49640324973188e-15)" fill="#000000" stroke-opacity="0" stroke="#000000" stroke-width="0" stroke-linecap="square" stroke-linejoin="bevel" d="M510.965 262.128L425.632 80.795C424.565 78.534 422.752 76.72 420.512 75.675L260.512 1.008C257.632 -0.336 254.347 -0.336 251.467 1.008L91.4672 75.675C89.2272 76.72 87.4142 78.534 86.3472 80.795L1.01323 262.128C-0.543767 265.435 -0.287767 269.296 1.65323 272.389C3.59423 275.482 7.00823 277.338 10.6562 277.338L42.6562 277.338L42.6562 501.338C42.6562 507.226 47.4352 512.005 53.3232 512.005L106.656 512.005L106.656 507.44L255.989 419.909L405.322 507.44L405.322 512.005L458.655 512.005C464.543 512.005 469.322 507.226 469.322 501.338L469.322 277.338L501.322 277.338C504.97 277.338 508.362 275.482 510.325 272.389C512.288 269.296 512.523 265.435 510.965 262.128ZM191.989 117.339C191.989 111.451 196.768 106.672 202.656 106.672L309.323 106.672C315.211 106.672 319.99 111.451 319.99 117.339L319.99 245.339C319.99 251.227 315.211 256.006 309.323 256.006L202.656 256.006C196.768 256.006 191.989 251.227 191.989 245.339ZM106.656 482.736L106.656 332.379L234.912 407.558ZM127.733 320.005L384.245 320.005L255.989 395.184ZM405.323 482.715L277.067 407.536L405.323 332.357Z" sodipodi:nodetypes="ccccccccccccccccccccccccccccccccccccccccccccc"/>
  </g>
 </g>
</svg>
