<?xml version="1.0" ?><!-- Uploaded to: SVG Repo, www.svgrepo.com, Generator: SVG Repo Mixer Tools -->
<svg fill="#000000" width="800px" height="800px" viewBox="0 0 24 24" data-name="Layer 1" id="Layer_1" xmlns="http://www.w3.org/2000/svg"><title/><path d="M14,14V1.13l-1.55,1A19.62,19.62,0,0,0,4.28,13.75L4.22,14H1.61L3,18.15A3,3,0,0,0,2,18v2c.56,0,.8.22,1.29.71A3.59,3.59,0,0,0,6,22a3.56,3.56,0,0,0,2.7-1.29c.49-.49.73-.71,1.29-.71s.8.22,1.3.71a3.48,3.48,0,0,0,5.41,0c.49-.49.73-.71,1.3-.71s.8.22,1.29.71A3.59,3.59,0,0,0,22,22V20c-.56,0-.8-.22-1.29-.71l-.06-.06L22.39,14Zm-2,0H6.28A17.63,17.63,0,0,1,12,5Z"/></svg>