<?xml version="1.0" encoding="utf-8"?>
<!-- Uploaded to: SVG Repo, www.svgrepo.com, Generator: SVG Repo Mixer Tools -->
<svg fill="#000000" width="800px" height="800px" viewBox="0 0 32 32" version="1.1" xmlns="http://www.w3.org/2000/svg">
<title>book</title>
<path d="M15 25.875v-19.625c0 0-2.688-2.25-6.5-2.25s-6.5 2-6.5 2v19.875c0 0 2.688-1.938 6.5-1.938s6.5 1.938 6.5 1.938zM29 25.875v-19.625c0 0-2.688-2.25-6.5-2.25s-6.5 2-6.5 2v19.875c0 0 2.688-1.938 6.5-1.938s6.5 1.938 6.5 1.938zM31 8h-1v19h-12v1h-5v-1h-12v-19h-1v20h12v1h7.062l-0.062-1h12v-20z"></path>
</svg>