<?xml version="1.0" encoding="iso-8859-1"?>
<!-- Uploaded to: SVG Repo, www.svgrepo.com, Generator: SVG Repo Mixer Tools -->
<svg fill="#000000" version="1.1" id="Layer_1" xmlns="http://www.w3.org/2000/svg" xmlns:xlink="http://www.w3.org/1999/xlink" 
	 viewBox="0 0 512 512" xml:space="preserve">
<g>
	<g>
		<g>
			<path d="M136.533,315.733h256v-102.4h-256V315.733z M187.733,256h162.133c4.71,0,8.533,3.814,8.533,8.533
				s-3.823,8.533-8.533,8.533H187.733c-4.71,0-8.533-3.814-8.533-8.533S183.023,256,187.733,256z"/>
			<rect x="85.333" y="213.333" width="34.133" height="102.4"/>
			<rect x="409.6" y="213.333" width="17.067" height="102.4"/>
			<path d="M443.733,315.733H486.4c4.719,0,8.533-3.814,8.533-8.533v-85.333c0-4.719-3.814-8.533-8.533-8.533h-42.667V315.733z"/>
			<path d="M8.533,315.733h59.733v-102.4H8.533c-4.71,0-8.533,3.814-8.533,8.533V307.2C0,311.919,3.823,315.733,8.533,315.733z"/>
			<path d="M25.6,110.933h17.067v76.8c0,4.719,3.823,8.533,8.533,8.533h51.2h34.133H460.8c4.719,0,8.533-3.814,8.533-8.533V102.4
				c0-4.719-3.814-8.533-8.533-8.533h-8.533V34.133c0-4.719-3.814-8.533-8.533-8.533h-42.667v68.267H384V25.6h-17.067v68.267
				h-17.067V25.6H153.6v68.267h-17.067V25.6H102.4v68.267H85.333V25.6H25.6c-4.71,0-8.533,3.814-8.533,8.533V102.4
				C17.067,107.119,20.89,110.933,25.6,110.933z M204.8,59.733h102.4c4.71,0,8.533,3.814,8.533,8.533S311.91,76.8,307.2,76.8H204.8
				c-4.71,0-8.533-3.814-8.533-8.533S200.09,59.733,204.8,59.733z M145.067,110.933H358.4h34.133h51.2h8.533V179.2h-307.2V110.933z"
				/>
			<path d="M426.667,136.533H187.733c-4.71,0-8.533,3.814-8.533,8.533s3.823,8.533,8.533,8.533h238.933
				c4.719,0,8.533-3.814,8.533-8.533S431.386,136.533,426.667,136.533z"/>
			<path d="M503.467,469.333h-11.964c-2.927-5.513-5.385-11.23-7.475-17.067H349.867c-4.71,0-8.533-3.814-8.533-8.533
				s3.823-8.533,8.533-8.533h129.348c-1.169-5.615-1.988-11.307-2.381-17.033h-49.587c-0.128,0-0.239-0.068-0.375-0.077
				c-0.068,0-0.128,0.043-0.205,0.043H179.2c-4.71,0-8.533-3.814-8.533-8.533c0-4.719,3.823-8.533,8.533-8.533h247.467
				c0.137,0,0.247,0.068,0.375,0.077c0.068,0,0.137-0.043,0.205-0.043h49.579c0.393-5.751,1.22-11.46,2.389-17.101H307.2
				c-4.71,0-8.533-3.814-8.533-8.533s3.823-8.533,8.533-8.533h176.828c2.091-5.837,4.548-11.554,7.475-17.067h11.964
				c4.719,0,8.533-3.814,8.533-8.533c0-4.719-3.814-8.533-8.533-8.533H486.4h-59.733H76.8C34.458,332.8,0,367.249,0,409.6
				c0,42.351,34.458,76.8,76.8,76.8h349.867H486.4h17.067c4.719,0,8.533-3.814,8.533-8.533
				C512,473.148,508.186,469.333,503.467,469.333z M187.733,452.267H76.8c-23.526,0-42.667-19.14-42.667-42.667
				c0-23.526,19.14-42.667,42.667-42.667h196.267c4.71,0,8.533,3.814,8.533,8.533S277.777,384,273.067,384H76.8
				c-14.114,0-25.6,11.486-25.6,25.6c0,14.114,11.486,25.6,25.6,25.6h110.933c4.71,0,8.533,3.814,8.533,8.533
				S192.444,452.267,187.733,452.267z M145.067,409.6c0,4.719-3.823,8.533-8.533,8.533h-51.2c-4.71,0-8.533-3.814-8.533-8.533
				c0-4.719,3.823-8.533,8.533-8.533h51.2C141.244,401.067,145.067,404.881,145.067,409.6z M307.2,452.267h-76.8
				c-4.71,0-8.533-3.814-8.533-8.533s3.823-8.533,8.533-8.533h76.8c4.71,0,8.533,3.814,8.533,8.533S311.91,452.267,307.2,452.267z"
				/>
		</g>
	</g>
</g>
</svg>