<?xml version="1.0" encoding="UTF-8" standalone="no"?>
<!-- Created with Inkscape (http://www.inkscape.org/) -->

<svg
   width="128"
   height="128"
   viewBox="0 0 33.866666 33.866666"
   version="1.1"
   id="svg5"
   inkscape:version="1.2.1 (9c6d41e410, 2022-07-14)"
   sodipodi:docname="argentum.svg"
   xml:space="preserve"
   xmlns:inkscape="http://www.inkscape.org/namespaces/inkscape"
   xmlns:sodipodi="http://sodipodi.sourceforge.net/DTD/sodipodi-0.dtd"
   xmlns="http://www.w3.org/2000/svg"
   xmlns:svg="http://www.w3.org/2000/svg"><sodipodi:namedview
     id="namedview7"
     pagecolor="#ffffff"
     bordercolor="#000000"
     borderopacity="0.25"
     inkscape:showpageshadow="2"
     inkscape:pageopacity="0.0"
     inkscape:pagecheckerboard="0"
     inkscape:deskcolor="#d1d1d1"
     inkscape:document-units="px"
     showgrid="false"
     showguides="true"
     inkscape:zoom="4.2179991"
     inkscape:cx="61.87768"
     inkscape:cy="56.661937"
     inkscape:window-width="1920"
     inkscape:window-height="1017"
     inkscape:window-x="-8"
     inkscape:window-y="-8"
     inkscape:window-maximized="1"
     inkscape:current-layer="layer2"><sodipodi:guide
       position="16.41129,17.943279"
       orientation="1,0"
       id="guide274"
       inkscape:locked="false" /><sodipodi:guide
       position="-1.2419355,17.411021"
       orientation="0,-1"
       id="guide276"
       inkscape:locked="false" /></sodipodi:namedview><defs
     id="defs2" /><g
     inkscape:groupmode="layer"
     id="layer2"
     inkscape:label="Layer 2"
     style="display:inline"><g
       aria-label="Ag"
       id="text446"
       style="font-weight:bold;font-size:26.0893px;-inkscape-font-specification:'sans-serif Bold';text-align:center;text-anchor:middle;stroke:#000000;stroke-width:0.14213"><path
         d="M 13.940647,26.242008 12.584004,21.806827 H 5.8007855 L 4.4441419,26.242008 H 0.19158598 L 6.7660896,7.53598 H 11.59261 l 6.600593,18.706028 z M 11.644789,18.493486 10.288145,14.162662 Q 10.157699,13.719144 9.9489842,13.040822 9.7402698,12.362501 9.5315554,11.658089 9.322841,10.953678 9.1923945,10.431892 9.061948,10.953678 8.8271443,11.736357 8.6184299,12.492947 8.4097155,13.197358 8.2270904,13.87568 8.1227332,14.162662 l -1.3305543,4.330824 z"
         id="path506" /><path
         d="m 24.845988,11.736357 q 2.63502,0 4.12211,2.087144 h 0.104357 l 0.313072,-1.826251 h 3.287251 v 14.270848 q 0,3.052448 -1.800161,4.643895 -1.800162,1.591447 -5.322218,1.591447 -1.513179,0 -2.817644,-0.182625 -1.278376,-0.182625 -2.504573,-0.652232 v -3.104627 q 2.60893,1.095751 5.557021,1.095751 3.00027,0 3.00027,-3.235074 v -0.286982 q 0,-0.417429 0.02609,-0.887036 0.02609,-0.495697 0.07827,-0.860947 h -0.104357 q -0.730501,1.12184 -1.747983,1.617537 -1.017483,0.495696 -2.295859,0.495696 -2.530662,0 -3.965574,-1.930608 -1.408822,-1.956698 -1.408822,-5.426574 0,-3.495967 1.461001,-5.452664 1.461001,-1.956698 4.017752,-1.956698 z m 1.226197,3.156806 q -2.739376,0 -2.739376,4.304734 0,4.252556 2.791555,4.252556 1.48709,0 2.191501,-0.834858 0.730501,-0.860946 0.730501,-2.97418 v -0.469607 q 0,-2.295859 -0.704411,-3.287252 -0.704412,-0.991393 -2.26977,-0.991393 z"
         id="path508" /></g></g></svg>
