<?xml version="1.0" encoding="UTF-8" standalone="no"?>
<!-- Created with Inkscape (http://www.inkscape.org/) -->

<svg
   width="128"
   height="128"
   viewBox="0 0 33.866666 33.866666"
   version="1.1"
   id="svg5"
   inkscape:version="1.2.1 (9c6d41e410, 2022-07-14)"
   sodipodi:docname="aurum.svg"
   xmlns:inkscape="http://www.inkscape.org/namespaces/inkscape"
   xmlns:sodipodi="http://sodipodi.sourceforge.net/DTD/sodipodi-0.dtd"
   xmlns="http://www.w3.org/2000/svg"
   xmlns:svg="http://www.w3.org/2000/svg">
  <sodipodi:namedview
     id="namedview7"
     pagecolor="#ffffff"
     bordercolor="#000000"
     borderopacity="0.25"
     inkscape:showpageshadow="2"
     inkscape:pageopacity="0.0"
     inkscape:pagecheckerboard="0"
     inkscape:deskcolor="#d1d1d1"
     inkscape:document-units="px"
     showgrid="false"
     showguides="true"
     inkscape:zoom="5.9651515"
     inkscape:cx="67.894336"
     inkscape:cy="55.656591"
     inkscape:window-width="1920"
     inkscape:window-height="1017"
     inkscape:window-x="1912"
     inkscape:window-y="-8"
     inkscape:window-maximized="1"
     inkscape:current-layer="layer2">
    <sodipodi:guide
       position="16.41129,17.943279"
       orientation="1,0"
       id="guide274"
       inkscape:locked="false" />
    <sodipodi:guide
       position="-1.2419355,17.411021"
       orientation="0,-1"
       id="guide276"
       inkscape:locked="false" />
  </sodipodi:namedview>
  <defs
     id="defs2" />
  <g
     inkscape:groupmode="layer"
     id="layer2"
     inkscape:label="Layer 2"
     style="display:inline">
    <g
       aria-label="Au"
       id="text114"
       style="font-size:22.5778px;stroke-width:0.264583"
       transform="matrix(1.1617344,0,0,1.1617344,-1.6820274,-2.1527643)">
      <path
         d="M 13.457716,23.995966 12.283671,20.15774 H 6.4134426 L 5.2393969,23.995966 H 1.5592154 L 7.2488212,7.8076828 H 11.425714 L 17.137898,23.995966 Z M 11.47087,17.290359 10.296824,13.542444 Q 10.183935,13.158622 10.003313,12.571599 9.8226905,11.984576 9.6420681,11.374975 9.4614457,10.765375 9.3485567,10.313819 9.2356677,10.765375 9.0324675,11.442709 8.8518451,12.097465 8.6712227,12.707066 8.513178,13.294088 8.4228668,13.542444 L 7.271399,17.290359 Z"
         style="font-weight:bold;-inkscape-font-specification:'sans-serif Bold';text-align:center;text-anchor:middle"
         id="path168" />
      <path
         d="M 30.210456,11.668487 V 23.995966 H 27.636587 L 27.185031,22.41552 h -0.180622 q -0.587023,0.948268 -1.625602,1.377246 -1.016001,0.428978 -2.167469,0.428978 -1.986846,0 -3.18347,-1.061157 -1.196623,-1.083734 -1.196623,-3.454403 v -8.037697 h 3.364092 v 7.202318 q 0,1.33209 0.474134,2.009424 0.474134,0.654757 1.512713,0.654757 1.53529,0 2.099735,-1.038579 0.564445,-1.061157 0.564445,-3.025425 v -5.802495 z"
         style="font-weight:bold;-inkscape-font-specification:'sans-serif Bold';text-align:center;text-anchor:middle"
         id="path170" />
    </g>
  </g>
</svg>
