<?xml version="1.0" encoding="UTF-8" standalone="no"?>
<!-- Created with Inkscape (http://www.inkscape.org/) -->

<svg
   width="128"
   height="128"
   viewBox="0 0 33.866666 33.866666"
   version="1.1"
   id="svg5"
   inkscape:version="1.2.1 (9c6d41e410, 2022-07-14)"
   sodipodi:docname="boron.svg"
   xmlns:inkscape="http://www.inkscape.org/namespaces/inkscape"
   xmlns:sodipodi="http://sodipodi.sourceforge.net/DTD/sodipodi-0.dtd"
   xmlns="http://www.w3.org/2000/svg"
   xmlns:svg="http://www.w3.org/2000/svg">
  <sodipodi:namedview
     id="namedview7"
     pagecolor="#ffffff"
     bordercolor="#000000"
     borderopacity="0.25"
     inkscape:showpageshadow="2"
     inkscape:pageopacity="0.0"
     inkscape:pagecheckerboard="0"
     inkscape:deskcolor="#d1d1d1"
     inkscape:document-units="px"
     showgrid="false"
     showguides="true"
     inkscape:zoom="4.2179991"
     inkscape:cx="69.464216"
     inkscape:cy="56.661937"
     inkscape:window-width="1920"
     inkscape:window-height="1017"
     inkscape:window-x="1912"
     inkscape:window-y="-8"
     inkscape:window-maximized="1"
     inkscape:current-layer="layer2">
    <sodipodi:guide
       position="16.41129,17.943279"
       orientation="1,0"
       id="guide274"
       inkscape:locked="false" />
    <sodipodi:guide
       position="-1.2419355,17.411021"
       orientation="0,-1"
       id="guide276"
       inkscape:locked="false" />
  </sodipodi:namedview>
  <defs
     id="defs2" />
  <g
     inkscape:groupmode="layer"
     id="layer2"
     inkscape:label="Layer 2"
     style="display:inline">
    <g
       aria-label="B"
       id="text24239"
       style="font-weight:bold;font-size:22.5778px;-inkscape-font-specification:'sans-serif Bold';text-align:center;text-anchor:middle;stroke:#000000;stroke-width:0.123"
       transform="matrix(1.8727372,0,0,1.8727372,8.2005444,-3.3909475)">
      <path
         d="M -0.84960777,2.5094342 H 4.162664 q 3.2060477,0 4.8542272,0.903112 1.6707568,0.903112 1.6707568,3.1834699 0,1.3772458 -0.654756,2.3255135 -0.6321782,0.9482676 -1.8288017,1.1514674 v 0.112889 q 0.7902231,0.180623 1.4449793,0.587023 0.6773344,0.383823 1.0611564,1.151468 0.383823,0.767645 0.383823,2.032002 0,2.190047 -1.603024,3.431826 -1.5804461,1.241779 -4.31236,1.241779 H -0.84960777 Z M 2.5596401,8.8989518 h 1.9868465 q 1.4901349,0 2.0545799,-0.451556 0.5870228,-0.4741339 0.5870228,-1.3998237 0,-0.9256898 -0.677334,-1.3320902 Q 5.8334213,5.3090815 4.3658642,5.3090815 H 2.5596401 Z m 0,2.7093362 v 4.199471 h 2.2352023 q 1.5352905,0 2.1448911,-0.587023 0.6096006,-0.609601 0.6096006,-1.603024 0,-0.903112 -0.6321784,-1.444979 -0.6096006,-0.564445 -2.2352023,-0.564445 z"
         id="path24241" />
    </g>
  </g>
</svg>
