<?xml version="1.0" encoding="UTF-8" standalone="no"?>
<!-- Created with Inkscape (http://www.inkscape.org/) -->

<svg
   width="128"
   height="128"
   viewBox="0 0 33.866666 33.866666"
   version="1.1"
   id="svg5"
   inkscape:version="1.2.1 (9c6d41e410, 2022-07-14)"
   sodipodi:docname="manganese.svg"
   xmlns:inkscape="http://www.inkscape.org/namespaces/inkscape"
   xmlns:sodipodi="http://sodipodi.sourceforge.net/DTD/sodipodi-0.dtd"
   xmlns="http://www.w3.org/2000/svg"
   xmlns:svg="http://www.w3.org/2000/svg">
  <sodipodi:namedview
     id="namedview7"
     pagecolor="#ffffff"
     bordercolor="#000000"
     borderopacity="0.25"
     inkscape:showpageshadow="2"
     inkscape:pageopacity="0.0"
     inkscape:pagecheckerboard="0"
     inkscape:deskcolor="#d1d1d1"
     inkscape:document-units="px"
     showgrid="false"
     showguides="true"
     inkscape:zoom="4.2179991"
     inkscape:cx="61.87768"
     inkscape:cy="56.661937"
     inkscape:window-width="1920"
     inkscape:window-height="1017"
     inkscape:window-x="1912"
     inkscape:window-y="-8"
     inkscape:window-maximized="1"
     inkscape:current-layer="layer2">
    <sodipodi:guide
       position="16.41129,17.943279"
       orientation="1,0"
       id="guide274"
       inkscape:locked="false" />
    <sodipodi:guide
       position="-1.2419355,17.411021"
       orientation="0,-1"
       id="guide276"
       inkscape:locked="false" />
  </sodipodi:namedview>
  <defs
     id="defs2" />
  <g
     inkscape:groupmode="layer"
     id="layer2"
     inkscape:label="Layer 2"
     style="display:inline">
    <g
       aria-label="Mn"
       transform="scale(0.99439894,1.0056326)"
       id="text18192"
       style="font-weight:bold;font-size:23.4927px;-inkscape-font-specification:'sans-serif Bold';text-align:center;text-anchor:middle;stroke:#000000;stroke-width:0.127984">
      <path
         d="M 7.2515673,24.94787 3.2108228,11.791958 H 3.116852 q 0.023493,0.469854 0.070478,1.409562 0.046985,0.939708 0.093971,2.020372 0.046985,1.080664 0.046985,1.926402 V 24.94787 H 0.15677174 V 8.174082 H 4.9962681 l 3.9702664,12.827015 h 0.070478 L 13.242206,8.174082 h 4.839496 V 24.94787 h -3.312471 v -7.940533 q 0,-0.798751 0.02349,-1.83243 0.04699,-1.033679 0.07048,-1.949894 0.04699,-0.939708 0.07048,-1.409562 H 14.83971 L 10.517053,24.94787 Z"
         id="path291" />
      <path
         d="m 29.311232,11.885929 q 2.067357,0 3.31247,1.127649 1.245113,1.104157 1.245113,3.570891 v 8.363401 h -3.500412 v -7.494171 q 0,-1.38607 -0.493347,-2.067358 -0.493346,-0.704781 -1.574011,-0.704781 -1.597503,0 -2.184821,1.104157 -0.587317,1.080664 -0.587317,3.124529 V 24.94787 H 22.028494 V 12.120856 h 2.678168 l 0.469854,1.644489 h 0.187942 q 0.61081,-0.986694 1.667982,-1.433055 1.080664,-0.446361 2.278792,-0.446361 z"
         id="path293" />
    </g>
  </g>
</svg>
