<?xml version="1.0" encoding="UTF-8" standalone="no"?>
<svg
   width="512"
   height="512"
   viewBox="0 0 128 128"
   version="1.1"
   id="svg5"
   xml:space="preserve"
   sodipodi:docname="nickel.svg"
   inkscape:version="1.4 (86a8ad7, 2024-10-11)"
   xmlns:inkscape="http://www.inkscape.org/namespaces/inkscape"
   xmlns:sodipodi="http://sodipodi.sourceforge.net/DTD/sodipodi-0.dtd"
   xmlns="http://www.w3.org/2000/svg"
   xmlns:svg="http://www.w3.org/2000/svg"><sodipodi:namedview
     id="namedview1"
     pagecolor="#ffffff"
     bordercolor="#000000"
     borderopacity="0.25"
     inkscape:showpageshadow="2"
     inkscape:pageopacity="0.0"
     inkscape:pagecheckerboard="true"
     inkscape:deskcolor="#d1d1d1"
     inkscape:zoom="1.1599711"
     inkscape:cx="221.12619"
     inkscape:cy="206.47066"
     inkscape:window-width="1920"
     inkscape:window-height="1009"
     inkscape:window-x="-8"
     inkscape:window-y="-8"
     inkscape:window-maximized="1"
     inkscape:current-layer="g1"
     showguides="true" /><defs
     id="defs3" /><g
     id="g1"
     transform="matrix(4.7592893,0,0,4.7592893,2.9025708,-12.630713)"><path
       d="m 23.224771,5.4740039 q 0.889851,0 1.537014,0.447858 0.647164,0.4198668 0.647164,1.5954939 0,1.147636 -0.647164,1.5954939 -0.647163,0.447858 -1.537014,0.447858 -0.916815,0 -1.563979,-0.447858 -0.620198,-0.4478579 -0.620198,-1.5954939 0,-1.1756271 0.620198,-1.5954939 0.647164,-0.447858 1.563979,-0.447858 z m 1.995423,5.9901011 v 15.283151 h -4.01781 V 11.464105 Z"
       id="path424"
       style="font-weight:bold;font-size:26.9817px;-inkscape-font-specification:'sans-serif Bold';text-align:center;text-anchor:middle;stroke:#000000;stroke-width:0.14967" /><path
       d="M 18.58278,26.740907 H 13.028563 L 4.0318879,10.646465 H 3.916175 q 0.057856,1.52003 0.1157129,3.040061 0.086784,1.52003 0.1446411,3.040061 v 10.01432 H 0.27121981 V 5.4604778 H 5.7965091 L 14.764256,21.405897 h 0.08679 q -0.05786,-1.460422 -0.115713,-2.920843 -0.05786,-1.460422 -0.08679,-2.950648 V 5.4604778 h 3.934237 z"
       id="path24212"
       style="font-weight:bold;font-size:29.3631px;-inkscape-font-specification:'sans-serif Bold';text-align:center;letter-spacing:-3.09688px;word-spacing:-0.00688196px;text-anchor:middle;display:inline;stroke:#000000;stroke-width:0.159965" /></g></svg>
