<?xml version="1.0" encoding="UTF-8" standalone="no"?>
<svg
   width="25.291363"
   height="21.740843"
   viewBox="0 0 25.291363 21.740843"
   version="1.1"
   id="svg5"
   xml:space="preserve"
   xmlns="http://www.w3.org/2000/svg"
   xmlns:svg="http://www.w3.org/2000/svg"><defs
     id="defs3" /><g
     id="g2"
     transform="translate(-4.2876515,-6.0629111)"><defs
       id="defs2" /><g
       id="g1"
       transform="translate(4.0952296,0.98166346)"><path
         d="m 24.433904,5.1633638 q 0.890397,0 1.537957,0.4317072 0.647561,0.4047255 0.647561,1.537957 0,1.1062497 -0.647561,1.5379569 -0.64756,0.4317072 -1.537957,0.4317072 -0.917377,0 -1.564938,-0.4317072 -0.620579,-0.4317072 -0.620579,-1.5379569 0,-1.1332315 0.620579,-1.537957 0.647561,-0.4317072 1.564938,-0.4317072 z M 26.43055,10.937448 V 25.669456 H 22.410277 V 10.937448 Z"
         id="path424"
         style="font-weight:bold;font-size:26.9817px;-inkscape-font-specification:'sans-serif Bold';text-align:center;text-anchor:middle;stroke:#000000;stroke-width:0.146992"
         transform="translate(-1.2091331,1.0791394)" /><path
         d="M 18.862139,26.051228 H 13.224424 L 4.0925001,10.195154 H 3.9750477 q 0.058726,1.497518 0.1174524,2.995036 0.088089,1.497518 0.1468155,2.995036 v 9.866002 H 0.27529711 V 5.0859741 H 5.8836492 L 14.98621,20.795233 h 0.08809 q -0.05873,-1.438792 -0.117453,-2.877584 -0.05873,-1.438792 -0.08809,-2.906947 V 5.0859741 h 3.993381 z"
         id="path24212"
         style="font-weight:bold;font-size:29.3631px;-inkscape-font-specification:'sans-serif Bold';text-align:center;letter-spacing:-3.09688px;word-spacing:-0.00688196px;text-anchor:middle;display:inline;stroke:#000000;stroke-width:0.159965"
         transform="scale(0.98518944,1.0150332)" /></g></g></svg>
