<?xml version="1.0" encoding="UTF-8" standalone="no"?>
<!-- Created with Inkscape (http://www.inkscape.org/) -->

<svg
   width="128"
   height="128"
   viewBox="0 0 33.866666 33.866666"
   version="1.1"
   id="svg5"
   inkscape:version="1.2.1 (9c6d41e410, 2022-07-14)"
   sodipodi:docname="rhodium.svg"
   xmlns:inkscape="http://www.inkscape.org/namespaces/inkscape"
   xmlns:sodipodi="http://sodipodi.sourceforge.net/DTD/sodipodi-0.dtd"
   xmlns="http://www.w3.org/2000/svg"
   xmlns:svg="http://www.w3.org/2000/svg">
  <sodipodi:namedview
     id="namedview7"
     pagecolor="#ffffff"
     bordercolor="#000000"
     borderopacity="0.25"
     inkscape:showpageshadow="2"
     inkscape:pageopacity="0.0"
     inkscape:pagecheckerboard="0"
     inkscape:deskcolor="#d1d1d1"
     inkscape:document-units="px"
     showgrid="false"
     showguides="true"
     inkscape:zoom="5.9651515"
     inkscape:cx="67.894336"
     inkscape:cy="69.067818"
     inkscape:window-width="1920"
     inkscape:window-height="1017"
     inkscape:window-x="1912"
     inkscape:window-y="-8"
     inkscape:window-maximized="1"
     inkscape:current-layer="layer2">
    <sodipodi:guide
       position="16.41129,17.943279"
       orientation="1,0"
       id="guide274"
       inkscape:locked="false" />
    <sodipodi:guide
       position="-1.2419355,17.411021"
       orientation="0,-1"
       id="guide276"
       inkscape:locked="false" />
  </sodipodi:namedview>
  <defs
     id="defs2" />
  <g
     inkscape:groupmode="layer"
     id="layer2"
     inkscape:label="Layer 2"
     style="display:inline">
    <g
       aria-label="Rh"
       id="text114"
       style="font-size:22.5778px;stroke-width:0.264583"
       transform="matrix(1.2864944,0,0,1.2864944,-4.8516985,-4.416713)">
      <path
         d="m 8.6260748,7.8754162 q 3.2963592,0 4.8542272,1.1966235 1.580446,1.1966233 1.580446,3.6350263 0,1.106312 -0.428978,1.94169 -0.406401,0.812801 -1.106312,1.399824 -0.677334,0.564445 -1.467557,0.92569 l 4.741338,7.021696 H 13.006168 L 9.167942,17.809649 H 7.3391402 v 6.186317 H 3.9298922 V 7.8754162 Z M 8.377719,10.675064 H 7.3391402 v 4.357515 h 1.1063122 q 1.6933346,0 2.4158246,-0.564445 0.745068,-0.564445 0.745068,-1.670757 0,-1.151468 -0.790224,-1.625602 -0.790223,-0.496711 -2.438402,-0.496711 z"
         style="font-weight:bold;-inkscape-font-specification:'sans-serif Bold';text-align:center;text-anchor:middle"
         id="path168" />
      <path
         d="m 21.924396,6.8368374 v 3.4995596 q 0,0.925689 -0.06773,1.761068 -0.04516,0.812801 -0.09031,1.151468 h 0.180622 q 0.587023,-0.948268 1.512713,-1.377246 0.925689,-0.428978 2.05458,-0.428978 1.986846,0 3.206047,1.083734 1.219201,1.061157 1.219201,3.431826 v 8.037697 h -3.364092 v -7.202318 q 0,-2.664181 -1.986846,-2.664181 -1.512713,0 -2.099736,1.061157 -0.564445,1.038578 -0.564445,3.002847 v 5.802495 H 18.560304 V 6.8368374 Z"
         style="font-weight:bold;-inkscape-font-specification:'sans-serif Bold';text-align:center;text-anchor:middle"
         id="path170" />
    </g>
  </g>
</svg>
