<?xml version="1.0" encoding="UTF-8" standalone="no"?>
<!-- Created with Inkscape (http://www.inkscape.org/) -->

<svg
   width="128"
   height="128"
   viewBox="0 0 33.866666 33.866666"
   version="1.1"
   id="svg5"
   inkscape:version="1.2.1 (9c6d41e410, 2022-07-14)"
   sodipodi:docname="sulfur.svg"
   xmlns:inkscape="http://www.inkscape.org/namespaces/inkscape"
   xmlns:sodipodi="http://sodipodi.sourceforge.net/DTD/sodipodi-0.dtd"
   xmlns="http://www.w3.org/2000/svg"
   xmlns:svg="http://www.w3.org/2000/svg">
  <sodipodi:namedview
     id="namedview7"
     pagecolor="#ffffff"
     bordercolor="#000000"
     borderopacity="0.25"
     inkscape:showpageshadow="2"
     inkscape:pageopacity="0.0"
     inkscape:pagecheckerboard="0"
     inkscape:deskcolor="#d1d1d1"
     inkscape:document-units="px"
     showgrid="false"
     showguides="true"
     inkscape:zoom="5.9651515"
     inkscape:cx="67.894336"
     inkscape:cy="69.067818"
     inkscape:window-width="1920"
     inkscape:window-height="1017"
     inkscape:window-x="1912"
     inkscape:window-y="-8"
     inkscape:window-maximized="1"
     inkscape:current-layer="layer2">
    <sodipodi:guide
       position="16.41129,17.943279"
       orientation="1,0"
       id="guide274"
       inkscape:locked="false" />
    <sodipodi:guide
       position="-1.2419355,17.411021"
       orientation="0,-1"
       id="guide276"
       inkscape:locked="false" />
  </sodipodi:namedview>
  <defs
     id="defs2" />
  <g
     inkscape:groupmode="layer"
     id="layer2"
     inkscape:label="Layer 2"
     style="display:inline">
    <g
       aria-label="S"
       id="text114"
       style="font-size:22.5778px;stroke-width:0.264583"
       transform="matrix(1.7494132,0,0,1.7494132,-12.614942,-11.942417)">
      <path
         d="m 22.082431,19.525561 q 0,2.144891 -1.557868,3.431826 -1.535291,1.264357 -4.380094,1.264357 -2.551291,0 -4.560715,-0.970845 v -3.18347 q 1.151467,0.496711 2.370669,0.925689 1.241779,0.406401 2.46098,0.406401 1.264357,0 1.783646,-0.474134 0.541867,-0.496712 0.541867,-1.241779 0,-0.609601 -0.428978,-1.038579 -0.4064,-0.428978 -1.106312,-0.790223 -0.699912,-0.383822 -1.603024,-0.812801 -0.564445,-0.270933 -1.219201,-0.632178 -0.654756,-0.383823 -1.264357,-0.92569 -0.587023,-0.564445 -0.970845,-1.354668 -0.383823,-0.790223 -0.383823,-1.896535 0,-2.167469 1.467557,-3.3640925 1.467557,-1.2192013 3.996271,-1.2192013 1.264357,0 2.393247,0.2935114 1.12889,0.2935114 2.393247,0.8353787 l -1.106313,2.6641807 q -1.106312,-0.451556 -1.986846,-0.699912 -0.880534,-0.248356 -1.806224,-0.248356 -0.970846,0 -1.490135,0.451556 -0.519289,0.451556 -0.519289,1.174046 0,0.857956 0.767645,1.354668 0.767645,0.496711 2.280358,1.219201 1.241779,0.587023 2.099735,1.219201 0.880534,0.632179 1.354668,1.490135 0.474134,0.857957 0.474134,2.122313 z"
         style="font-weight:bold;-inkscape-font-specification:'sans-serif Bold';text-align:center;text-anchor:middle"
         id="path168" />
    </g>
  </g>
</svg>
