<?xml version="1.0" standalone="no"?>
<!DOCTYPE svg PUBLIC "-//W3C//DTD SVG 20010904//EN" "http://www.w3.org/TR/2001/REC-SVG-20010904/DTD/svg10.dtd">
<!-- Created using Krita: https://krita.org -->
<svg xmlns="http://www.w3.org/2000/svg" 
    xmlns:xlink="http://www.w3.org/1999/xlink"
    xmlns:krita="http://krita.org/namespaces/svg/krita"
    xmlns:sodipodi="http://sodipodi.sourceforge.net/DTD/sodipodi-0.dtd"
    width="272.16pt"
    height="272.16pt"
    viewBox="0 0 272.16 272.16">
<defs/>
<g id="Layer_23" transform="matrix(11.52 0 0 11.52 0 0)" fill="none"/><g id="Layer_22" transform="matrix(11.52 0 0 11.52 0 0)" fill="none"/><g id="Layer_21" transform="matrix(11.52 0 0 11.52 0 0)" fill="none"/><g id="Layer_20" transform="matrix(11.52 0 0 11.52 0 0)" fill="none"/><g id="Layer_19" transform="matrix(11.52 0 0 11.52 0 0)" fill="none"/><g id="Layer_18" transform="matrix(11.52 0 0 11.52 0 0)" fill="none"/><g id="Layer_17" transform="matrix(11.52 0 0 11.52 0 0)" fill="none"/><g id="Layer_16" transform="matrix(11.52 0 0 11.52 0 0)" fill="none"/><g id="Layer_15" transform="matrix(11.52 0 0 11.52 0 0)" fill="none"/><g id="Layer_14" transform="matrix(11.52 0 0 11.52 0 0)" fill="none"/><g id="Layer_13" transform="matrix(11.52 0 0 11.52 0 0)" fill="none"/><g id="Layer_12" transform="matrix(4.41277555132177 0 0 5.22582268253508 25.7601701630149 5.43443293662297)" fill="none">
  <path id="shape0" transform="translate(10.559, 0)" fill="#000000" fill-rule="evenodd" stroke-opacity="0" stroke="#000000" stroke-width="0" stroke-linecap="square" stroke-linejoin="bevel" d="M22.157 22.12C17.452 24.483 12.726 24.634 8.401 21.38L9.928 19.345C13.463 22.005 17.195 21.767 21.02 19.846ZM13.028 50L15.841 50C16.692 46.307 19.262 43.684 21.79 41.104C24.974 37.855 27.508 35.042 28.525 30.389C24.648 32.542 20.569 33.135 16.305 31.78L17.073 29.356C21.086 30.631 25.401 29.659 28.879 27.376C28.967 23.261 27.237 19.249 24.053 16.614C22.176 15.06 19.926 14.073 17.534 13.638C17.777 12.301 18.253 10.778 18.707 9.494C19.568 7.061 20.662 4.874 21.837 2.594L19.271 1.272C17.995 3.749 16.819 6.155 15.892 8.79C15.632 5.831 15.237 2.934 14.795 0L11.936 0.43C12.385 3.416 12.79 6.364 13.05 9.377C11.933 6.478 10.442 3.878 8.828 1.233L6.365 2.736C7.733 4.978 8.997 7.125 10.015 9.567C10.574 10.908 11.035 12.262 11.376 13.631C8.793 14.096 6.584 15.15 4.816 16.614C2.273 18.721 0.658 21.68 0.156 24.93C1.924 26.185 5.334 26.903 7.302 27.204L6.923 29.727C4.604 29.372 2.109 28.838 0 27.717C0.067 29.41 0.424 31.146 1.095 32.858C3.424 34.228 7.421 34.933 9.975 35.059L9.856 37.602C7.535 37.487 5.131 37.152 2.939 36.348C4.12 38.097 5.608 39.603 7.079 41.105C9.607 43.684 12.178 46.308 13.028 50Z" sodipodi:nodetypes="cccccccccccccccccccccccccccccccccccc"/>
 </g><g id="Layer_11" transform="matrix(11.52 0 0 11.52 0 0)" fill="none"/><g id="Layer_10" transform="matrix(11.52 0 0 11.52 0 0)" fill="none"/><g id="Layer_9" transform="matrix(11.52 0 0 11.52 0 0)" fill="none"/><g id="Layer_8" transform="matrix(11.52 0 0 11.52 0 0)" fill="none"/><g id="Layer_7" transform="matrix(11.52 0 0 11.52 0 0)" fill="none"/><g id="Layer_6" transform="matrix(11.52 0 0 11.52 0 0)" fill="none"/><g id="Layer_5" transform="matrix(11.52 0 0 11.52 0 0)" fill="none"/><g id="Layer_4" transform="matrix(11.52 0 0 11.52 0 0)" fill="none"/><g id="Layer_3" transform="matrix(11.52 0 0 11.52 0 0)" fill="none"/><g id="Layer_2" transform="matrix(11.52 0 0 11.52 0 0)" fill="none"/>
</svg>
