<?xml version="1.0" encoding="UTF-8" standalone="no"?>
<svg
   fill="#000000"
   height="512.31012"
   width="473.60001"
   version="1.1"
   id="Layer_1"
   viewBox="0 0 473.60001 512.31012"
   xml:space="preserve"
   xmlns="http://www.w3.org/2000/svg"
   xmlns:svg="http://www.w3.org/2000/svg"><defs
   id="defs9" />
<g
   id="g9"
   transform="translate(-19.355,1.0367326e-4)"><g
   id="g2">
	<g
   id="g1">
		<path
   d="m 412.955,249.91 c 0,-1.6 0,-3.2 0,-4.8 0,-12.8 -1.6,-24 -4.8,-35.2 36.8,-49.6 56,-110.4 51.2,-169.6 0,-8 -6.4,-14.4 -14.4,-14.4 -68.8,-9.6 -139.2,11.2 -193.6,56 -38.4,-43.2 -89.6,-72 -144,-81.6 -8,-1.6 -16,3.2 -19.2,9.6 -27.2,68.8 -22.4,147.2 14.4,214.4 -49.6,20.8 -83.2,70.4 -83.2,128 0,76.8 62.4,137.6 137.6,137.6 33.6,0 64,-12.8 88,-32 25.6,33.6 67.2,54.4 110.4,54.4 76.8,0 137.6,-62.4 137.6,-137.6 0,-56 -33.6,-104 -80,-124.8 z m 14.4,-195.2 c 0,41.6 -11.2,83.2 -33.6,118.4 -8,-12.8 -17.6,-24 -28.8,-33.6 l 41.6,-40 c 6.4,-6.4 6.4,-16 0,-22.4 -6.4,-6.4 -16,-6.4 -22.4,0 l -46.4,44.8 c -19.2,-9.6 -40,-16 -62.4,-16 -1.6,0 -3.2,0 -3.2,0 43.2,-35.2 99.2,-54.4 155.2,-51.2 z m -152,83.2 c 56,0 102.4,44.8 105.6,100.8 -8,-1.6 -16,-3.2 -25.6,-3.2 -32,0 -64,11.2 -88,32 -22.4,-28.8 -56,-49.6 -94.4,-54.4 12.8,-44.8 54.4,-75.2 102.4,-75.2 z m -161.6,-102.4 c 48,11.2 89.6,40 121.6,78.4 -16,4.8 -32,12.8 -44.8,24 l -41.6,-73.6 c -3.2,-8 -12.8,-9.6 -20.8,-6.4 -8,4.8 -11.2,14.4 -6.4,22.4 l 44.8,78.4 c -12.8,16 -22.4,35.2 -27.2,56 -1.6,0 -3.2,0 -6.4,0 -32,-56 -38.4,-121.6 -19.2,-179.2 z m 43.2,420.8 c -59.2,0 -105.6,-48 -105.6,-105.6 0,-57.6 46.4,-105.6 105.6,-105.6 59.2,0 105.6,48 105.6,105.6 0,57.6 -48,105.6 -105.6,105.6 z m 198.4,24 c -35.2,0 -68.8,-17.6 -88,-46.4 17.6,-22.4 27.2,-51.2 27.2,-83.2 0,-19.2 -4.8,-38.4 -11.2,-56 19.2,-17.6 44.8,-28.8 72,-28.8 59.2,1.6 105.6,49.6 105.6,108.8 0,59.2 -48,105.6 -105.6,105.6 z"
   id="path1" />
	</g>
</g>
<g
   id="g4">
	<g
   id="g3">
		<path
   d="m 131.355,339.51 4.8,-4.8 c 6.4,-4.8 8,-16 1.6,-22.4 -4.8,-6.4 -16,-8 -22.4,-1.6 l -3.2,1.6 -1.6,-3.2 c -4.8,-8 -14.4,-9.6 -22.4,-3.2 -8,4.8 -9.6,14.4 -4.8,22.4 l 4.8,4.8 -4.8,4.8 c -6.4,4.8 -8,16 -1.6,22.4 3.2,3.2 8,6.4 12.8,6.4 3.2,0 6.4,-1.6 9.6,-3.2 l 3.2,-3.2 1.6,3.2 c 3.2,4.8 8,6.4 12.8,6.4 3.2,0 6.4,-1.6 9.6,-3.2 8,-4.8 9.6,-14.4 3.2,-22.4 z"
   id="path2" />
	</g>
</g>
<g
   id="g6">
	<g
   id="g5">
		<path
   d="m 396.955,446.71 c -1.6,-8 -9.6,-14.4 -19.2,-12.8 l -33.6,6.4 c -9.6,1.6 -16,11.2 -12.8,19.2 1.6,8 8,12.8 16,12.8 1.6,0 1.6,0 3.2,0 l 33.6,-6.4 c 8,-1.6 14.4,-9.6 12.8,-19.2 z"
   id="path4" />
	</g>
</g>
<g
   id="g8">
	<g
   id="g7">
		<path
   d="m 288.155,160.31 h -32 c -9.6,0 -16,6.4 -16,16 0,9.6 6.4,16 16,16 h 32 c 9.6,0 16,-6.4 16,-16 0,-9.6 -6.4,-16 -16,-16 z"
   id="path6" />
	</g>
</g>
</g></svg>
