<?xml version="1.0" encoding="UTF-8" standalone="no"?>
<svg
   fill="#000000"
   height="512"
   width="512"
   version="1.1"
   id="Layer_1"
   viewBox="0 0 128 128"
   xml:space="preserve"
   sodipodi:docname="blueberry.svg"
   inkscape:version="1.4 (86a8ad7, 2024-10-11)"
   xmlns:inkscape="http://www.inkscape.org/namespaces/inkscape"
   xmlns:sodipodi="http://sodipodi.sourceforge.net/DTD/sodipodi-0.dtd"
   xmlns="http://www.w3.org/2000/svg"
   xmlns:svg="http://www.w3.org/2000/svg"><sodipodi:namedview
   id="namedview1"
   pagecolor="#ffffff"
   bordercolor="#000000"
   borderopacity="0.25"
   inkscape:showpageshadow="2"
   inkscape:pageopacity="0.0"
   inkscape:pagecheckerboard="true"
   inkscape:deskcolor="#d1d1d1"
   inkscape:zoom="1.1138472"
   inkscape:cx="127.93497"
   inkscape:cy="293.12819"
   inkscape:window-width="1920"
   inkscape:window-height="1009"
   inkscape:window-x="-8"
   inkscape:window-y="-8"
   inkscape:window-maximized="1"
   inkscape:current-layer="Layer_1" /><defs
   id="defs9" />
<path
   id="path27"
   style="fill:#000000;stroke:#000000;stroke-width:4.92203;stroke-dasharray:none;stroke-opacity:1"
   d="m 26.426706,5.2177867 c -0.04657,0.0054 -0.07814,0.016744 -0.09541,0.034064 -0.544005,0.5440055 -2.191651,8.5349603 -2.582187,12.5259823 -0.99557,10.173743 1.370916,22.157602 6.298764,31.919617 1.668277,3.304832 2.394392,3.266059 3.5292,-0.190776 1.070534,-3.261085 3.200808,-7.54654 4.990638,-10.042582 l 1.362632,-1.900864 -6.039858,-10.628519 c -3.32154,-5.845385 -6.154591,-10.954277 -6.295345,-11.354127 -0.140929,-0.399851 -0.06819,-1.420781 0.160115,-2.268778 0.801688,-2.977276 4.864865,-4.1401994 6.976669,-1.996252 0.583231,0.59211 3.501886,5.416948 6.486122,10.720489 l 5.426679,9.644024 1.802074,-1.386473 c 1.544406,-1.188284 6.455086,-3.725437 8.785556,-4.537557 0.639639,-0.222904 0.544669,-0.458907 -0.848241,-2.10868 C 51.160949,17.460986 42.186023,10.980568 34.394672,7.7693116 30.993127,6.3673146 27.125122,5.1372061 26.426687,5.2177867 Z m 80.538274,4.8475463 c -2.71773,-0.05235 -9.005633,0.529041 -12.181914,1.175273 -7.497725,1.525466 -15.901157,5.131742 -22.520874,9.661046 l -3.587124,2.452735 3.314598,0.241881 c 3.868144,0.282923 6.925835,1.037675 10.952141,2.698001 l 2.895578,1.192294 5.106466,-5.028102 c 7.595797,-7.479896 8.147161,-7.913478 10.039189,-7.913478 2.05331,0 3.73152,1.176143 4.22415,2.960322 0.69421,2.514235 0.0577,3.497091 -6.121615,9.422585 l -5.774159,5.53569 2.265377,2.296039 c 1.24687,1.262829 2.83147,3.128616 3.522407,4.145797 0.690934,1.017163 1.38821,1.854765 1.54658,1.859998 0.51713,0.01812 4.55419,-8.70936 5.79118,-12.519178 1.45244,-4.473372 2.72867,-11.61345 2.72867,-15.261463 v -2.657134 l -1.27404,-0.19758 c -0.22307,-0.03494 -0.53837,-0.05724 -0.92661,-0.06473 z M 68.828362,32.378412 c -2.592146,0.0315 -5.207961,0.332316 -7.208311,0.899345 -8.727667,2.473997 -15.647145,8.600627 -18.654403,16.515082 -0.564918,1.486728 -0.627464,1.997631 -0.255503,2.091641 0.270607,0.06844 2.065688,0.503157 3.989102,0.967454 6.504331,1.5701 13.717451,5.884524 18.225181,10.904465 l 2.122303,2.367567 1.975811,-1.485264 c 2.424705,-1.822845 6.619428,-3.942062 9.964226,-5.034922 4.16331,-1.36038 7.25162,-1.722348 12.839395,-1.509123 L 97.045018,58.292236 96.803155,56.8751 C 94.761099,44.946462 87.018815,36.143981 75.8902,33.10402 73.98801,32.584397 71.420509,32.34693 68.828362,32.378412 Z m -0.395158,5.460743 c 6.513855,0 7.437513,0.309119 8.243912,2.752523 0.653226,1.979298 0.197649,3.85658 -1.222958,5.051945 -1.165923,0.981006 -1.320021,1.004937 -7.259416,1.004937 h -6.067121 l -1.113946,-1.117349 c -1.456223,-1.456222 -1.840952,-3.473386 -0.998118,-5.249541 1.031814,-2.174384 1.96102,-2.442515 8.417647,-2.442515 z M 38.06698,60.802895 c -12.406331,-0.22355 -23.390538,7.905473 -27.211728,20.292966 -1.1759881,3.812331 -1.2682023,10.617408 -0.194178,14.48477 2.708341,9.752369 10.424467,17.472099 19.962533,19.972759 3.856074,1.01097 9.760726,1.0155 13.704672,0.007 7.700498,-1.96946 14.547587,-7.4899 17.986719,-14.49838 2.404612,-4.900321 3.032914,-7.492537 3.03185,-12.525994 -0.0015,-7.631587 -2.637198,-13.984541 -8.04293,-19.383418 -5.208514,-5.201927 -11.001242,-7.867014 -18.031004,-8.298435 -0.402972,-0.02471 -0.805735,-0.04388 -1.205934,-0.05109 z m 52.110385,5.651502 c -6.077833,0.0087 -11.132551,1.709894 -16.23233,5.464145 -1.832126,1.348729 -2.363503,1.949822 -2.163169,2.449334 0.145987,0.363921 0.722068,2.335405 1.280863,4.380859 0.902748,3.304639 1.016484,4.439204 1.015176,10.178855 -0.0013,5.443738 -0.135522,6.950122 -0.861863,9.589508 -0.969861,3.524702 -2.961333,7.948482 -4.741954,10.536542 l -1.192313,1.73053 1.577251,1.99285 c 3.892021,4.9238 10.766596,8.73157 17.785717,9.84502 1.081593,0.17162 3.410962,0.22621 5.174591,0.12261 C 111.74954,121.57412 123.93562,101.00176 115.44738,82.857048 110.69196,72.691746 101.05576,66.438679 90.177365,66.454377 Z m -68.121298,9.160297 c 1.556896,0 2.022012,0.190515 2.970542,1.205917 1.066088,1.141243 1.171645,1.170685 2.006473,0.585935 1.026565,-0.719032 3.129281,-0.803258 4.353599,-0.177137 2.553705,1.30598 3.064554,4.839559 1.035598,7.150405 l -1.185475,1.35241 0.793719,1.304707 c 0.862839,1.415217 1.033819,3.453696 0.391756,4.653385 -0.222503,0.415775 -1.096279,1.108437 -1.941746,1.539768 -0.845467,0.431316 -1.852741,0.778614 -2.238115,0.769893 -1.129906,-0.02471 -3.236407,-1.075418 -3.491736,-1.740765 -0.149125,-0.388566 -0.397042,-0.487339 -0.677922,-0.269108 -0.243992,0.189573 -1.037936,0.545575 -1.764592,0.790317 -1.104268,0.371891 -1.59975,0.323176 -3.008008,-0.29977 -3.321052,-1.46906 -3.864115,-4.874982 -1.236597,-7.760183 0.767713,-0.843061 0.773312,-0.903811 0.10221,-1.645378 -0.383839,-0.424147 -0.789463,-1.569489 -0.899344,-2.544723 -0.187116,-1.660115 -0.09733,-1.875084 1.372851,-3.345243 1.388776,-1.388775 1.783812,-1.57043 3.416789,-1.57043 z m 74.944669,34.910586 c 1.099014,-0.061 1.622612,0.12705 2.391427,0.52462 2.990807,1.54662 3.024927,6.25312 0.05793,7.78743 -0.598491,0.30949 -3.017182,0.92884 -5.375571,1.37625 -5.926039,1.12422 -7.305798,1.07863 -8.833252,-0.28614 -0.99789,-0.89163 -1.26698,-1.48086 -1.423956,-3.11362 -0.175306,-1.82443 -0.08878,-2.11973 0.92999,-3.13405 0.967594,-0.96337 1.864236,-1.2652 6.41117,-2.16998 3.068924,-0.61069 4.743281,-0.92348 5.842285,-0.98451 z" /></svg>
