<?xml version="1.0" standalone="no"?>
<!DOCTYPE svg PUBLIC "-//W3C//DTD SVG 20010904//EN" "http://www.w3.org/TR/2001/REC-SVG-20010904/DTD/svg10.dtd">
<!-- Created using Krita: https://krita.org -->
<svg xmlns="http://www.w3.org/2000/svg" 
    xmlns:xlink="http://www.w3.org/1999/xlink"
    xmlns:krita="http://krita.org/namespaces/svg/krita"
    xmlns:sodipodi="http://sodipodi.sourceforge.net/DTD/sodipodi-0.dtd"
    width="272.16pt"
    height="272.16pt"
    viewBox="0 0 272.16 272.16">
<defs/>
<g id="Layer_23" transform="matrix(11.52 0 0 11.52 0 0)" fill="none"/><g id="Layer_22" transform="matrix(11.52 0 0 11.52 0 0)" fill="none"/><g id="Layer_21" transform="matrix(11.52 0 0 11.52 0 0)" fill="none"/><g id="Layer_20" transform="matrix(11.52 0 0 11.52 0 0)" fill="none"/><g id="Layer_19" transform="matrix(11.52 0 0 11.52 0 0)" fill="none"/><g id="Layer_18" transform="matrix(11.52 0 0 11.52 0 0)" fill="none"/><g id="Layer_17" transform="matrix(11.52 0 0 11.52 0 0)" fill="none"/><g id="Layer_16" transform="matrix(11.52 0 0 11.52 0 0)" fill="none"/><g id="Layer_15" transform="matrix(11.52 0 0 11.52 0 0)" fill="none"/><g id="Layer_14" transform="matrix(11.52 0 0 11.52 0 0)" fill="none"/><g id="Layer_13" transform="matrix(11.52 0 0 11.52 0 0)" fill="none"/><g id="Layer_12" transform="matrix(11.52 0 0 11.52 0 0)" fill="none"/><g id="Layer_11" transform="matrix(11.52 0 0 11.52 0 0)" fill="none"/><g id="Layer_10" transform="matrix(11.52 0 0 11.52 0 0)" fill="none"/><g id="Layer_9" transform="matrix(11.52 0 0 11.52 0 0)" fill="none"/><g id="Layer_8" transform="matrix(5.30915380023314 0 0 5.30915380023314 3.35115499417151 15.1251405526342)" fill="none">
  <path id="shape0" transform="translate(0, 4.47432083212943)" fill="#000000" fill-rule="evenodd" stroke-opacity="0" stroke="#000000" stroke-width="0" stroke-linecap="square" stroke-linejoin="bevel" d="M6.785 11.1877C12.938 10.9697 19.189 13.3917 24.508 16.5367C25.609 15.8767 26.74 15.2397 27.896 14.6457C27.049 13.7717 26.208 12.9267 25.319 12.1427C18.184 5.84868 13.01 3.11968 4.837 3.80668L7.647 9.66168C7.342 10.1527 7.054 10.6627 6.785 11.1877M14.707 2.81468C18.542 4.27768 22.205 6.69668 25.308 9.24568C28.418 6.70568 32.008 4.45568 35.764 3.03568C29.304 -0.945321 21.255 -1.00232 14.707 2.81468ZM45.491 4.08068C38.173 3.46168 33.586 5.44668 27.006 10.7007C28.041 11.6327 29.011 12.6307 29.976 13.6337C34.14 11.7327 38.566 10.4667 43.015 10.5747L42.668 9.97968ZM39.616 13.0157C35.459 13.5787 31.125 15.3167 26.666 17.8787C32.709 21.7917 37.426 26.3407 42.557 31.3337C44.802 27.7047 45.775 23.7057 45.585 19.4537L50 14.4237C46.276 13.0347 43.928 12.4327 39.616 13.0157ZM41.257 33.1957C35.863 27.9367 30.939 23.2047 24.51 19.1727C18.058 15.1257 12.059 13.1937 6.768 13.4267C4.236 13.5337 2.362 14.2147 0 15.0957C1.582 16.7217 3.098 18.2877 4.539 20.0487C4.273 31.6997 13.655 41.2017 25.313 41.0497C31.308 40.9717 37.251 38.3067 41.257 33.1957Z" sodipodi:nodetypes="cccccccccccccccccccccccccccccc"/>
 </g><g id="Layer_7" transform="matrix(11.52 0 0 11.52 0 0)" fill="none"/><g id="Layer_6" transform="matrix(11.52 0 0 11.52 0 0)" fill="none"/><g id="Layer_5" transform="matrix(11.52 0 0 11.52 0 0)" fill="none"/><g id="Layer_4" transform="matrix(11.52 0 0 11.52 0 0)" fill="none"/><g id="Layer_3" transform="matrix(11.52 0 0 11.52 0 0)" fill="none"/><g id="Layer_2" transform="matrix(11.52 0 0 11.52 0 0)" fill="none"/>
</svg>
