<?xml version="1.0" standalone="no"?>
<!DOCTYPE svg PUBLIC "-//W3C//DTD SVG 20010904//EN" "http://www.w3.org/TR/2001/REC-SVG-20010904/DTD/svg10.dtd">
<!-- Created using Krita: https://krita.org -->
<svg xmlns="http://www.w3.org/2000/svg" 
    xmlns:xlink="http://www.w3.org/1999/xlink"
    xmlns:krita="http://krita.org/namespaces/svg/krita"
    xmlns:sodipodi="http://sodipodi.sourceforge.net/DTD/sodipodi-0.dtd"
    width="272.16pt"
    height="272.16pt"
    viewBox="0 0 272.16 272.16">
<defs/>
<g id="Layer_23" transform="matrix(11.52 0 0 11.52 0 0)" fill="none"/><g id="Layer_22" transform="matrix(11.52 0 0 11.52 0 0)" fill="none"/><g id="Layer_21" transform="matrix(11.52 0 0 11.52 0 0)" fill="none"/><g id="Layer_20" transform="matrix(11.52 0 0 11.52 0 0)" fill="none"/><g id="Layer_19" transform="matrix(11.52 0 0 11.52 0 0)" fill="none"/><g id="Layer_18" transform="matrix(5.07073944217663 0 0 5.07073944217663 9.31151394558433 9.31151394558434)" fill="none">
  <path id="shape0" transform="translate(7.503, 0)" fill="#000000" fill-rule="evenodd" stroke-opacity="0" stroke="#000000" stroke-width="0" stroke-linecap="square" stroke-linejoin="bevel" d="M22.571 13.089C21.497 10.311 17.744 9.149 15.203 10.61L14.738 10.879C14.517 7.274 14.808 3.961 15.305 0.385L12.529 0C12.094 3.133 11.796 6.159 11.87 9.324L7.361 1.514L4.937 2.908L9.398 10.646C6.707 8.988 3.952 7.773 0.999 6.649L0 9.271C3.397 10.564 6.377 11.931 9.386 13.969L8.93 14.233C6.587 15.562 5.598 18.927 6.956 21.278C7.285 21.849 7.883 22.476 8.302 22.969L13.519 19.943L14.758 22.082L9.928 24.884L17.508 33.803L22.964 30.595L24.213 32.725L19.132 35.713L31.275 50L34.994 47.862C31.809 39.679 29.091 31.365 26.21 23.079L21.34 25.939L20.091 23.809L25.377 20.703C24.477 18.159 23.549 15.62 22.571 13.089" sodipodi:nodetypes="ccccccccccccccccccccccccccccc"/>
 </g><g id="Layer_17" transform="matrix(11.52 0 0 11.52 0 0)" fill="none"/><g id="Layer_16" transform="matrix(11.52 0 0 11.52 0 0)" fill="none"/><g id="Layer_15" transform="matrix(11.52 0 0 11.52 0 0)" fill="none"/><g id="Layer_14" transform="matrix(11.52 0 0 11.52 0 0)" fill="none"/><g id="Layer_13" transform="matrix(11.52 0 0 11.52 0 0)" fill="none"/><g id="Layer_12" transform="matrix(11.52 0 0 11.52 0 0)" fill="none"/><g id="Layer_11" transform="matrix(11.52 0 0 11.52 0 0)" fill="none"/><g id="Layer_10" transform="matrix(11.52 0 0 11.52 0 0)" fill="none"/><g id="Layer_9" transform="matrix(11.52 0 0 11.52 0 0)" fill="none"/><g id="Layer_8" transform="matrix(11.52 0 0 11.52 0 0)" fill="none"/><g id="Layer_7" transform="matrix(11.52 0 0 11.52 0 0)" fill="none"/><g id="Layer_6" transform="matrix(11.52 0 0 11.52 0 0)" fill="none"/><g id="Layer_5" transform="matrix(11.52 0 0 11.52 0 0)" fill="none"/><g id="Layer_4" transform="matrix(11.52 0 0 11.52 0 0)" fill="none"/><g id="Layer_3" transform="matrix(11.52 0 0 11.52 0 0)" fill="none"/><g id="Layer_2" transform="matrix(11.52 0 0 11.52 0 0)" fill="none"/>
</svg>
