<?xml version="1.0" encoding="utf-8"?>
<!-- Uploaded to SVGRepo https://www.svgrepo.com -->
<svg version="1.1" id="Layer_1" xmlns="http://www.w3.org/2000/svg" xmlns:xlink="http://www.w3.org/1999/xlink" x="0px" y="0px"
	 width="260px" height="260px" viewBox="0 0 260 260" enable-background="new 0 0 260 260" xml:space="preserve">
<path d="M257.776,159.912c-0.334-6.852-1.865-13.514-5.053-19.407c-5.416-10.009-15.156-17.13-26.105-19.987
	c-16.358-4.268-28.911,4.088-35.271,5.142c-0.17-40.33,12.513-79.84,36.352-112.53c1.625-2.23,1.795-5.21,0.429-7.6
	c-1.376-2.4-4.018-3.77-6.76-3.5c-83.322,8.35-144.161,63.92-156.046,138.9c-2.323-0.64-4.546-1.51-6.61-2.6
	c-4.826-2.04-10.13-3.16-15.703-3.16c-12.152,0-23.859,5.59-31.529,15.043c-20.042,24.701-5.539,64.689,13.775,85.234
	C37.944,248.946,55.433,258,74.166,258c30.002,0,55.328-22.601,66.016-49.553c6.15-15.508,9.205-35.791,1.257-51.215
	c-6.693-12.989-20.175-21.555-34.747-22.039c-0.456-0.015-0.912-0.023-1.369-0.023c-5.573,0-10.878,1.12-15.703,3.16
	c-3.121,1.65-6.58,2.8-10.259,3.38C90.098,78.42,139.262,30.49,207.559,18.1c-19.751,32.1-30.21,69.17-30.17,106.94
	c-2.473-0.65-4.826-1.56-7.009-2.71c-4.826-2.04-10.13-3.16-15.703-3.16c-10.688,0-20.399,4.15-27.648,10.91
	c1.408-1.313,17.322,9.719,23.936,23.94c4.584,9.855,5.672,24.095,4.212,36.281c-2.37,19.783-12.015,35.091-12.156,34.97
	c11.954,10.29,26.76,16.73,42.813,16.73c30.44,0,56.033-23.238,66.467-50.715C255.883,181.851,258.3,170.649,257.776,159.912z
	 M36.278,186c-7.707,0-13.958-6.27-13.958-14s6.251-14,13.958-14s13.958,6.27,13.958,14S43.985,186,36.278,186z"/>
</svg>
