<?xml version="1.0" encoding="UTF-8" standalone="no"?>
<svg
   version="1.1"
   width="740px"
   height="740px"
   style="shape-rendering:geometricPrecision; text-rendering:geometricPrecision; image-rendering:optimizeQuality; fill-rule:evenodd; clip-rule:evenodd"
   id="svg15"
   sodipodi:docname="cranberry.svg"
   inkscape:version="1.4 (86a8ad7, 2024-10-11)"
   xmlns:inkscape="http://www.inkscape.org/namespaces/inkscape"
   xmlns:sodipodi="http://sodipodi.sourceforge.net/DTD/sodipodi-0.dtd"
   xmlns="http://www.w3.org/2000/svg"
   xmlns:svg="http://www.w3.org/2000/svg">
  <defs
     id="defs15" />
  <sodipodi:namedview
     id="namedview15"
     pagecolor="#ffffff"
     bordercolor="#000000"
     borderopacity="0.25"
     inkscape:showpageshadow="2"
     inkscape:pageopacity="0.0"
     inkscape:pagecheckerboard="true"
     inkscape:deskcolor="#d1d1d1"
     inkscape:zoom="0.77112861"
     inkscape:cx="268.43771"
     inkscape:cy="392.28216"
     inkscape:window-width="1920"
     inkscape:window-height="1009"
     inkscape:window-x="-8"
     inkscape:window-y="-8"
     inkscape:window-maximized="1"
     inkscape:current-layer="svg15" />
  <g
     id="g11" />
  <g
     id="g2" />
  <g
     id="g3" />
  <g
     id="g4" />
  <g
     id="g5" />
  <g
     id="g6" />
  <g
     id="g7" />
  <g
     id="g9" />
  <g
     id="g10" />
  <g
     id="g12" />
  <g
     id="g13" />
  <g
     id="g14" />
  <g
     id="g15"
     transform="matrix(0.50654567,1.1711253,-1.1711253,0.50654567,622.96761,-196.97331)">
    <path
       id="path15"
       style="opacity:1"
       d="m 499.5,420.5 c 3.315,0.472 5.649,2.305 7,5.5 5.186,4.014 11.02,6.181 17.5,6.5 0.667,1.333 0.667,2.667 0,4 -1.861,2.388 -3.194,5.054 -4,8 0.002,5.252 -0.164,10.419 -0.5,15.5 -5.297,-0.438 -10.63,-0.438 -16,0 -2.279,0.473 -4.279,1.473 -6,3 -1.941,0.743 -3.774,0.576 -5.5,-0.5 -0.26,-3.75 -0.927,-7.416 -2,-11 -2.384,-4.147 -5.217,-7.813 -8.5,-11 0.029,-1.529 0.696,-2.696 2,-3.5 8.224,-2.724 13.557,-8.224 16,-16.5 z m -4,-18 c 10.121,-1.102 18.121,2.398 24,10.5 16.842,1.516 24.342,10.683 22.5,27.5 -1.107,3.379 -2.607,6.546 -4.5,9.5 2.777,21.389 -6.556,30.555 -28,27.5 -15.887,9.131 -27.72,5.464 -35.5,-11 -0.333,-2.667 -0.667,-5.333 -1,-8 -10.146,-8.711 -12.146,-19.045 -6,-31 3.092,-4.428 7.259,-7.261 12.5,-8.5 2.826,-7.992 8.159,-13.492 16,-16.5 z m -154,18 c 3.972,1.449 7.306,3.949 10,7.5 4.503,2.662 9.336,4.162 14.5,4.5 0.667,1.667 0.667,3.333 0,5 -1.252,1.501 -2.252,3.168 -3,5 -0.19,5.916 -0.69,11.749 -1.5,17.5 -5.297,-0.438 -10.63,-0.438 -16,0 -2.225,0.561 -4.225,1.561 -6,3 -1.941,0.743 -3.774,0.576 -5.5,-0.5 -0.333,-3 -0.667,-6 -1,-9 -2.404,-5.065 -5.57,-9.565 -9.5,-13.5 0.259,-1.261 0.926,-2.261 2,-3 8.197,-2.698 13.531,-8.198 16,-16.5 z m -3,-18 c 9.94,-0.856 17.94,2.644 24,10.5 16.194,1.523 23.694,10.356 22.5,26.5 -0.956,2.877 -2.289,5.544 -4,8 2.667,22.499 -7.167,32.499 -29.5,30 -12.31,7.774 -23.143,6.108 -32.5,-5 -2.499,-4.332 -3.832,-8.999 -4,-14 -10.571,-9.293 -12.238,-19.959 -5,-32 3.293,-3.287 7.127,-5.787 11.5,-7.5 3.579,-7.747 9.245,-13.247 17,-16.5 z m 19,-129 c 4.178,0.645 7.511,2.812 10,6.5 4.24,2.782 8.907,4.115 14,4 1.711,1.133 2.211,2.633 1.5,4.5 -1.586,2.17 -2.92,4.504 -4,7 -0.147,5.594 -0.313,11.094 -0.5,16.5 -5.307,-0.359 -10.641,-0.359 -16,0 -2.571,0.901 -4.904,2.234 -7,4 -1.612,0.72 -3.112,0.554 -4.5,-0.5 -0.26,-3.75 -0.927,-7.416 -2,-11 -2.673,-4.164 -5.507,-8.164 -8.5,-12 0.029,-1.529 0.696,-2.696 2,-3.5 7.865,-2.366 12.865,-7.532 15,-15.5 z m -4,-18 c 10.218,-1.651 18.552,1.515 25,9.5 16.207,1.534 23.707,10.368 22.5,26.5 -1.362,3.558 -2.862,7.058 -4.5,10.5 3.148,12.917 -1.185,22.25 -13,28 -5.271,2.142 -10.437,1.976 -15.5,-0.5 -15.344,9.371 -27.01,6.037 -35,-10 -0.333,-2.667 -0.667,-5.333 -1,-8 -13.173,-11.811 -13.673,-23.977 -1.5,-36.5 2.456,-1.711 5.123,-3.044 8,-4 2.518,-7.683 7.518,-12.85 15,-15.5 z m -92,135 c 0.876,-0.131 1.543,0.202 2,1 -24.809,42.642 -58.476,76.476 -101,101.5 -24.13,12.933 -49.797,20.6 -77,23 12.484,-25.158 29.484,-46.824 51,-65 37.419,-28.866 79.085,-49.033 125,-60.5 z m 218,-29 c 42.261,-2.965 72.094,14.702 89.5,53 11.298,39.775 0.464,71.942 -32.5,96.5 -29.407,16.607 -58.74,16.607 -88,0 -5.101,-2.933 -9.435,-6.766 -13,-11.5 23.971,-38.036 23.971,-76.036 0,-114 12.103,-12.718 26.769,-20.718 44,-24 z m -139,0 c 42.128,-3.294 71.962,14.04 89.5,52 11.108,34.266 3.942,64.099 -21.5,89.5 -24.71,20.287 -52.376,25.62 -83,16 -39.982,-18.455 -57.149,-49.621 -51.5,-93.5 9.671,-34.507 31.838,-55.841 66.5,-64 z m 131,-18 c -4.202,0.317 -8.202,-0.017 -12,-1 17.984,-29.15 41.984,-51.984 72,-68.5 37.062,-20.704 75.895,-32.871 116.5,-36.5 -30.438,42.784 -69.938,73.951 -118.5,93.5 -18.774,6.693 -38.107,10.86 -58,12.5 z m -120,-121 c 37.58,-1.967 65.413,13.366 83.5,46 13.664,32.658 9.33,62.658 -13,90 -2.016,2.184 -4.183,4.184 -6.5,6 -30.322,-22.359 -63.322,-27.193 -99,-14.5 -5,2.5 -10,5 -15,7.5 -10.152,-10.299 -16.652,-22.632 -19.5,-37 -5.814,-33.852 4.686,-61.352 31.5,-82.5 11.693,-7.835 24.359,-13.002 38,-15.5 z m -240,-5 c 22.943,3.972 44.277,12.139 64,24.5 43.433,29.597 77.1,67.764 101,114.5 -48.008,-11.593 -89.175,-35.259 -123.5,-71 -18.149,-19.952 -31.983,-42.619 -41.5,-68 z m -18,-20 c 23.148,0.263 45.148,5.43 66,15.5 41.452,20.112 75.618,48.945 102.5,86.5 4.174,-42.83 26.008,-72.664 65.5,-89.5 46.771,-13.51 85.271,-1.343 115.5,36.5 12.831,18.653 18.831,39.32 18,62 28.359,-31.004 62.193,-54.17 101.5,-69.5 31.741,-11.58 64.408,-19.246 98,-23 8.603,-2.383 13.936,0.617 16,9 -33.534,59.191 -82.201,100.857 -146,125 43.234,20.962 63.401,55.462 60.5,103.5 -7.382,46.383 -33.882,75.216 -79.5,86.5 -27.128,5.203 -52.128,0.203 -75,-15 -4.427,-3.626 -8.927,-7.126 -13.5,-10.5 -31.418,27.29 -66.918,34.123 -106.5,20.5 -40.842,-19.486 -61.676,-51.986 -62.5,-97.5 -34.557,45.534 -79.391,76.034 -134.5,91.5 -17.058,4.466 -34.3912,6.466 -52,6 -4.1629,-2.821 -5.6629,-6.655 -4.5,-11.5 12.4201,-33.415 32.2534,-61.581 59.5,-84.5 40.534,-32.265 86.201,-54.431 137,-66.5 -44.31,-14.837 -83.143,-38.503 -116.5,-71 -24.655,-26.627 -42.655,-57.294 -54,-92 -0.6667,-2.333 -0.6667,-4.667 0,-7 1.7073,-1.537 3.2073,-3.204 4.5,-5 z" />
  </g>
</svg>
