<?xml version="1.0" encoding="UTF-8" standalone="no"?>
<svg
   version="1.1"
   width="512"
   height="512"
   style="clip-rule:evenodd;fill-rule:evenodd;image-rendering:optimizeQuality;shape-rendering:geometricPrecision;text-rendering:geometricPrecision"
   id="svg15"
   sodipodi:docname="cranberry.svg"
   inkscape:version="1.4 (86a8ad7, 2024-10-11)"
   viewBox="0 0 128 128"
   xmlns:inkscape="http://www.inkscape.org/namespaces/inkscape"
   xmlns:sodipodi="http://sodipodi.sourceforge.net/DTD/sodipodi-0.dtd"
   xmlns="http://www.w3.org/2000/svg"
   xmlns:svg="http://www.w3.org/2000/svg">
  <defs
     id="defs15" />
  <sodipodi:namedview
     id="namedview15"
     pagecolor="#ffffff"
     bordercolor="#000000"
     borderopacity="0.25"
     inkscape:showpageshadow="2"
     inkscape:pageopacity="0.0"
     inkscape:pagecheckerboard="true"
     inkscape:deskcolor="#d1d1d1"
     inkscape:zoom="0.27263514"
     inkscape:cx="383.29615"
     inkscape:cy="603.3705"
     inkscape:window-width="1920"
     inkscape:window-height="1009"
     inkscape:window-x="-8"
     inkscape:window-y="-8"
     inkscape:window-maximized="1"
     inkscape:current-layer="svg15" />
  <g
     id="g24"
     transform="matrix(0.17533933,-0.01584879,0.01584879,0.17533933,-4.3700874,9.9545305)">
    <path
       id="path23"
       style="clip-rule:evenodd;fill:#000000;fill-rule:evenodd;stroke:#000000;stroke-width:18.376;stroke-dasharray:none;stroke-opacity:1;image-rendering:optimizeQuality;shape-rendering:geometricPrecision;text-rendering:geometricPrecision"
       d="m 410.4889,14.829575 c -24.9035,24.002233 -44.4422,51.685522 -58.6152,83.046872 -24.47,58.303333 -31.3332,118.503843 -20.5918,180.599613 42.6273,-51.66381 70.2706,-110.42549 82.9316,-176.2832 4.4857,-29.359523 3.2454,-58.482163 -3.7246,-87.363285 z M 47.736938,135.58348 c 16.59026,30.64241 38.57036,56.81925 65.939462,78.52735 50.8466,37.12513 107.5251,59.41481 170.0312,66.86914 0.703,-0.93943 0.7553,-1.89006 0.1582,-2.84961 C 247.1785,230.1667 202.4541,191.58661 149.694,162.38622 117.5088,146.39526 83.523798,137.46013 47.736938,135.58348 Z M 438.942,247.44286 c -21.1656,-0.65094 -42.0692,5.76275 -62.7129,19.23828 -15.3841,10.61342 -26.5365,24.47195 -33.455,41.57813 5.4602,4.58926 10.9202,9.17831 16.3808,13.76757 32.9376,35.35383 43.9937,76.45039 33.168,123.28711 3.3004,1.79361 6.7393,3.31758 10.3183,4.57227 43.3321,12.30126 80.6612,2.18174 111.9864,-30.36328 29.0566,-37.71276 32.9156,-78.07534 11.5761,-121.08985 -9.8353,-14.70997 -22.3035,-26.92715 -37.4023,-36.65234 -16.7779,-9.05193 -33.3972,-13.83161 -49.8594,-14.33789 z m -0.8144,49.79297 c 4.7773,-0.094 10.096,0.97184 15.955,3.19726 3.2479,2.00959 6.1595,4.45673 8.7364,7.3418 10.2732,-0.94289 18.8566,2.29679 25.75,9.7168 7.1085,11.1298 7.624,22.49416 1.539,34.08984 6.413,19.75747 -0.1346,33.01539 -19.6386,39.77344 -4.8568,0.20722 -9.7154,0.22357 -14.5762,0.0488 -13.5328,10.22975 -26.6581,9.88318 -39.377,-1.04102 -5.1785,-5.08799 -7.6007,-11.22264 -7.2656,-18.40625 -18.7471,-13.22291 -20.7516,-28.57393 -6.0176,-46.05469 2.9547,-1.74094 5.9086,-3.48367 8.8633,-5.22461 5.1458,-15.38847 13.8224,-23.20122 26.0313,-23.4414 z m -172.3555,11.95508 c -5.3796,0.10333 -10.9006,0.53941 -16.5645,1.30859 -54.2493,15.61103 -82.0536,51.5016 -83.414,107.67383 4.2462,40.73751 24.5058,70.43739 60.7812,89.09961 42.6353,16.929 81.204,10.2099 115.7071,-20.15625 35.5721,-39.76767 40.76,-83.48765 15.5625,-131.15625 -23.724,-31.90306 -54.4154,-47.49285 -92.0723,-46.76953 z m -5.877,43.53906 c 2.0297,-0.007 4.156,0.13838 6.377,0.43555 5.5176,2.1915 10.3881,5.4163 14.6094,9.66992 10.8856,0.26725 20.1957,4.11649 27.9336,11.55078 6.0376,11.20738 5.992,22.34934 -0.1387,33.42578 6.4194,19.73668 -0.1272,32.99409 -19.6387,39.77344 -3.8535,0.33774 -7.6516,0.12688 -11.3945,-0.63281 -24.9982,14.52015 -41.6902,8.06903 -50.0762,-19.35157 -15.3399,-10.47866 -18.8765,-24.00882 -10.6074,-40.59375 3.8075,-5.121 8.5974,-9.04541 14.3691,-11.77539 4.8375,-14.95138 14.3585,-22.45312 28.5664,-22.50195 z M 377.86,479.3745 c -32.3182,47.30354 -76.8205,66.55217 -133.5078,57.74609 -3.7383,6.57305 -6.0317,13.58922 -6.8828,21.04883 -4.6273,42.67933 10.2312,77.03347 44.5761,103.06055 45.4582,26.16523 88.616,22.55892 129.4746,-10.82031 36.0348,-39.7843 41.6139,-83.67305 16.7344,-131.66407 C 415.6826,500.22842 398.8851,487.10638 377.86,479.3745 Z m 62.5156,6.32422 c 0.7726,4.94587 2.4065,9.80005 4.9063,14.56055 11.9973,22.46646 26.6713,42.99736 44.0195,61.59375 47.4932,46.96973 104.0017,77.44135 169.5254,91.41601 C 634.0085,607.55374 600.0896,568.2385 557.069,535.32177 522.5222,508.53538 483.6236,491.99443 440.3756,485.69872 Z m -98.8848,51.72851 c 1.0226,0.003 2.0691,0.04 3.1387,0.11133 6.752,1.37814 12.1793,4.82373 16.2852,10.33399 10.7911,-0.73871 19.9351,2.72176 27.4297,10.38086 6.4173,11.29475 6.3697,22.4367 -0.1407,33.42578 6.7558,20.49201 -0.1807,33.91793 -20.8086,40.27929 -4.518,0.41518 -8.9878,0.26358 -13.4062,-0.45703 -23.6425,14.08672 -39.1041,7.79979 -46.3887,-18.86132 -18.741,-13.98041 -20.4401,-29.69732 -5.0996,-47.14844 2.9547,-1.74094 5.9086,-3.48172 8.8633,-5.22266 4.7458,-15.27634 14.7886,-22.89066 30.1269,-22.8418 z" />
    <path
       style="clip-rule:evenodd;fill:#000000;fill-rule:evenodd;stroke:#1a1a1a;stroke-width:1.27598;stroke-opacity:1;image-rendering:optimizeQuality;shape-rendering:geometricPrecision;text-rendering:geometricPrecision"
       d="m 469.5152,331.29304 c 1.361,5.21968 0.5115,10.22073 -2.5468,15.0038 -1.1103,6.37478 -0.3074,12.51565 2.4071,18.42193 -0.4602,2.57772 -1.9636,3.9231 -4.5102,4.03615 -3.3448,-0.7582 -6.7539,-1.13821 -10.2241,-1.13868 -6.6257,2.66146 -13.151,5.25305 -19.5768,7.77244 -2.2678,-6.39702 -4.9697,-12.6438 -8.1048,-18.73801 -2.3575,-2.55456 -5.1004,-4.61157 -8.2303,-6.17169 -1.6597,-1.52314 -2.2252,-3.36392 -1.6939,-5.52334 4.26,-2.20404 8.2155,-4.84217 11.8693,-7.91425 3.5226,-5.23968 6.7715,-10.58483 9.7479,-16.03312 1.8053,-0.74054 3.5099,-0.55054 5.112,0.56935 6.7549,8.01241 15.3376,11.25122 25.7506,9.71542 z"
       id="path16" />
    <path
       style="clip-rule:evenodd;fill:#000000;fill-rule:evenodd;stroke:#1a1a1a;stroke-width:1.27598;stroke-opacity:1;image-rendering:optimizeQuality;shape-rendering:geometricPrecision;text-rendering:geometricPrecision"
       d="m 289.2551,387.01725 c 0.315,5.38569 -0.924,10.55659 -3.718,15.51034 -0.8366,6.622 -0.1451,13.04187 2.0749,19.26077 -1.6144,1.62556 -3.5655,2.46946 -5.8557,2.53273 -2.392,-0.70592 -4.8508,-1.03264 -7.3752,-0.98065 -7.0247,2.77421 -14.1091,5.14333 -21.2545,7.10787 -2.1703,-6.42532 -4.8717,-12.67093 -8.1048,-18.73801 -1.784,-2.32158 -3.9683,-4.15729 -6.5526,-5.50711 -1.8534,-1.89679 -2.5863,-4.12806 -2.2005,-6.69447 3.3447,-1.90962 6.6889,-3.82041 10.0336,-5.73003 4.714,-5.38104 8.3804,-11.36828 10.998,-17.96406 1.608,-0.33543 3.117,-0.0608 4.5265,0.82261 7.3118,8.23306 16.4549,11.69384 27.4283,10.38001 z"
       id="path13" />
    <path
       style="clip-rule:evenodd;fill:#000000;fill-rule:evenodd;stroke:#1a1a1a;stroke-width:1.27598;stroke-opacity:1;image-rendering:optimizeQuality;shape-rendering:geometricPrecision;text-rendering:geometricPrecision"
       d="m 369.2893,572.05504 c 1.1264,4.12137 0.162,7.78328 -2.8954,10.98388 -2.0739,8.10673 -1.6566,16.03676 1.2523,23.78724 -1.2233,1.45637 -2.7856,2.1321 -4.6845,2.02618 -3.7394,-0.96983 -7.5368,-1.18049 -11.3952,-0.63213 -6.1498,2.66272 -12.285,5.08563 -18.4057,7.26589 -2.1703,-6.42531 -4.8717,-12.67093 -8.1048,-18.738 -1.7083,-2.4294 -3.8925,-4.2651 -6.5526,-5.50712 -1.8534,-1.89679 -2.5863,-4.12805 -2.2005,-6.69446 4.2601,-2.20404 8.2155,-4.84217 11.8693,-7.91425 3.6491,-4.89261 6.5074,-10.0674 8.5768,-15.52657 1.8053,-0.74054 3.5099,-0.55054 5.112,0.56934 7.356,8.25151 16.4986,11.71112 27.4283,10.38 z"
       id="path15-0" />
  </g>
</svg>
