<?xml version='1.0' encoding='iso-8859-1'?>
<!DOCTYPE svg PUBLIC '-//W3C//DTD SVG 1.1//EN' 'http://www.w3.org/Graphics/SVG/1.1/DTD/svg11.dtd'>
<svg version="1.1" xmlns="http://www.w3.org/2000/svg" viewBox="0 0 297 297" xmlns:xlink="http://www.w3.org/1999/xlink" enable-background="new 0 0 297 297">
  <g>
    <path d="m190.659,48.963c-7.913-32.947-16.401-48.963-25.948-48.963-9.543,0-18.027,16.016-25.938,48.961-5.64,23.487-9.569,50.854-9.569,60.726 0,19.611 15.929,35.565 35.507,35.565 19.585,0 35.519-15.954 35.519-35.565-5.68434e-14-9.874-3.931-37.24-9.571-60.724z"/>
    <path d="m104.689,124.407c5.297,11.288 15.252,19.561 26.913,22.953-10.442-9.209-17.049-22.68-17.049-37.674 0-10.871 3.813-38.487 9.974-64.146 1.442-6.008 2.981-11.925 4.684-17.571-16.446-12.805-24.465-12.829-27.637-12.829-2.812,0-5.444,0.568-7.823,1.689-16.201,7.629-12.061,33.719-6.644,55.595 5.247,21.193 13.441,43.156 17.582,51.983z"/>
    <path d="m233.131,16.83c-2.381-1.121-5.014-1.689-7.825-1.689-3.035,0-10.511,0.019-25.569,11.251 1.896,6.116 3.591,12.579 5.168,19.149 6.162,25.657 9.977,53.273 9.977,64.146 0,14.224-5.949,27.075-15.476,36.222 9.856-3.996 18.126-11.572 22.786-21.502 4.141-8.826 12.334-30.789 17.581-51.982 5.418-21.876 9.558-47.966-6.642-55.595z"/>
    <path d="m139.532,232.47v-67.614c-14.007-7.691-31.158-11.668-48.892-2.801-38.226,19.116-38.226,54.082-38.226,69.014 0,4.866 3.354,9.092 8.095,10.193 4.74,1.1 9.615-1.209 11.763-5.577 0.122-0.25 12.628-25.635 40.305-25.024 0.065,0.001 8.828,2.662 26.955,21.809z"/>
    <path d="m154.247,158.796v127.738c0,5.78 4.686,10.466 10.465,10.466 5.779,0 10.466-4.685 10.466-10.466v-127.737c-3.378,0.721-6.876,1.106-10.466,1.106-3.589,0-7.088-0.386-10.465-1.107z"/>
  </g>
</svg>
