<?xml version="1.0" encoding="iso-8859-1"?>
<!-- Generator: Adobe Illustrator 16.0.0, SVG Export Plug-In . SVG Version: 6.00 Build 0)  -->
<!DOCTYPE svg PUBLIC "-//W3C//DTD SVG 1.1//EN" "http://www.w3.org/Graphics/SVG/1.1/DTD/svg11.dtd">
<svg version="1.1" id="Capa_1" xmlns="http://www.w3.org/2000/svg" xmlns:xlink="http://www.w3.org/1999/xlink" x="0px" y="0px"
	 width="312.096px" height="312.096px" viewBox="0 0 312.096 312.096" style="enable-background:new 0 0 312.096 312.096;"
	 xml:space="preserve">
<g>
	<g>
		<path d="M146.566,36.589c12.717,18.758,14.898,44.646,13.8,66.205c6.534-10.644,16.756-19.354,32.171-21.401
			c-2.708-22.631,15.239-39.278,30.53-47.849c-0.01-0.212-0.025-0.486-0.036-0.657C220.577,27.897,205.592,0,177.774,0
			c-11.407,0-23.843,4.604-36.961,13.681c-3.568,2.47-6.628,5.145-9.284,7.985C137.372,25.549,142.431,30.484,146.566,36.589z"/>
		<path d="M40.099,78.449c12.927,0.536,40.273,4.593,49.112,28.221c5.049-1.836,10.149-2.799,15.169-2.799
			c8.787,0,16.534,2.772,23.151,6.755c5.025,3.026,9.385,6.749,13.044,10.509c2.343,2.408,4.417,4.826,6.172,7.078
			c0.324-1.877,0.652-3.977,0.971-6.172c3.132-21.56,5.211-57.18-9.942-79.521c-3.47-5.111-7.653-9.178-12.531-12.342
			c-1.479-0.961-3.021-1.836-4.634-2.62c-1.559-0.759-3.182-1.438-4.873-2.033c-3.669-1.292-7.615-2.248-11.92-2.793
			c-22.258-2.804-39.201,1.659-50.039,13.204C39.904,50.735,39.643,73.074,39.754,77.714C39.845,77.91,39.977,78.19,40.099,78.449z"
			/>
		<path d="M202.956,78.747c0.113,1.719,0.414,3.495,0.88,5.313c0.337,1.341,0.688,2.689,1.228,4.088
			c0.14,0.357,0.223,0.707,0.352,1.062c5.323,14.662,2.284,27.768-4.168,38.494c16.611-9.761,37.443-18.833,57.746-18.833
			c10.217,0,19.424,2.292,27.579,6.786c1.3-3.669,2.252-7.599,2.791-11.845c2.578-20.516-0.964-36.423-10.532-47.271
			c-13.754-15.594-36.512-16.808-43.16-16.808c-0.533,0-0.968,0.005-1.31,0.016c-0.161,0.07-0.409,0.192-0.606,0.277
			c-1.248,0.567-3.179,1.504-5.571,2.856c-1.704,0.96-3.599,2.107-5.577,3.454C213.104,52.817,201.931,63.753,202.956,78.747z"/>
		<path d="M281.912,125.207c-6.722-3.809-14.312-5.727-22.919-5.727c-25.248,0-52.63,16.5-68.951,28.257
			c-1.735,1.25-3.382,2.459-4.853,3.578c0.005,0.021,0.005,0.036,0.011,0.06c2.978,0.557,6.068,1.325,9.17,2.294
			c5.049,1.582,10.118,3.746,14.846,6.641c10.672,6.53,19.418,16.741,21.474,32.183c1.559-0.187,3.112-0.316,4.646-0.316
			c22.307,0,36.609,19.444,43.103,30.883c0.259-0.011,0.58-0.026,0.781-0.037c4.319-2.123,25.523-13.473,31.359-34.175
			c4.044-14.359-0.052-30.525-12.164-48.035c-2.449-3.542-5.085-6.623-7.906-9.274c-1.326-1.24-2.698-2.364-4.112-3.415
			C284.956,127.045,283.455,126.082,281.912,125.207z"/>
		<path d="M196.358,286.568c3.666,1.294,7.612,2.257,11.926,2.796c22.25,2.796,39.203-1.657,50.036-13.204
			c13.877-14.8,14.131-37.138,14.027-41.777c-0.093-0.197-0.223-0.477-0.347-0.735c-0.585-1.243-1.543-3.148-2.869-5.463
			c-0.994-1.734-2.18-3.661-3.572-5.686c-6.276-9.083-16.529-19.713-30.209-19.713c-0.653,0-1.331,0.155-1.994,0.202
			c-1.745,0.129-3.511,0.408-5.303,0.864c-1.361,0.353-2.718,0.673-4.096,1.212c-0.357,0.135-0.709,0.228-1.062,0.357
			c-5.049,1.833-10.149,2.801-15.177,2.801c-8.787,0-16.528-2.77-23.146-6.757c10.895,18.595,20.848,42.476,18.237,64.918
			C201.956,273.711,199.751,280.427,196.358,286.568z"/>
		<path d="M89.024,278.552c0.01,0.213,0.021,0.481,0.031,0.653c2.452,4.971,17.44,32.891,45.272,32.891
			c11.407,0,23.84-4.604,36.954-13.681c3.567-2.475,6.628-5.146,9.284-7.984c1.228-1.31,2.351-2.661,3.387-4.049
			c1.066-1.445,2.029-2.937,2.899-4.469c2.869-5.064,4.702-10.61,5.417-16.752c3.117-26.843-15.162-57.456-27.895-75.113
			c-1.274-1.761-2.507-3.438-3.641-4.93c-0.554,3.003-1.336,6.12-2.312,9.253c-1.584,5.08-3.774,10.181-6.685,14.929
			c-6.537,10.636-16.756,19.351-32.174,21.396C122.265,253.335,104.318,269.982,89.024,278.552z"/>
		<path d="M53.101,203.221c-10.216,0-19.423-2.289-27.584-6.788c-1.297,3.671-2.252,7.596-2.789,11.848
			c-2.581,20.516,0.961,36.417,10.524,47.271c13.756,15.597,36.514,16.809,43.163,16.809l0,0c0.525,0,0.965-0.006,1.31-0.016
			c0.158-0.067,0.414-0.191,0.608-0.285c1.248-0.564,3.182-1.502,5.569-2.858c1.691-0.952,3.568-2.087,5.536-3.423
			c9.518-6.473,20.723-17.424,19.692-32.43c-0.117-1.72-0.419-3.49-0.875-5.313c-0.339-1.341-0.689-2.688-1.23-4.085
			c-0.137-0.357-0.223-0.699-0.35-1.057c-5.318-14.659-2.286-27.771,4.168-38.494C94.236,194.154,73.41,203.221,53.101,203.221z"/>
		<path d="M21.589,180.562c1.326,1.237,2.698,2.361,4.109,3.412c1.447,1.077,2.949,2.04,4.492,2.91
			c6.716,3.806,14.31,5.728,22.916,5.728c25.292,0,52.659-16.503,68.962-28.258c1.755-1.264,3.42-2.49,4.906-3.624
			c-3.001-0.555-6.121-1.336-9.253-2.315c-5.048-1.579-10.128-3.749-14.846-6.638c-10.669-6.527-19.413-16.744-21.471-32.185
			c-0.052-0.389-0.142-0.743-0.184-1.14c-0.161-1.432-0.425-2.768-0.728-4.067c-0.44-1.893-1.022-3.658-1.74-5.287
			c-5.965-13.504-20.668-18.082-32.206-19.514c-2.418-0.3-4.688-0.471-6.713-0.551c-1.152-0.042-2.252-0.073-3.223-0.073
			c-1.235,0-2.186,0.031-2.954,0.062c-0.259,0.011-0.578,0.021-0.779,0.031c-4.321,2.128-25.521,13.479-31.359,34.186
			c-4.047,14.359,0.046,30.521,12.164,48.032C16.132,174.824,18.768,177.91,21.589,180.562z"/>
		<path d="M141.168,172.038c-0.917,1.698-1.808,3.36-2.651,4.981c-8.658,16.611-13.202,28.796-10.802,30.251
			c2.403,1.46,11.11-8.197,21.836-23.53c0.267-0.377,0.531-0.766,0.8-1.159c0.797-1.14,1.598-2.31,2.408-3.511
			c1.046-1.554,2.105-3.148,3.183-4.785c0.137,0.016,0.274,0.011,0.414,0.026c0.091,0.011,0.184,0.011,0.274,0.021
			c0.784,0.078,1.568,0.145,2.371,0.099c0.95-0.042,1.898-0.171,2.851-0.389c0.104-0.021,0.202-0.016,0.311-0.041
			c0.777-0.192,1.502-0.492,2.237-0.787c0.13-0.047,0.259-0.083,0.383-0.13c1.083-0.455,2.107-1.015,3.071-1.672
			c0.9,0.502,1.791,0.999,2.672,1.485c0.771,0.425,1.543,0.85,2.304,1.264c1.693,0.911,3.351,1.792,4.966,2.641
			c16.617,8.658,28.812,13.21,30.271,10.802c1.455-2.402-8.212-11.117-23.57-21.861c-1.491-1.047-3.04-2.104-4.635-3.18
			c-0.74-0.508-1.496-1.005-2.258-1.518c-0.818-0.544-1.646-1.088-2.48-1.642c0.14-1.149,0.155-2.319,0.062-3.495
			c-0.011-0.135-0.042-0.264-0.057-0.389c-0.083-0.787-0.15-1.574-0.342-2.353c-0.026-0.101-0.067-0.192-0.094-0.292
			c-0.254-0.938-0.564-1.838-0.952-2.703c-0.326-0.732-0.705-1.437-1.129-2.104c-0.052-0.081-0.088-0.171-0.135-0.251
			c-0.083-0.122-0.187-0.228-0.274-0.35c0.947-1.685,1.864-3.345,2.744-4.973c0.688-1.277,1.356-2.524,2.004-3.76
			c0.212-0.401,0.435-0.815,0.642-1.22c8.658-16.611,13.199-28.803,10.802-30.261c-2.402-1.458-11.112,8.2-21.836,23.532
			c-1.051,1.501-2.123,3.06-3.21,4.665c-0.886,1.311-1.776,2.641-2.678,4.016c-0.16,0.238-0.315,0.492-0.477,0.733
			c-0.698-0.086-1.405-0.182-2.128-0.182c-0.976,0-1.938,0.187-2.905,0.35c-0.403,0.07-0.805,0.049-1.203,0.143
			c-1.432,0.352-2.758,0.929-4.023,1.607c-0.575,0.309-1.137,0.619-1.667,0.986c-1.691-0.95-3.35-1.861-4.979-2.747
			c-0.481-0.259-0.968-0.531-1.447-0.785c-1.199-0.642-2.364-1.258-3.521-1.856c-16.617-8.658-28.811-13.214-30.271-10.807
			c-1.458,2.403,8.209,11.12,23.565,21.862c1.064,0.748,2.146,1.496,3.265,2.26c0.445,0.306,0.919,0.614,1.375,0.922
			c1.533,1.038,3.117,2.087,4.735,3.148c-0.08,0.637-0.096,1.284-0.106,1.932c-0.018,1.439,0.078,2.879,0.43,4.318
			c0.094,0.403,0.28,0.756,0.407,1.14c0.526,1.631,1.258,3.153,2.206,4.51c-0.148,0.259-0.303,0.533-0.445,0.792
			C142.69,169.236,141.921,170.641,141.168,172.038z"/>
	</g>
</g>
<g>
</g>
<g>
</g>
<g>
</g>
<g>
</g>
<g>
</g>
<g>
</g>
<g>
</g>
<g>
</g>
<g>
</g>
<g>
</g>
<g>
</g>
<g>
</g>
<g>
</g>
<g>
</g>
<g>
</g>
</svg>
