<?xml version="1.0" encoding="UTF-8" standalone="no"?>
<svg
   version="1.1"
   id="Capa_1"
   x="0px"
   y="0px"
   viewBox="0 0 308.19437 363.78711"
   xml:space="preserve"
   width="308.19437"
   height="363.78711"
   xmlns="http://www.w3.org/2000/svg"
   xmlns:svg="http://www.w3.org/2000/svg"><defs
     id="defs1" /><g
     id="g1"
     transform="translate(-29.598976,1.3515625)"><defs
   id="defs15" />
<path
   id="path18"
   d="m 140.24219,-1.3515625 c -22.629,0 -43.074424,12.5142035 -53.357424,32.6582035 -3.479,6.814 -5.618735,14.269468 -6.302735,21.855468 -1.224,-0.15 -2.459125,-0.228515 -3.703125,-0.228515 -16.542,0 -30,13.458 -30,30 0,4.913003 1.163391,9.632672 3.400391,13.888672 -6.262,4.705994 -11.386563,10.789264 -14.976563,17.822264 -6.286,12.313 -7.4185,26.35883 -3.1875,39.54883 4.122,12.85 12.847532,23.35603 24.644532,29.70703 -5.428,17.313 2.504359,36.94439 19.068359,45.40039 5.372,2.742 11.1555,4.13086 17.1875,4.13086 4.482,0 8.954785,-0.80198 13.175785,-2.33398 4.72,9.942 12.53844,18.01826 22.43945,23.07226 7.09699,3.622 14.74442,5.44336 22.73242,5.44336 5.977,0 11.92663,-1.10534 17.51563,-3.15234 v 77.97461 H 139.75 c -4.414,0 -7.87109,3.45428 -7.87109,7.86328 v 12.29492 c 0,4.397 3.45709,7.8418 7.87109,7.8418 h 87.0918 c 4.506,0 8.03711,-3.4438 8.03711,-7.8418 v -12.29492 c 0,-4.336 -3.60611,-7.86328 -8.03711,-7.86328 h -28.96289 v -78.38867 l 1.91211,0.96874 1.08593,0.41993 h 0.44727 c 8.119,4 16.78906,6.02148 25.78906,6.02148 22.641,0 43.09577,-12.45633 53.38477,-32.61133 3.102,-6.077 5.11562,-12.43761 6.01562,-19.09961 1.114,0.125 2.23824,0.1875 3.36524,0.1875 16.542,0 30,-13.458 30,-30 0,-5.501 -1.49707,-10.82789 -4.28907,-15.46289 6.957,-4.831 12.60391,-11.29063 16.50391,-18.93164 6.286,-12.311 7.41478,-26.34934 3.17578,-39.52734 -4.146,-12.894002 -12.93922,-23.427579 -24.82422,-29.767579 0.106,-0.198 0.2095,-0.39761 0.3125,-0.59961 9.546,-18.699 2.06803,-41.692812 -16.66797,-51.257812 -5.336,-2.725 -11.30943,-4.164063 -17.27343,-4.164063 -6.267,0 -12.49939,1.579672 -18.02539,4.513672 -4.799,-7.972 -11.6485,-14.36125 -20.0625,-18.6562499 -7.09,-3.619 -14.7328,-5.453125 -22.7168,-5.453125 -11.464,0 -22.84042,3.9899217 -31.73242,11.0449219 L 167.55664,5.1386719 c -0.365,-0.187 -0.7543,-0.3269219 -1.1543,-0.4199219 -8.227,-4.02799995 -17.02215,-6.0703125 -26.16015,-6.0703125 z M 252.57812,71.376953 c 0.84292,-0.0011 1.69762,0.11931 2.54102,0.369141 0.69565,0.206168 1.22656,0.766827 1.39453,1.472656 0.91003,3.823844 -0.80231,7.887043 -4.34765,9.853516 3.654,4.007578 6.17853,11.000403 7.39453,16.298828 0.38891,1.694976 1.01372,3.230056 1.85547,4.564456 6.3135,10.00811 -3.81084,23.47092 -15.45899,23.4707 -11.60733,0 -21.78518,-13.43853 -15.45898,-23.46875 0.83736,-1.32762 1.46879,-2.89196 1.875,-4.648438 1.36011,-5.882129 4.677,-15.085675 9.78906,-18.291015 l -2.98438,-2.986328 c -0.79151,-0.791514 -0.79151,-2.073721 0,-2.865235 0.79152,-0.791513 2.07383,-0.791513 2.86524,0 l 2.16015,2.158204 c 1.29404,-3.660888 4.72235,-5.922791 8.375,-5.927735 z m 0.1211,4.056641 c -2.65162,-0.05876 -4.8296,1.994719 -4.95117,4.625 0.0847,0.02068 0.16931,0.04288 0.2539,0.06641 2.57809,-0.06861 4.61487,-2.144621 4.69727,-4.691406 z M 109.41797,78.65625 c 0.1464,0.01007 0.29199,0.03432 0.43555,0.07617 2.67582,0.784244 4.81434,2.247482 6.37695,4.365234 0.87089,1.177835 1.47647,2.459612 1.89062,3.734375 0.88265,-2.473158 3.18264,-6.48553 8.86914,-7.365234 0.62711,-0.09693 1.26444,0.09557 1.72852,0.527344 0.46555,0.430306 0.70667,1.050618 0.6582,1.683593 -0.15714,2.047258 -1.19836,5.005644 -5.32812,7.177735 2.67289,-0.371561 5.08304,-0.46682 7.1582,0.871093 4.5351,2.922557 6.91086,8.494426 5.11914,18.82617 -1.61695,9.32281 -7.77738,14.4893 -11.56055,16.75391 H 107.7793 c -3.27943,-1.91949 -9.503529,-7.71739 -12.119144,-16.2207 -3.251527,-10.550582 1.080756,-17.49855 6.701174,-20.152348 5.5602,-2.627364 8.27744,-0.276462 12.03711,0.519531 -0.2717,-1.305604 -0.76536,-2.667899 -1.62891,-3.833984 -0.99426,-1.340852 -2.34314,-2.255015 -4.09961,-2.773438 -0.97663,-0.28785 -1.59264,-1.240573 -1.45312,-2.248047 l 0.0234,-0.175781 c 0.0823,-0.591854 0.41961,-1.116841 0.92188,-1.441406 0.3756,-0.243424 0.81665,-0.35444 1.25586,-0.324219 z m -4.07031,13.333984 c -0.27666,0.02364 -0.55219,0.102184 -0.8125,0.240235 -2.74633,1.446592 -7.404669,6.102952 -5.363285,13.347651 0.264352,0.94434 1.121615,1.56055 2.058595,1.56055 0.19092,0 0.38866,-0.0267 0.58398,-0.0781 1.13818,-0.3231 1.80015,-1.5044 1.47852,-2.64258 -1.57143,-5.579295 2.73745,-8.131604 3.25,-8.412111 1.03831,-0.555138 1.43501,-1.842544 0.88281,-2.880859 -0.41525,-0.782041 -1.24817,-1.205672 -2.07812,-1.134766 z m 131.8457,19.023436 c -0.26328,10e-4 -0.53187,0.0556 -0.78906,0.16602 -1.02865,0.44144 -1.50395,1.63346 -1.0625,2.66211 0.83145,1.93692 2.26414,3.75294 4.0332,5.11328 0.88738,0.68263 2.15971,0.51606 2.8418,-0.3711 0.68241,-0.88726 0.51628,-2.1596 -0.3711,-2.84179 -1.21129,-0.93159 -2.22459,-2.20806 -2.77929,-3.5 -0.33109,-0.77149 -1.08321,-1.23274 -1.87305,-1.22852 z m -24.72852,39.91211 c 0.62234,-0.0613 1.22091,0.24826 1.53321,0.79297 0.30996,0.54244 0.27116,1.22043 -0.0977,1.72656 -5.41056,7.41941 -8.2886,16.38566 -8.25,25.53907 1.44348,-0.23923 4.29321,-2.1347 8.00586,-1.16602 2.48502,0.64843 4.6946,2.26349 5.92383,4.53516 0.72356,1.33749 1.07068,2.84914 1.14648,4.40429 0.11892,2.43689 -0.42921,4.97971 -1.24218,7.1211 -2.36814,6.23625 -8.1772,11.51173 -15.08594,11.51171 -3.64343,0 -7.00369,-1.46142 -9.7168,-3.79687 0.032,0.0275 2.22187,-3.4475 2.75977,-7.9375 0.33136,-2.76576 0.0853,-5.99766 -0.95508,-8.23437 -1.50113,-3.22764 -5.11404,-5.73161 -5.4336,-5.4336 1.64525,-1.53427 3.84961,-2.47656 6.27539,-2.47656 1.26486,0 2.46914,0.25379 3.56446,0.7168 0.49546,0.261 1.02856,0.4677 1.58984,0.61523 -0.009,-8.57238 2.36493,-16.98598 6.84766,-24.27148 -15.50086,2.81207 -26.6588,13.69022 -29.0957,28.05468 0.835,-0.13164 1.61977,-0.39113 2.32812,-0.76562 1.0951,-0.46301 2.29959,-0.71875 3.56445,-0.71875 0.10373,0 0.20705,0.003 0.31055,0.006 3.3073,0.10985 6.36766,2.05393 7.88672,5.00195 1.8039,3.50068 1.10871,8.10331 -0.28711,11.62305 -2.42577,6.11709 -8.17309,11.24804 -14.98242,11.24804 -4.25169,0 -8.22163,-2.05538 -11.10157,-5.11914 -4.38355,-4.66295 -7.67377,-13.7395 -3.125,-19.3457 1.74081,-2.14548 4.39626,-3.41406 7.1543,-3.41406 1.26487,0 2.46913,0.25379 3.56446,0.7168 0.46844,0.24739 0.97275,0.44654 1.5,0.59179 2.69745,-17.01766 16.50698,-29.63025 35.41796,-31.52539 z m -42.00976,35.39844 c -1.7492,0 -3.16797,1.42331 -3.16797,3.17773 0,1.75442 1.41877,3.17774 3.16797,3.17774 1.7492,0 3.16797,-1.42332 3.16797,-3.17774 0,-1.75442 -1.41877,-3.17773 -3.16797,-3.17773 z" />















</g></svg>
