<?xml version="1.0" encoding="UTF-8" standalone="no"?>
<!-- Generator: Adobe Illustrator 17.1.0, SVG Export Plug-In . SVG Version: 6.00 Build 0)  -->

<svg
   version="1.1"
   id="Capa_1"
   x="0px"
   y="0px"
   viewBox="0 0 363.787 363.787"
   style="enable-background:new 0 0 363.787 363.787;"
   xml:space="preserve"
   sodipodi:docname="fruit-tree.svg"
   inkscape:version="1.4 (86a8ad7, 2024-10-11)"
   xmlns:inkscape="http://www.inkscape.org/namespaces/inkscape"
   xmlns:sodipodi="http://sodipodi.sourceforge.net/DTD/sodipodi-0.dtd"
   xmlns="http://www.w3.org/2000/svg"
   xmlns:svg="http://www.w3.org/2000/svg"><defs
   id="defs15" /><sodipodi:namedview
   id="namedview15"
   pagecolor="#ffffff"
   bordercolor="#000000"
   borderopacity="0.25"
   inkscape:showpageshadow="2"
   inkscape:pageopacity="0.0"
   inkscape:pagecheckerboard="true"
   inkscape:deskcolor="#d1d1d1"
   inkscape:zoom="2.2183311"
   inkscape:cx="182.11889"
   inkscape:cy="197.22033"
   inkscape:window-width="1920"
   inkscape:window-height="1009"
   inkscape:window-x="-8"
   inkscape:window-y="-8"
   inkscape:window-maximized="1"
   inkscape:current-layer="Capa_1" />
<path
   id="path18"
   d="M 140.24219 -1.3515625 C 117.61319 -1.3515625 97.167766 11.162641 86.884766 31.306641 C 83.405766 38.120641 81.266031 45.576109 80.582031 53.162109 C 79.358031 53.012109 78.122906 52.933594 76.878906 52.933594 C 60.336906 52.933594 46.878906 66.391594 46.878906 82.933594 C 46.878906 87.846597 48.042297 92.566266 50.279297 96.822266 C 44.017297 101.52826 38.892734 107.61153 35.302734 114.64453 C 29.016734 126.95753 27.884234 141.00336 32.115234 154.19336 C 36.237234 167.04336 44.962766 177.54939 56.759766 183.90039 C 51.331766 201.21339 59.264125 220.84478 75.828125 229.30078 C 81.200125 232.04278 86.983625 233.43164 93.015625 233.43164 C 97.497625 233.43164 101.97041 232.62966 106.19141 231.09766 C 110.91141 241.03966 118.72985 249.11592 128.63086 254.16992 C 135.72785 257.79192 143.37528 259.61328 151.36328 259.61328 C 157.34028 259.61328 163.28991 258.50794 168.87891 256.46094 L 168.87891 334.43555 L 139.75 334.43555 C 135.336 334.43555 131.87891 337.88983 131.87891 342.29883 L 131.87891 354.59375 C 131.87891 358.99075 135.336 362.43555 139.75 362.43555 L 226.8418 362.43555 C 231.3478 362.43555 234.87891 358.99175 234.87891 354.59375 L 234.87891 342.29883 C 234.87891 337.96283 231.2728 334.43555 226.8418 334.43555 L 197.87891 334.43555 L 197.87891 256.04688 L 199.79102 257.01562 L 200.87695 257.43555 L 201.32422 257.43555 C 209.44322 261.43555 218.11328 263.45703 227.11328 263.45703 C 249.75428 263.45703 270.20905 251.0007 280.49805 230.8457 C 283.60005 224.7687 285.61367 218.40809 286.51367 211.74609 C 287.62767 211.87109 288.75191 211.93359 289.87891 211.93359 C 306.42091 211.93359 319.87891 198.47559 319.87891 181.93359 C 319.87891 176.43259 318.38184 171.1057 315.58984 166.4707 C 322.54684 161.6397 328.19375 155.18007 332.09375 147.53906 C 338.37975 135.22806 339.50853 121.18972 335.26953 108.01172 C 331.12353 95.117718 322.33031 84.584141 310.44531 78.244141 C 310.55131 78.046141 310.65481 77.846531 310.75781 77.644531 C 320.30381 58.945531 312.82584 35.951719 294.08984 26.386719 C 288.75384 23.661719 282.78041 22.222656 276.81641 22.222656 C 270.54941 22.222656 264.31702 23.802328 258.79102 26.736328 C 253.99202 18.764328 247.14252 12.375078 238.72852 8.0800781 C 231.63852 4.4610781 223.99572 2.6269531 216.01172 2.6269531 C 204.54772 2.6269531 193.1713 6.6168748 184.2793 13.671875 L 167.55664 5.1386719 C 167.19164 4.9516719 166.80234 4.81175 166.40234 4.71875 C 158.17534 0.69075005 149.38019 -1.3515625 140.24219 -1.3515625 z M 252.57812 71.376953 C 253.42104 71.375812 254.27574 71.496263 255.11914 71.746094 C 255.81479 71.952262 256.3457 72.512921 256.51367 73.21875 C 257.4237 77.042594 255.71136 81.105793 252.16602 83.072266 C 255.82002 87.079844 258.34455 94.072669 259.56055 99.371094 C 259.94946 101.06607 260.57427 102.60115 261.41602 103.93555 C 267.72952 113.94366 257.60518 127.40647 245.95703 127.40625 C 234.3497 127.40625 224.17185 113.96772 230.49805 103.9375 C 231.33541 102.60988 231.96684 101.04554 232.37305 99.289062 C 233.73316 93.406933 237.05005 84.203387 242.16211 80.998047 L 239.17773 78.011719 C 238.38622 77.220205 238.38622 75.937998 239.17773 75.146484 C 239.96925 74.354971 241.25156 74.354971 242.04297 75.146484 L 244.20312 77.304688 C 245.49716 73.6438 248.92547 71.381897 252.57812 71.376953 z M 252.69922 75.433594 C 250.0476 75.374829 247.86962 77.428313 247.74805 80.058594 C 247.83275 80.079276 247.91736 80.101472 248.00195 80.125 C 250.58004 80.056387 252.61682 77.980379 252.69922 75.433594 z M 109.41797 78.65625 C 109.56437 78.666324 109.70996 78.690566 109.85352 78.732422 C 112.52934 79.516666 114.66786 80.979904 116.23047 83.097656 C 117.10136 84.275491 117.70694 85.557268 118.12109 86.832031 C 119.00374 84.358873 121.30373 80.346501 126.99023 79.466797 C 127.61734 79.369868 128.25467 79.562366 128.71875 79.994141 C 129.1843 80.424447 129.42542 81.044759 129.37695 81.677734 C 129.21981 83.724992 128.17859 86.683378 124.04883 88.855469 C 126.72172 88.483908 129.13187 88.388649 131.20703 89.726562 C 135.74213 92.649119 138.11789 98.220988 136.32617 108.55273 C 134.70922 117.87554 128.54879 123.04203 124.76562 125.30664 L 107.7793 125.30664 C 104.49987 123.38715 98.275771 117.58925 95.660156 109.08594 C 92.408629 98.53536 96.740912 91.587392 102.36133 88.933594 C 107.92153 86.30623 110.63877 88.657132 114.39844 89.453125 C 114.12674 88.147521 113.63308 86.785226 112.76953 85.619141 C 111.77527 84.278289 110.42639 83.364126 108.66992 82.845703 C 107.69329 82.557853 107.07728 81.60513 107.2168 80.597656 L 107.24023 80.421875 C 107.32248 79.830021 107.65984 79.305034 108.16211 78.980469 C 108.53771 78.737045 108.97876 78.626029 109.41797 78.65625 z M 105.34766 91.990234 C 105.071 92.01387 104.79547 92.092418 104.53516 92.230469 C 101.78883 93.677061 97.130491 98.333421 99.171875 105.57812 C 99.436227 106.52246 100.29349 107.13867 101.23047 107.13867 C 101.42139 107.13867 101.61913 107.11195 101.81445 107.06055 C 102.95263 106.73745 103.6146 105.55615 103.29297 104.41797 C 101.72154 98.838675 106.03042 96.286366 106.54297 96.005859 C 107.58128 95.450721 107.97798 94.163315 107.42578 93.125 C 107.01053 92.342959 106.17761 91.919328 105.34766 91.990234 z M 237.19336 111.01367 C 236.93008 111.01508 236.66149 111.06927 236.4043 111.17969 C 235.37565 111.62113 234.90035 112.81315 235.3418 113.8418 C 236.17325 115.77872 237.60594 117.59474 239.375 118.95508 C 240.26238 119.63771 241.53471 119.47114 242.2168 118.58398 C 242.89921 117.69672 242.73308 116.42438 241.8457 115.74219 C 240.63441 114.8106 239.62111 113.53413 239.06641 112.24219 C 238.73532 111.4707 237.9832 111.00945 237.19336 111.01367 z M 212.46484 150.92578 C 213.08718 150.8645 213.68575 151.17404 213.99805 151.71875 C 214.30801 152.26119 214.26921 152.93918 213.90039 153.44531 C 208.48983 160.86472 205.61179 169.83097 205.65039 178.98438 C 207.09387 178.74515 209.9436 176.84968 213.65625 177.81836 C 216.14127 178.46679 218.35085 180.08185 219.58008 182.35352 C 220.30364 183.69101 220.65076 185.20266 220.72656 186.75781 C 220.84548 189.1947 220.29735 191.73752 219.48438 193.87891 C 217.11624 200.11516 211.30718 205.39064 204.39844 205.39062 C 200.75501 205.39062 197.39475 203.9292 194.68164 201.59375 C 194.71364 201.62122 196.90351 198.14625 197.44141 193.65625 C 197.77277 190.89049 197.52673 187.65859 196.48633 185.42188 C 194.9852 182.19424 191.37229 179.69027 191.05273 179.98828 C 192.69798 178.45401 194.90234 177.51172 197.32812 177.51172 C 198.59298 177.51172 199.79726 177.76551 200.89258 178.22852 C 201.38804 178.48952 201.92114 178.69622 202.48242 178.84375 C 202.47334 170.27137 204.84735 161.85777 209.33008 154.57227 C 193.82922 157.38434 182.67128 168.26249 180.23438 182.62695 C 181.06938 182.49531 181.85415 182.23582 182.5625 181.86133 C 183.6576 181.39832 184.86209 181.14258 186.12695 181.14258 C 186.23068 181.14258 186.334 181.14544 186.4375 181.14844 C 189.7448 181.25829 192.80516 183.20237 194.32422 186.15039 C 196.12812 189.65107 195.43293 194.2537 194.03711 197.77344 C 191.61134 203.89053 185.86402 209.02148 179.05469 209.02148 C 174.803 209.02148 170.83306 206.9661 167.95312 203.90234 C 163.56957 199.23939 160.27935 190.16284 164.82812 184.55664 C 166.56893 182.41116 169.22438 181.14258 171.98242 181.14258 C 173.24729 181.14258 174.45155 181.39637 175.54688 181.85938 C 176.01532 182.10677 176.51963 182.30592 177.04688 182.45117 C 179.74433 165.43351 193.55386 152.82092 212.46484 150.92578 z M 170.45508 186.32422 C 168.70588 186.32422 167.28711 187.74753 167.28711 189.50195 C 167.28711 191.25637 168.70588 192.67969 170.45508 192.67969 C 172.20428 192.67969 173.62305 191.25637 173.62305 189.50195 C 173.62305 187.74753 172.20428 186.32422 170.45508 186.32422 z " />















</svg>
