<?xml version="1.0" encoding="UTF-8" standalone="no"?>
<!-- Generator: Adobe Illustrator 17.1.0, SVG Export Plug-In . SVG Version: 6.00 Build 0)  -->

<svg
   version="1.1"
   id="Capa_1"
   x="0px"
   y="0px"
   viewBox="0 0 128 128"
   xml:space="preserve"
   sodipodi:docname="fruit-tree.svg"
   inkscape:version="1.4 (86a8ad7, 2024-10-11)"
   width="363.78699"
   height="363.78699"
   xmlns:inkscape="http://www.inkscape.org/namespaces/inkscape"
   xmlns:sodipodi="http://sodipodi.sourceforge.net/DTD/sodipodi-0.dtd"
   xmlns="http://www.w3.org/2000/svg"
   xmlns:svg="http://www.w3.org/2000/svg"><defs
   id="defs15" /><sodipodi:namedview
   id="namedview15"
   pagecolor="#ffffff"
   bordercolor="#000000"
   borderopacity="0.25"
   inkscape:showpageshadow="2"
   inkscape:pageopacity="0.0"
   inkscape:pagecheckerboard="true"
   inkscape:deskcolor="#d1d1d1"
   showgrid="false"
   inkscape:zoom="0.78429849"
   inkscape:cx="46.538404"
   inkscape:cy="328.31888"
   inkscape:window-width="1920"
   inkscape:window-height="1009"
   inkscape:window-x="-8"
   inkscape:window-y="-8"
   inkscape:window-maximized="1"
   inkscape:current-layer="Capa_1" />
<path
   id="path1"
   style="stroke-width:0.347215;fill:#000000"
   d="m 48.912315,0.84383003 c -7.857104,0 -14.955838,4.34504097 -18.526239,11.33931697 -1.207951,2.365916 -1.951372,4.954379 -2.18887,7.588352 -0.424985,-0.05207 -0.853109,-0.07835 -1.285053,-0.07835 -5.743611,0 -10.416919,4.672501 -10.416919,10.416113 0,1.705866 0.404144,3.344227 1.180857,4.821974 -2.174256,1.633983 -3.953476,3.746658 -5.199979,6.188606 -2.182589,4.275243 -2.5764195,9.15198 -1.107358,13.731726 1.431217,4.461696 4.461504,8.109187 8.557593,10.314343 -1.884681,6.011303 0.869476,12.827859 6.620726,15.763901 1.86524,0.952061 3.872903,1.434479 5.967296,1.434479 1.556212,0 3.109223,-0.278197 4.574818,-0.810125 1.638849,3.451999 4.354139,6.255153 7.791892,8.009971 2.464186,1.257609 5.119312,1.89002 7.892856,1.89002 2.075293,0 4.140602,-0.382884 6.081181,-1.093625 V 117.43387 H 48.741891 c -1.532601,0 -2.733262,1.19915 -2.733262,2.73003 v 4.2695 c 0,1.5267 1.200661,2.72277 2.733262,2.72277 H 78.98141 c 1.564545,0 2.790607,-1.19572 2.790607,-2.72277 v -4.2695 c 0,-1.50552 -1.252095,-2.73003 -2.790607,-2.73003 H 68.924725 V 90.216762 l 0.66393,0.336005 0.377197,0.145387 h 0.155078 c 2.819028,1.388857 5.829244,2.091136 8.954173,2.091136 7.861265,0 14.963451,-4.325066 18.535933,-11.323161 1.077055,-2.110024 1.77622,-4.318093 2.088715,-6.631226 0.386799,0.04337 0.777429,0.06462 1.168739,0.06462 5.74362,0 10.41611,-4.672502 10.41611,-10.416114 0,-1.910019 -0.51997,-3.759451 -1.4894,-5.368788 2.41557,-1.677388 4.37652,-3.92082 5.73064,-6.573879 2.18259,-4.27455 2.57435,-9.148063 1.10252,-13.723649 -1.43955,-4.476976 -4.49235,-8.134814 -8.61899,-10.33615 0.0367,-0.06875 0.0724,-0.138244 0.10825,-0.208387 3.31451,-6.492553 0.71823,-14.475784 -5.78718,-17.796886 -1.85273,-0.9461491 -3.927191,-1.4457855 -5.997984,-1.4457855 -2.175983,0 -4.339362,0.5474078 -6.258067,1.5661335 C 88.408108,7.8280292 86.029425,5.6103442 83.107968,4.1190571 80.646228,2.8624941 77.99291,2.224998 75.220767,2.224998 c -3.98046,0 -7.930427,1.3861849 -11.017851,3.8357731 L 58.396341,3.0973163 C 58.269617,3.0324384 58.134609,2.9842148 57.995721,2.9519299 55.139201,1.5533524 52.085151,0.84383003 48.912315,0.84383003 Z M 56.885132,19.673766 c 0.164906,0.0114 0.33019,0.04009 0.491891,0.08723 3.013985,0.883353 5.42199,2.531095 7.182077,4.916477 0.980952,1.326682 1.662611,2.769031 2.1291,4.204892 0.994186,-2.785704 3.584515,-7.305022 9.989647,-8.295898 0.706352,-0.109176 1.424635,0.10974 1.947367,0.596084 0.524388,0.484684 0.797675,1.182705 0.743085,1.895674 -0.177,2.305979 -1.350366,5.637692 -6.002026,8.08428 3.010677,-0.418518 5.725063,-0.524828 8.062473,0.982164 5.108225,3.291893 7.783516,9.566346 5.765369,21.203769 C 85.372822,63.849415 78.43524,69.67038 74.173975,72.221183 H 55.041151 C 51.347283,70.05912 44.336358,63.528907 41.390195,53.950985 c -3.662438,-11.883902 1.216467,-19.71046 7.547159,-22.699632 6.26287,-2.959395 9.32408,-0.312617 13.558878,0.583969 -0.30603,-1.4706 -0.86161,-3.003714 -1.834289,-4.317163 -1.119906,-1.510301 -2.639991,-2.541055 -4.618434,-3.124995 -1.100056,-0.324227 -1.795169,-1.398158 -1.638019,-2.532951 l 0.02826,-0.196271 c 0.09264,-0.66665 0.471344,-1.259512 1.037087,-1.625095 0.423067,-0.274186 0.91957,-0.39912 1.414285,-0.365081 z m -4.583703,15.020817 c -0.311614,0.02663 -0.622724,0.115088 -0.915933,0.27058 -3.093387,1.629405 -8.339352,6.873484 -6.039989,15.033741 0.29776,1.063661 1.264326,1.758364 2.319718,1.758364 0.215048,0 0.43665,-0.03014 0.656661,-0.08804 1.282019,-0.363928 2.027753,-1.695168 1.665479,-2.977187 -1.770012,-6.284373 3.08318,-9.159186 3.660502,-9.475141 1.169533,-0.625295 1.616266,-2.076618 0.99428,-3.246151 -0.46773,-0.880871 -1.405878,-1.356036 -2.340718,-1.276166 z" />















</svg>
