<?xml version="1.0" standalone="no"?>
<!DOCTYPE svg PUBLIC "-//W3C//DTD SVG 20010904//EN" "http://www.w3.org/TR/2001/REC-SVG-20010904/DTD/svg10.dtd">
<!-- Created using Krita: https://krita.org -->
<svg xmlns="http://www.w3.org/2000/svg" 
    xmlns:xlink="http://www.w3.org/1999/xlink"
    xmlns:krita="http://krita.org/namespaces/svg/krita"
    xmlns:sodipodi="http://sodipodi.sourceforge.net/DTD/sodipodi-0.dtd"
    width="272.88pt"
    height="272.88pt"
    viewBox="0 0 272.88 272.88">
<defs/>
<path id="shape0" transform="translate(4.32, 4.31999999999999)" fill="#000000" fill-rule="evenodd" stroke="none" stroke-width="1" stroke-linecap="square" stroke-linejoin="miter" stroke-miterlimit="2" d="M117.36 0C119.64 0.899 129.24 3.299 146.16 7.2C155.232 7.2 161.712 7.2 165.6 7.2C168.724 12.975 167.824 32.4 167.76 32.4C167.544 34.344 163.796 43.6266 169.92 67.68C179.547 54.1747 177.84 40.68 177.84 39.6C177.984 39.6 178.373 8.12521 179.28 7.2C180.624 7.2 194.976 7.92 198 7.92C198 8.352 198.216 23.04 198 23.04C198 38.16 198 45.72 198 55.44C198.224 55.44 198.464 56.4 198.72 58.32C200.016 55.92 200.736 54.72 200.88 54.72C200.88 54.528 203.52 47.568 208.8 33.84L213.84 12.24L221.04 11.52C224.112 12.96 225.792 13.68 226.08 13.68C223.605 18.7522 214.119 49.95 213.975 49.95C213.975 50.598 208.08 63.024 208.08 63.36C207.864 63.36 203.073 69.2485 198.72 80.64C198.72 81.984 193.172 97.7579 192.072 100.304C187.932 115.1 186.696 147.6 186.48 147.6C186.48 171.12 184.5 163.8 186.3 176.22C186.709 182.497 189.009 207.54 191.07 212.31C191.409 213.388 193.075 219.354 199.44 222.48C203.455 224.452 209.93 225.71 216.99 228.24C219.973 229.309 223.859 233.805 230.4 236.16C232.757 237.009 247.824 234 249.12 234C249.12 233.776 256.645 236.247 259.02 238.41C263.144 242.168 264.24 246.096 264.24 246.24C264.016 246.24 259.696 244.8 251.28 241.92C245.432 242.162 241.086 243.355 238.242 245.497C237.383 246.286 228.372 245.115 226.087 252.529C229.192 256.89 241.2 258.264 241.2 258.48C242.88 258.48 246.96 261.936 246.96 262.8C241.533 259.3 229.01 261.855 226.35 262.958C221.985 263.012 200.93 261.696 200.16 261.36C192.808 258.156 164.385 260.931 164.385 260.595C167.947 228.258 157.741 212.137 138.774 182.208C140.735 173.673 134.348 188.1 132.12 188.1C96.0322 211.093 80.081 235.051 84.2663 259.975C71.8648 259.458 65.376 259.2 64.8 259.2C64.8 259.104 56.2204 256.708 51.0075 259.133C50.0896 259.559 40.624 259.2 39.6 259.2C39.6 258.984 32.328 256.32 31.68 256.32C31.68 255.984 28.368 254.88 27.36 254.88C27.36 254.736 22.0852 252.762 13.7536 254.439C10.7629 255.04 6.17839 257.108 0 260.64C3.56532 253.754 7.30134 249.502 11.2081 247.884C18.7964 244.741 25.392 245.52 33.12 245.52C33.12 245.736 38.16 246.24 40.32 246.24C45.6975 243.869 45.8666 240.677 46.6076 239.261C49.3759 235.95 52.614 230.58 56.16 227.52C57.95 226.121 63.595 220.072 68.22 206.46C71.6413 196.39 72.72 189.648 72.72 187.92C72.864 187.92 73.104 187.92 73.44 187.92L72 154.08C69.744 143.52 68.544 138.24 68.4 138.24C68.4 137.52 62.4847 99.3262 60.2775 94.9725C59.7937 94.4422 54.816 57.6 54.72 57.6C54.72 54.144 53.52 41.184 51.12 18.72C54.1674 16.7117 57.2874 15.9917 60.48 16.56C60.624 16.56 63.36 27.12 63.36 28.8C63.576 28.8 67.5005 45.7315 67.911 46.8462C70.9146 55.0047 77.808 58.32 78.48 58.32C78.48 54.432 78.3721 38.0526 73.44 10.08C79.709 5.32824 89.789 1.96824 103.68 0" sodipodi:nodetypes="cccccccccccccccccccccccssscscccccccscccccscccscsccccscccccccccsccc"/>
</svg>
