<?xml version="1.0" encoding="utf-8"?>

<!DOCTYPE svg PUBLIC "-//W3C//DTD SVG 1.0//EN" "http://www.w3.org/TR/2001/REC-SVG-20010904/DTD/svg10.dtd">
<!-- Uploaded to: SVG Repo, www.svgrepo.com, Generator: SVG Repo Mixer Tools -->
<svg version="1.0" id="Layer_1" xmlns="http://www.w3.org/2000/svg" xmlns:xlink="http://www.w3.org/1999/xlink" 
	 width="800px" height="800px" viewBox="0 0 64 64" enable-background="new 0 0 64 64" xml:space="preserve">
<path fill="#231F20" d="M60.893,1.549c-0.136-0.269-0.386-0.462-0.679-0.525c-2.98-0.652-6.97-0.982-11.856-0.982
	c-4.922,0-10.564,0.353-15.481,0.967C17.641,2.912,7,13.601,7,27v18.678L3.103,60.225c-0.428,1.598,0.523,3.244,2.122,3.674
	c1.598,0.426,3.245-0.525,3.673-2.121L11.25,53H31c14.337,0,26-11.663,26-26c0-6.663,0-15.788,3.914-24.594
	C61.036,2.132,61.028,1.816,60.893,1.549z M6.966,61.26c-0.143,0.532-0.691,0.849-1.224,0.707c-0.534-0.145-0.851-0.691-0.708-1.225
	l2.552-9.686c0.405,0.672,0.998,1.212,1.712,1.55L6.966,61.26z M52.347,8.938c-0.073,0.027-6.014,2.301-14.545,9.321
	c5.572-0.588,10.233,0.712,10.473,0.779c0.531,0.152,0.838,0.705,0.687,1.235C48.836,20.713,48.436,21,48,21
	c-0.091,0-0.183-0.013-0.274-0.038c-0.064-0.019-6.464-1.784-12.916-0.135c-1.325,1.187-2.692,2.47-4.103,3.88
	c-1.642,1.643-3.115,3.228-4.456,4.752c10.211-2.021,19.587,0.46,20.012,0.576c0.533,0.146,0.847,0.694,0.702,1.228
	C46.844,31.708,46.44,32,46,32c-0.087,0-0.175-0.012-0.263-0.035c-0.107-0.029-10.88-2.889-21.475,0
	c-0.051,0.014-0.103,0.016-0.154,0.021c-2.702,3.302-4.692,6.203-6.108,8.52c10.2-2.115,18.897,0.418,19.287,0.536
	c0.529,0.159,0.829,0.716,0.671,1.244C37.828,42.72,37.431,43,37,43c-0.095,0-0.191-0.014-0.287-0.042
	c-0.097-0.028-9.653-2.805-20.092-0.079c-1.184,2.166-1.671,3.434-1.684,3.468C14.788,46.75,14.406,47,14,47
	c-0.115,0-0.232-0.021-0.347-0.062c-0.518-0.191-0.782-0.766-0.592-1.283c0.057-0.152,0.627-1.652,2.01-4.141
	c1.837-9.547-0.028-18.21-0.048-18.297c-0.119-0.539,0.221-1.073,0.76-1.192c0.543-0.127,1.073,0.22,1.193,0.759
	c0.069,0.312,1.422,6.557,0.713,14.457c1.414-2.121,3.204-4.565,5.464-7.261c1.693-10.294-0.111-18.677-0.13-18.763
	c-0.119-0.539,0.221-1.073,0.76-1.193c0.539-0.116,1.073,0.221,1.193,0.76c0.073,0.33,1.569,7.275,0.571,16.458
	c1.154-1.277,2.388-2.591,3.745-3.948c1.285-1.285,2.529-2.454,3.744-3.557v-0.008c1.873-6.556,0.052-11.312,0.033-11.359
	c-0.202-0.513,0.049-1.094,0.562-1.297c0.51-0.206,1.092,0.044,1.297,0.557c0.075,0.188,1.599,4.106,0.657,9.863
	C44.85,9.642,51.328,7.182,51.654,7.062c0.518-0.188,1.092,0.073,1.283,0.592C53.129,8.171,52.864,8.746,52.347,8.938z"/>
</svg>