<?xml version="1.0" encoding="iso-8859-1"?>
<!-- Generator: Adobe Illustrator 16.0.0, SVG Export Plug-In . SVG Version: 6.00 Build 0)  -->
<!DOCTYPE svg PUBLIC "-//W3C//DTD SVG 1.1//EN" "http://www.w3.org/Graphics/SVG/1.1/DTD/svg11.dtd">
<svg version="1.1" id="Capa_1" xmlns="http://www.w3.org/2000/svg" xmlns:xlink="http://www.w3.org/1999/xlink" x="0px" y="0px"
	 width="330.18px" height="330.18px" viewBox="0 0 330.18 330.18" style="enable-background:new 0 0 330.18 330.18;"
	 xml:space="preserve">
<g>
	<g id="Artwork_2_">
		<g>
			<path d="M165.09,0C88.446,0,26.316,57.804,26.316,129.108c0,4.096,0.214,34.958,0.615,38.957c0,0,4.17,17.875,138.159,17.875
				c135.583,0,138.158-17.875,138.158-17.875c0.4-4,0.615-34.861,0.615-38.957C303.863,57.804,241.732,0,165.09,0z M121.426,41.466
				c-11.932,2.803-23.274,8.827-33.276,17.01c-23.177,18.962-32.125,46.485-29.974,75.899c0.542,7.416-10.981,7.363-11.52,0
				c-2.307-31.545,7.718-63.076,32.705-83.519c11.18-9.146,24.783-17.158,39.002-20.498
				C125.59,28.661,128.656,39.768,121.426,41.466z"/>
			<path d="M206.987,194.845c-13.836,0.513-25.226,0.775-41.898,0.775c-14.889,0-26.655-0.226-41.896-0.817L109.045,316.47
				c-0.494,7.54,5.284,13.71,12.841,13.71h86.407c7.557,0,13.336-6.17,12.84-13.71L206.987,194.845z"/>
		</g>
	</g>
</g>
<g>
</g>
<g>
</g>
<g>
</g>
<g>
</g>
<g>
</g>
<g>
</g>
<g>
</g>
<g>
</g>
<g>
</g>
<g>
</g>
<g>
</g>
<g>
</g>
<g>
</g>
<g>
</g>
<g>
</g>
</svg>
