<?xml version="1.0" standalone="no"?>
<!DOCTYPE svg PUBLIC "-//W3C//DTD SVG 20010904//EN" "http://www.w3.org/TR/2001/REC-SVG-20010904/DTD/svg10.dtd">
<!-- Created using Krita: https://krita.org -->
<svg xmlns="http://www.w3.org/2000/svg" 
    xmlns:xlink="http://www.w3.org/1999/xlink"
    xmlns:krita="http://krita.org/namespaces/svg/krita"
    xmlns:sodipodi="http://sodipodi.sourceforge.net/DTD/sodipodi-0.dtd"
    width="272.16pt"
    height="272.16pt"
    viewBox="0 0 272.16 272.16">
<defs/>
<path id="shape0" transform="matrix(2.21538461538462 0 0 2.21538461538462 8.04970387539868 7.96722710939595)" fill="#000000" stroke-opacity="0" stroke="#000000" stroke-width="0" stroke-linecap="square" stroke-linejoin="bevel" d="M79.4841 91.2712C78.4454 90.2325 80.2518 86.8002 83.5486 83.5034C86.8002 80.2518 90.2777 78.4454 91.3164 79.4389C92.3551 80.4325 90.5486 83.9099 87.2518 87.2067C83.9551 90.5035 80.5228 92.3099 79.4841 91.2712ZM111.549 98.7228C112.768 99.9422 110.962 103.645 107.574 107.078C104.187 110.51 100.439 112.271 99.2196 111.052C98.9938 110.826 98.9035 110.555 98.8583 110.194C86.6196 118.052 71.3099 117.51 61.7808 108.071C61.3744 107.62 61.0131 107.123 60.6969 106.626C57.4002 108.116 53.6969 109.291 49.7679 110.194C49.813 110.374 49.8582 111.504 49.8582 111.639C49.8582 113.852 44.8453 115.613 38.7033 115.613C32.5614 115.613 27.5485 113.852 27.5485 111.639C27.5485 111.458 27.5936 110.329 27.6388 110.194C11.6516 106.581 0 97.9551 0 83.3228C0 63.0905 26.2839 53.6066 30.3033 44.6195C33.8259 36.7614 23.4388 14.8129 23.4388 14.8129L33.5098 24.7936C33.5098 24.7936 34.9098 7.22583 45.6582 0C44.9808 5.60001 41.2775 9.66454 43.1291 23.8904C46.7421 15.0839 53.8776 11.8323 53.8776 11.8323C53.8776 11.8323 43.1291 37.2582 47.1034 44.6195C50.9872 51.8453 65.7099 58.7098 73.0712 69.9099C85.4905 58.4389 100.394 54.9163 108.026 61.7808C117.284 71.1744 117.962 86.168 110.465 98.3164C110.916 98.3616 111.278 98.4519 111.549 98.7228ZM77.226 85.1744C76.9099 90.0519 75.2841 94.2067 72.6647 97.639C72.755 97.7745 72.8002 97.8648 72.8905 97.9551C74.697 99.7616 82.2389 97.5486 89.8712 89.9164C97.5035 82.2841 99.7616 74.7421 97.9099 72.9357C97.5035 72.5292 96.8261 72.3486 95.968 72.3486C94.8841 72.3486 93.4841 72.6647 91.9035 73.297C88.3809 74.697 84.4518 77.4518 80.9292 81.0196C79.5292 82.3744 78.3099 83.7744 77.226 85.1744ZM105.316 65.4389C103.555 63.6776 100.981 62.8195 98.0003 62.8195C91.4067 62.8195 82.6905 66.884 75.3292 74.0196C76.0067 75.5099 76.5034 77.0905 76.8196 78.7163C77.1357 78.4002 77.4067 78.0841 77.7228 77.7679C81.697 73.7937 86.168 70.6776 90.2325 69.0518C94.9293 67.155 98.768 67.426 101.071 69.6841C105.452 74.0647 101.974 84.0905 93.0325 93.0325C86.7099 99.4003 79.8002 102.968 74.7421 102.968C72.6647 102.968 70.9034 102.381 69.6389 101.071C69.5937 101.026 69.5486 100.981 69.5034 100.891C68.0582 102.2 66.4324 103.374 64.6711 104.413C64.8969 104.684 65.1228 105 65.3937 105.226C71.2195 111.052 85.2647 106.807 96.0583 96.0132C101.523 90.5486 105.452 84.1809 107.123 78.1744C108.704 72.6647 108.026 68.1034 105.316 65.4389Z" sodipodi:nodetypes="ccccccccccccccccccccccccccccccccccccccccccccccccccccc"/>
</svg>
