<?xml version="1.0" standalone="no"?>
<!DOCTYPE svg PUBLIC "-//W3C//DTD SVG 20010904//EN" "http://www.w3.org/TR/2001/REC-SVG-20010904/DTD/svg10.dtd">
<!-- Created using Krita: https://krita.org -->
<svg xmlns="http://www.w3.org/2000/svg" 
    xmlns:xlink="http://www.w3.org/1999/xlink"
    xmlns:krita="http://krita.org/namespaces/svg/krita"
    xmlns:sodipodi="http://sodipodi.sourceforge.net/DTD/sodipodi-0.dtd"
    width="262.08pt"
    height="262.08pt"
    viewBox="0 0 262.08 262.08">
<defs/>
<path id="shape0" transform="matrix(18 0 0 18 43.1999956050475 0.8124880783108)" fill="#000000" stroke-opacity="0" stroke="#000000" stroke-width="0" stroke-linecap="square" stroke-linejoin="bevel" d="M8.38771 9.52977L9.25828 9.53888L7.94739 8.06155L8.79829 7.45143C7.41209 6.36165 7.03748 5.81868 6.70173 4.72843L7.82987 5.23974L6.43264 3.3595L7.20105 3.10048C5.90166 2.07354 5.2666 1.03845 4.92173 0L4.92173 0.00767446C4.37972 1.16412 3.57294 2.17331 2.59637 3.08849L3.72499 2.9705L2.18818 4.91741L2.93021 4.68046L1.92437 6.32328L2.4189 6.61779L0.466224 9.3758L1.54688 9.38155L0 11.8829L1.90183 11.6402L2.26157 12.6005L3.95043 11.9583L3.58637 14.4697L5.80237 14.4697L5.59181 12.2743L6.44175 12.6389L6.74729 11.8969L8.0721 12.5242L9.76 11.9036L8.38771 9.53025Z" sodipodi:nodetypes="ccccccccccccccccccccccccccccccc"/>
</svg>
