<?xml version="1.0" encoding="UTF-8" standalone="no"?>
<!-- Generator: Adobe Illustrator 16.0.0, SVG Export Plug-In . SVG Version: 6.00 Build 0)  -->

<svg
   version="1.1"
   id="Capa_1"
   x="0px"
   y="0px"
   width="512"
   height="512"
   viewBox="0 0 128 128"
   xml:space="preserve"
   sodipodi:docname="poisonous-mushroom.svg"
   inkscape:version="1.4 (86a8ad7, 2024-10-11)"
   xmlns:inkscape="http://www.inkscape.org/namespaces/inkscape"
   xmlns:sodipodi="http://sodipodi.sourceforge.net/DTD/sodipodi-0.dtd"
   xmlns="http://www.w3.org/2000/svg"
   xmlns:svg="http://www.w3.org/2000/svg"><defs
   id="defs18" /><sodipodi:namedview
   id="namedview18"
   pagecolor="#ffffff"
   bordercolor="#000000"
   borderopacity="0.25"
   inkscape:showpageshadow="2"
   inkscape:pageopacity="0.0"
   inkscape:pagecheckerboard="true"
   inkscape:deskcolor="#d1d1d1"
   inkscape:zoom="0.86412742"
   inkscape:cx="267.9003"
   inkscape:cy="351.22135"
   inkscape:window-width="1920"
   inkscape:window-height="1009"
   inkscape:window-x="-8"
   inkscape:window-y="-8"
   inkscape:window-maximized="1"
   inkscape:current-layer="Capa_1" />
















<g
   id="g25"
   transform="translate(-0.1704095,-0.4171053)"><path
     id="path1"
     style="stroke-width:0.385355"
     d="m 64.17041,2.0253906 c -29.535144,0 -53.477051,22.2746044 -53.477051,49.7519534 0,1.578414 0.08229,13.47166 0.236817,15.012695 0,0 1.08542,4.153102 25.791015,6.005859 v 10.677247 c 0,1.667408 1.351947,3.019043 3.019532,3.019043 h 6.038574 c 1.667408,0 3.019531,-1.351458 3.019531,-3.019043 v -5.953614 c 0,-1.625809 1.249538,-3.024577 2.873535,-3.101074 1.733958,-0.08156 3.165528,1.299574 3.165528,3.015625 v 6.039063 c 0,1.667408 1.351458,3.019043 3.019043,3.019043 1.667585,0 3.019531,-1.351458 3.019531,-3.019043 v -5.953614 c 0,-1.625809 1.24953,-3.024577 2.873535,-3.101074 1.733958,-0.08156 3.165039,1.299574 3.165039,3.015625 v 6.039063 c 0,1.667408 1.352431,3.019043 3.02002,3.019043 1.667584,0 3.019043,-1.351458 3.019043,-3.019043 v -5.953614 c 0,-1.625809 1.249534,-3.024577 2.873535,-3.101074 1.733955,-0.08156 3.165527,1.299574 3.165527,3.015625 v 6.039063 c 0,1.667408 1.351458,3.019043 3.019043,3.019043 h 6.038574 c 1.667398,0 3.02002,-1.351458 3.02002,-3.019043 V 72.854004 c 25.611279,-1.82224 26.339839,-6.063965 26.339839,-6.063965 0.15414,-1.54142 0.23682,-13.434281 0.23682,-15.012695 0,-27.477349 -23.942672,-49.7519534 -53.47705,-49.7519534 z M 83.867188,22.617188 c 0.744294,-0.01031 1.500273,0.05184 2.26123,0.193359 5.061236,0.941236 9.034831,4.875388 10.091797,9.991699 1.652402,7.99849 -6.04028,15.774342 -14.185059,14.338867 C 76.975562,46.249387 72.893115,42.118299 71.935547,36.921387 70.583619,29.584211 76.672342,22.716814 83.867188,22.617188 Z m -39.560059,0.01416 c 5.2391,-0.0233 10.29108,3.517175 11.888672,8.771484 0.646768,2.127145 0.57166,5.482269 -0.169434,7.59082 -1.963107,5.585392 -7.934963,9.142011 -13.666015,8.13916 -3.888764,-0.680469 -8.005188,-3.988839 -9.436524,-7.583984 -0.562328,-1.412427 -0.70808,-2.374231 -0.711426,-4.693848 -0.0036,-2.534487 0.105011,-3.153011 0.82959,-4.70996 1.714394,-3.683833 4.534755,-6.08772 8.355957,-7.122071 0.962322,-0.260488 1.938976,-0.387286 2.90918,-0.391601 z M 64.25,47.753418 c 1.26073,0 1.461805,0.142062 4.778809,3.383301 3.821869,3.734572 4.679825,4.970866 4.353515,6.270996 -0.352231,1.403412 -1.518443,2.323242 -2.945801,2.323242 -1.147282,0 -1.463691,-0.204073 -3.775878,-2.433594 l -2.523926,-2.433593 -2.496094,2.433593 c -2.206898,2.151571 -2.627927,2.433594 -3.632324,2.433594 -0.846143,0 -1.365058,-0.229316 -2.033692,-0.897949 -0.675932,-0.675932 -0.897949,-1.184452 -0.897949,-2.05957 0,-1.079629 0.279311,-1.441901 3.928711,-5.091309 3.811091,-3.811086 3.968056,-3.928711 5.244629,-3.928711 z" /><path
     id="rect21"
     style="fill:#000000;stroke-width:2.18582"
     d="m 36.558803,84.657956 v 3.672067 c 0.0039,-0.0047 0.008,-0.0092 0.01204,-0.01391 V 84.65797 Z m 14.963362,0.445663 c -1.624002,0.0674 -2.63774,1.315587 -2.873604,2.732996 l -1.987738,11.944006 -5.0909,24.117479 c -0.190366,1.60074 2.036523,2.91072 4.94865,2.91072 h 33.297076 c 2.912127,0 5.139034,-1.30998 4.947893,-2.91072 l -5.044043,-23.87382 -0.87627,-12.262609 c -0.09492,-1.509771 -1.431675,-2.729924 -3.16563,-2.658052 -1.624001,0.0674 -2.873603,1.300427 -2.873603,2.732996 v 5.245814 c 0,1.469377 -1.351278,2.660043 -3.018866,2.660043 -1.667586,0 -3.02037,-1.190824 -3.02037,-2.660043 v -5.320758 c 0,-1.512083 -1.43092,-2.729924 -3.164878,-2.658052 -1.624001,0.0674 -2.873603,1.300427 -2.873603,2.732996 v 5.245814 c 0,1.469377 -1.352033,2.660043 -3.019619,2.660043 -1.667584,0 -3.018862,-1.190824 -3.018862,-2.660043 v -5.320758 c 0,-1.512083 -1.431678,-2.729924 -3.165633,-2.658052 z"
     sodipodi:nodetypes="cccccccccssccccssssscsssssc" /></g></svg>
