<?xml version="1.0" encoding="UTF-8" standalone="no"?>
<svg
   fill="#000000"
   version="1.1"
   id="Layer_1"
   viewBox="0 0 512 476.215"
   xml:space="preserve"
   width="512"
   height="476.215"
   xmlns="http://www.w3.org/2000/svg"
   xmlns:svg="http://www.w3.org/2000/svg"><defs
   id="defs45" />
<g
   id="g45"
   transform="translate(0,-17.892)"><g
   id="g2">
	<g
   id="g1">
		<path
   d="m 411.691,70.194 c 10.268,-10.82 21.681,-18.348 34.078,-22.437 l -5.173,-15.685 c -20.068,6.619 -37.75,20.374 -52.555,40.885 -7.922,10.972 -14.22,22.758 -19.18,33.998 V 17.892 H 352.345 V 106.96 C 347.485,95.956 341.339,84.43 333.636,73.659 318.777,52.802 300.941,38.812 280.621,32.074 l -5.198,15.677 c 12.407,4.114 23.809,11.645 34.054,22.441 H 202.488 c 10.268,-10.82 21.681,-18.348 34.078,-22.437 L 231.393,32.07 c -20.068,6.619 -37.75,20.374 -52.555,40.885 -7.922,10.972 -14.22,22.758 -19.18,33.998 V 17.892 H 143.142 V 106.96 C 138.282,95.956 132.136,84.43 124.433,73.659 109.573,52.804 91.735,38.812 71.416,32.075 l -5.197,15.677 c 12.407,4.114 23.809,11.645 34.054,22.441 H 0 V 494.107 H 79.827 V 477.591 H 16.516 v -76.84 c 17.644,1.046 27.539,5.443 37.936,10.064 12.966,5.763 26.375,11.722 52.902,11.722 26.527,0 39.936,-5.959 52.902,-11.722 11.917,-5.296 23.173,-10.299 46.195,-10.299 23.033,0 34.285,5.007 46.199,10.307 12.944,5.759 26.329,11.714 52.788,11.714 26.593,0 40.026,-5.963 53.016,-11.73 11.921,-5.293 23.181,-10.292 46.191,-10.292 23.021,0 34.278,5.002 46.195,10.299 11.546,5.132 23.45,10.415 44.644,11.512 v 55.264 h -393.63 v 16.516 H 512 V 70.194 Z m 83.793,335.592 C 477.84,404.74 467.945,400.343 457.548,395.722 444.581,389.959 431.172,384 404.645,384 c -26.512,0 -39.923,5.954 -52.892,11.712 -11.942,5.302 -23.222,10.309 -46.315,10.309 -22.951,0 -34.183,-4.998 -46.074,-10.288 C 246.4,389.965 232.994,384 206.452,384 c -26.527,0 -39.936,5.959 -52.902,11.722 -11.917,5.296 -23.173,10.299 -46.195,10.299 -23.021,0 -34.278,-5.002 -46.195,-10.299 C 49.614,390.591 37.71,385.308 16.516,384.21 v -93.566 c 17.644,1.046 27.539,5.443 37.936,10.064 12.966,5.763 26.375,11.722 52.902,11.722 26.527,0 39.936,-5.959 52.902,-11.722 11.917,-5.296 23.173,-10.299 46.195,-10.299 23.033,0 34.285,5.007 46.199,10.307 12.944,5.759 26.329,11.714 52.788,11.714 26.593,0 40.026,-5.963 53.016,-11.73 11.921,-5.293 23.181,-10.292 46.191,-10.292 23.021,0 34.278,5.002 46.195,10.299 11.546,5.132 23.45,10.415 44.644,11.512 z m 0,-286.044 h -79.828 v 16.516 h 79.828 v 55.054 H 74.323 v 16.516 h 421.161 v 87.85 c -17.644,-1.046 -27.539,-5.443 -37.936,-10.064 -12.966,-5.763 -26.375,-11.722 -52.902,-11.722 -26.512,0 -39.923,5.954 -52.892,11.712 -11.942,5.302 -23.222,10.309 -46.315,10.309 -22.951,0 -34.183,-4.998 -46.074,-10.288 -12.964,-5.769 -26.37,-11.733 -52.912,-11.733 -26.527,0 -39.936,5.959 -52.902,11.722 -11.917,5.296 -23.173,10.299 -46.195,10.299 -23.021,0 -34.278,-5.002 -46.195,-10.299 C 49.615,280.483 37.711,275.2 16.517,274.102 V 207.827 H 52.302 V 191.311 H 16.516 V 136.257 H 96.344 V 119.741 H 16.516 V 86.71 h 96.862 c 16.036,23.909 24.313,51.734 27.799,66.065 H 112.86 v 16.516 h 77.075 v -16.516 h -28.314 c 3.528,-14.491 11.951,-42.781 28.314,-66.877 v 0.813 h 132.647 c 16.036,23.909 24.313,51.734 27.799,66.065 h -28.316 v 16.516 h 77.075 v -16.516 h -28.314 c 3.528,-14.491 11.951,-42.781 28.314,-66.877 v 0.813 h 96.344 z"
   id="path1" />
	</g>
</g>
<g
   id="g4">
	<g
   id="g3">
		<rect
   x="74.322998"
   y="251.871"
   width="27.527"
   height="16.516001"
   id="rect2" />
	</g>
</g>
<g
   id="g6">
	<g
   id="g5">
		<rect
   x="101.849"
   y="229.849"
   width="27.527"
   height="16.516001"
   id="rect4" />
	</g>
</g>
<g
   id="g8">
	<g
   id="g7">
		<rect
   x="178.925"
   y="229.849"
   width="27.527"
   height="16.516001"
   id="rect6" />
	</g>
</g>
<g
   id="g10">
	<g
   id="g9">
		<rect
   x="283.52701"
   y="251.871"
   width="27.527"
   height="16.516001"
   id="rect8" />
	</g>
</g>
<g
   id="g12">
	<g
   id="g11">
		<rect
   x="426.66699"
   y="229.849"
   width="27.527"
   height="16.516001"
   id="rect10" />
	</g>
</g>
<g
   id="g14">
	<g
   id="g13">
		<rect
   x="426.66699"
   y="350.96799"
   width="27.527"
   height="16.516001"
   id="rect12" />
	</g>
</g>
<g
   id="g16">
	<g
   id="g15">
		<rect
   x="305.548"
   y="350.96799"
   width="27.527"
   height="16.516001"
   id="rect14" />
	</g>
</g>
<g
   id="g18">
	<g
   id="g17">
		<rect
   x="283.52701"
   y="328.94601"
   width="27.527"
   height="16.516001"
   id="rect16" />
	</g>
</g>
<g
   id="g20">
	<g
   id="g19">
		<rect
   x="173.41901"
   y="328.94601"
   width="27.527"
   height="16.516001"
   id="rect18" />
	</g>
</g>
<g
   id="g22">
	<g
   id="g21">
		<rect
   x="52.300999"
   y="350.96799"
   width="27.527"
   height="16.516001"
   id="rect20" />
	</g>
</g>
<g
   id="g24">
	<g
   id="g23">
		<rect
   x="107.355"
   y="350.96799"
   width="27.527"
   height="16.516001"
   id="rect22" />
	</g>
</g>
<g
   id="g26">
	<g
   id="g25">
		<rect
   x="41.290001"
   y="439.05399"
   width="27.527"
   height="16.516001"
   id="rect24" />
	</g>
</g>
<g
   id="g28">
	<g
   id="g27">
		<rect
   x="173.41901"
   y="417.03201"
   width="27.527"
   height="16.516001"
   id="rect26" />
	</g>
</g>
<g
   id="g30">
	<g
   id="g29">
		<rect
   x="217.46201"
   y="439.05399"
   width="27.527"
   height="16.516001"
   id="rect28" />
	</g>
</g>
<g
   id="g32">
	<g
   id="g31">
		<rect
   x="448.68799"
   y="439.05399"
   width="27.527"
   height="16.516001"
   id="rect30" />
	</g>
</g>
<g
   id="g34">
	<g
   id="g33">
		<rect
   x="360.60199"
   y="439.05399"
   width="27.527"
   height="16.516001"
   id="rect32" />
	</g>
</g>
<g
   id="g36">
	<g
   id="g35">
		<rect
   x="206.452"
   y="119.742"
   width="22.021999"
   height="16.516001"
   id="rect34" />
	</g>
</g>
<g
   id="g38">
	<g
   id="g37">
		<rect
   x="222.968"
   y="141.763"
   width="22.021"
   height="16.516001"
   id="rect36" />
	</g>
</g>
<g
   id="g40">
	<g
   id="g39">
		<rect
   x="289.03201"
   y="119.742"
   width="22.021"
   height="16.516001"
   id="rect38" />
	</g>
</g>
<g
   id="g42">
	<g
   id="g41">
		<rect
   x="57.806"
   y="152.774"
   width="22.021"
   height="16.516001"
   id="rect40" />
	</g>
</g>
<g
   id="g44">
	<g
   id="g43">
		<rect
   x="432.172"
   y="152.774"
   width="22.021"
   height="16.516001"
   id="rect42" />
	</g>
</g>
</g></svg>
