<?xml version="1.0" encoding="UTF-8" standalone="no"?>
<svg
   fill="#000000"
   version="1.1"
   id="Layer_1"
   viewBox="0 0 128 128"
   xml:space="preserve"
   width="512"
   height="512"
   sodipodi:docname="soil.svg"
   inkscape:version="1.4 (86a8ad7, 2024-10-11)"
   xmlns:inkscape="http://www.inkscape.org/namespaces/inkscape"
   xmlns:sodipodi="http://sodipodi.sourceforge.net/DTD/sodipodi-0.dtd"
   xmlns="http://www.w3.org/2000/svg"
   xmlns:svg="http://www.w3.org/2000/svg"><sodipodi:namedview
   id="namedview1"
   pagecolor="#ffffff"
   bordercolor="#000000"
   borderopacity="0.25"
   inkscape:showpageshadow="2"
   inkscape:pageopacity="0.0"
   inkscape:pagecheckerboard="true"
   inkscape:deskcolor="#d1d1d1"
   showguides="true"
   inkscape:zoom="0.84730637"
   inkscape:cx="349.93246"
   inkscape:cy="275.57919"
   inkscape:window-width="1920"
   inkscape:window-height="1009"
   inkscape:window-x="-8"
   inkscape:window-y="-8"
   inkscape:window-maximized="1"
   inkscape:current-layer="Layer_1" /><defs
   id="defs45" />
<path
   id="rect1"
   style="fill:#000000;stroke:none;stroke-width:3.49139"
   d="M 2.0809825,5.0134137 2.0259416,17.588473 H 23.728853 c -2.650491,-2.793039 -5.600188,-4.741162 -8.810012,-5.805499 l 1.344328,-4.0561711 c 5.25674,1.7429334 9.871419,5.3628191 13.715858,10.7582321 1.992848,2.786573 3.583071,5.76839 4.840406,8.615243 V 5.0134137 Z m 37.0110335,0 V 27.098732 c 1.283204,-2.907908 2.913017,-5.957011 4.962524,-8.795586 3.830212,-5.306414 8.40451,-8.8649674 13.596316,-10.5773736 l 1.338145,4.0577166 c -3.207237,1.05787 -6.159755,3.005736 -8.816197,5.804984 h 27.679044 c -2.65049,-2.793039 -5.60019,-4.741678 -8.810013,-5.806015 l 1.344843,-4.0556551 c 5.257002,1.743193 9.871159,5.3623021 13.715342,10.7582321 1.99285,2.786573 3.58307,5.76839 4.840406,8.615243 V 5.0134137 Z m 54.123509,0 V 27.099247 c 1.283206,-2.907909 2.912502,-5.957012 4.962008,-8.795586 3.830217,-5.306413 8.404507,-8.8649674 13.596327,-10.5773733 l 1.33814,4.0577163 c -3.20723,1.057869 -6.15975,3.005734 -8.8162,5.804984 h 21.65714 L 125.9254,5.0134137 H 93.215493 Z M 46.925085,21.651342 c -4.233283,6.233893 -6.412286,13.553129 -7.325018,17.302107 h 7.325018 v 4.272584 H 26.985333 v -4.272584 h 7.325532 C 33.409,35.245865 31.267987,28.047084 27.119302,21.861571 H 2.0598712 v 8.545682 H 22.712234 v 4.272583 H 2.0598712 V 48.92281 h 9.2582928 v 4.273098 H 2.0603864 V 70.34189 c 5.4831151,0.284064 8.5626076,1.650792 11.5496796,2.978236 3.083054,1.370389 5.995293,2.664438 11.951072,2.664438 5.956038,0 8.868018,-1.294308 11.951073,-2.664438 3.354442,-1.49095 6.823669,-3.032339 13.686487,-3.032339 6.8667,0 10.335138,1.542928 13.689064,3.035431 3.076329,1.368579 5.981973,2.661346 11.919641,2.661346 5.974407,0 8.892466,-1.295331 11.98199,-2.667015 3.355218,-1.489654 6.824961,-3.029762 13.683917,-3.029762 6.86281,0 10.33204,1.541389 13.68649,3.032339 2.68981,1.195501 5.24956,2.333025 9.81426,2.603637 V 53.195908 H 17.014942 V 48.923325 H 125.97406 V 34.680351 H 105.3217 v -4.273098 h 20.65236 V 21.862086 H 101.0486 v -0.210228 c -4.233293,6.233892 -6.412293,13.552614 -7.325023,17.301591 h 7.325023 v 4.273099 H 81.108841 v -4.273099 h 7.325533 C 87.532509,35.245866 85.390979,28.0476 81.242295,21.862086 h -34.31721 z m 4.273098,8.755911 h 5.697293 v 4.273098 h -5.697293 z m 21.364462,0 h 5.697292 v 4.273098 h -5.697292 z m -17.091364,5.697292 h 5.696778 v 4.272583 h -5.696778 z m -42.729438,2.848389 h 5.697293 v 4.273099 h -5.697293 z m 96.852957,0 h 5.69678 v 4.273099 H 109.5948 Z M 24.136429,58.893201 h 7.121487 V 63.1663 h -7.121487 z m 19.940267,0 h 7.121487 V 63.1663 h -7.121487 z m 64.093394,0 h 7.12199 V 63.1663 h -7.12199 z m -91.155148,5.697293 h 7.122002 v 4.273098 h -7.122002 z m 54.123508,0 h 7.121487 v 4.273098 H 71.13845 Z m 31.33434,9.969876 c -5.952941,0 -8.865954,1.293538 -11.950044,2.662893 -3.360652,1.491985 -6.835965,3.0344 -13.715858,3.0344 -6.845227,0 -10.30785,-1.540363 -13.656601,-3.030277 -3.082279,-1.371167 -5.99322,-2.666501 -11.952104,-2.666501 -5.956037,0 -8.868017,1.294308 -11.951072,2.66444 -3.354443,1.490949 -6.823668,3.032338 -13.686488,3.032338 -6.862816,0 -10.332044,-1.541389 -13.686487,-3.032338 C 9.1843212,76.029823 6.6245617,74.892298 2.0598712,74.621686 v 24.206153 c 5.4831143,0.284065 8.5626078,1.651311 11.5496798,2.978751 3.083054,1.37039 5.995808,2.66445 11.951587,2.66445 5.956038,0 8.868018,-1.29431 11.951073,-2.66445 3.354442,-1.49095 6.823154,-3.032855 13.685972,-3.032855 6.8667,0 10.335138,1.543185 13.689064,3.035435 3.076328,1.36858 5.981973,2.66187 11.919641,2.66187 5.974406,0 8.892981,-1.29586 11.982505,-2.66754 3.355218,-1.48966 6.824451,-3.029765 13.683397,-3.029765 6.86281,0 10.3323,1.541905 13.68701,3.032855 2.68981,1.1955 5.24956,2.33303 9.81426,2.60364 V 80.203045 c -5.48312,-0.283806 -8.5626,-1.650532 -11.54968,-2.978236 -3.08305,-1.37039 -5.99581,-2.664439 -11.95159,-2.664439 z m -59.820288,9.970391 h 7.121487 v 4.272583 h -7.121487 z m 28.485948,0 h 7.121487 v 4.272583 H 71.13845 Z m -59.820801,5.697293 h 7.121487 v 4.272583 h -7.121487 z m 14.243489,0 h 7.121488 v 4.272583 h -7.121488 z m 51.274605,0 h 7.121488 v 4.272583 h -7.121488 z m 31.334347,0 h 7.12199 v 4.272583 h -7.12199 z m -5.6973,12.818266 c -5.952941,0 -8.865954,1.29353 -11.950044,2.66289 -3.360652,1.49199 -6.835965,3.0344 -13.715858,3.0344 -6.845227,0 -10.30785,-1.54035 -13.656601,-3.03027 -3.082279,-1.37116 -5.99322,-2.6665 -11.952104,-2.6665 -5.956037,0 -8.868017,1.29429 -11.951072,2.66444 -3.354443,1.49095 -6.823668,3.03233 -13.686488,3.03233 -6.862816,0 -10.332044,-1.54138 -13.686487,-3.03233 -2.6898148,-1.19552 -5.2495743,-2.33303 -9.8142648,-2.60364 v 19.87895 H 18.439136 24.137975 125.97406 V 108.689 c -5.48312,-0.2838 -8.5626,-1.65053 -11.54968,-2.97824 -3.08305,-1.37039 -5.99581,-2.66444 -11.95159,-2.66444 z m -59.820288,4.2731 h 7.121487 v 4.2731 h -7.121487 z m -34.1832415,5.69729 h 7.1214865 v 4.27311 H 8.4692605 Z m 45.5773115,0 h 7.121487 v 4.27311 h -7.121487 z m 37.032146,0 h 7.121487 v 4.27311 h -7.121487 z m 22.788662,0 h 7.12148 v 4.27311 h -7.12148 z"
   sodipodi:nodetypes="ccccccccccccccccccccccccccccccccccccccccccccccccccscscsssccccccccccccccccccccccccccccccccccccccccccccccccccccccccccccccccccccscccscscscsccccscscssscccssccccccccccccccccccccccccccscccscscscscccccccsscccccccccccccccccccccccccc" /></svg>
