<?xml version="1.0" encoding="iso-8859-1"?>
<!-- Generator: Adobe Illustrator 17.1.0, SVG Export Plug-In . SVG Version: 6.00 Build 0)  -->
<!DOCTYPE svg PUBLIC "-//W3C//DTD SVG 1.1//EN" "http://www.w3.org/Graphics/SVG/1.1/DTD/svg11.dtd">
<svg version="1.1" id="Capa_1" xmlns="http://www.w3.org/2000/svg" xmlns:xlink="http://www.w3.org/1999/xlink" x="0px" y="0px"
	 viewBox="0 0 377.014 377.014" style="enable-background:new 0 0 377.014 377.014;" xml:space="preserve">
<path d="M279.3,231.701c26.775-1.755,48.025-24.083,48.025-51.295c0-26.232-19.751-47.925-45.16-51.024
	c1.014-4.022,1.558-8.229,1.558-12.562c0-26.465-20.1-48.317-45.835-51.11c1.316-4.541,2.036-9.333,2.036-14.292
	C239.925,23.066,216.859,0,188.507,0s-51.418,23.066-51.418,51.418c0,4.96,0.72,9.751,2.036,14.292
	c-25.735,2.793-45.835,24.645-45.835,51.11c0,4.333,0.544,8.539,1.558,12.562c-25.409,3.099-45.16,24.792-45.16,51.024
	c0,27.211,21.25,49.54,48.025,51.295l76.87,68.287v49.026h-29.622c-4.62,0-8.378,3.527-8.378,7.863v12.295
	c0,4.324,3.758,7.842,8.378,7.842h87.092c4.363,0,7.53-3.298,7.53-7.842v-12.295c0-4.556-3.167-7.863-7.53-7.863h-29.47v-49.161
	L279.3,231.701z M202.583,229.906c12.455-3.497,23.007-11.571,29.722-22.293c4.164,6.65,9.803,12.282,16.46,16.436l-46.182,41.025
	V229.906z M128.249,224.05c6.759-4.219,12.474-9.958,16.656-16.743c6.662,10.806,17.209,18.963,29.678,22.53v35.373L128.249,224.05z
	"/>
<g>
</g>
<g>
</g>
<g>
</g>
<g>
</g>
<g>
</g>
<g>
</g>
<g>
</g>
<g>
</g>
<g>
</g>
<g>
</g>
<g>
</g>
<g>
</g>
<g>
</g>
<g>
</g>
<g>
</g>
</svg>
