<?xml version="1.0" encoding="iso-8859-1"?>
<!-- Generator: Adobe Illustrator 17.1.0, SVG Export Plug-In . SVG Version: 6.00 Build 0)  -->
<!DOCTYPE svg PUBLIC "-//W3C//DTD SVG 1.1//EN" "http://www.w3.org/Graphics/SVG/1.1/DTD/svg11.dtd">
<svg version="1.1" id="Capa_1" xmlns="http://www.w3.org/2000/svg" xmlns:xlink="http://www.w3.org/1999/xlink" x="0px" y="0px"
	 viewBox="0 0 373.507 373.507" style="enable-background:new 0 0 373.507 373.507;" xml:space="preserve">
<g>
	<path d="M205.638,325.507h-39c-4.411,0-8,3.589-8,8v32c0,4.411,3.589,8,8,8h39c4.411,0,8-3.589,8-8v-32
		C213.638,329.096,210.049,325.507,205.638,325.507z"/>
	<path d="M311.045,212.507h-3.904c3.683-6.952,5.826-15.18,5.826-24c0-23.467-15.11-42.784-34.311-44.813
		c4.428-7.434,6.825-16.33,6.825-25.687c0-11.812-3.806-22.899-10.717-31.222c-7.111-8.563-16.677-13.278-26.937-13.278h-7.335
		c1.723-5.399,2.66-11.145,2.66-17.107C243.153,25.301,217.852,0,186.753,0s-56.399,25.301-56.399,56.399
		c0,5.963,0.937,11.708,2.66,17.107h-7.335c-10.26,0-19.825,4.716-26.937,13.278c-6.911,8.322-10.717,19.41-10.717,31.222
		c0,9.357,2.397,18.253,6.825,25.687C75.65,145.723,60.54,165.04,60.54,188.507c0,8.82,2.142,17.048,5.826,24h-3.904
		c-20.762,0-37.653,20.411-37.653,45.5s16.892,45.5,37.653,45.5h248.584c20.762,0,37.653-20.411,37.653-45.5
		S331.807,212.507,311.045,212.507z"/>
</g>
<g>
</g>
<g>
</g>
<g>
</g>
<g>
</g>
<g>
</g>
<g>
</g>
<g>
</g>
<g>
</g>
<g>
</g>
<g>
</g>
<g>
</g>
<g>
</g>
<g>
</g>
<g>
</g>
<g>
</g>
</svg>
