<?xml version="1.0" standalone="no"?>
<!DOCTYPE svg PUBLIC "-//W3C//DTD SVG 20010904//EN" "http://www.w3.org/TR/2001/REC-SVG-20010904/DTD/svg10.dtd">
<!-- Created using Krita: https://krita.org -->
<svg xmlns="http://www.w3.org/2000/svg" 
    xmlns:xlink="http://www.w3.org/1999/xlink"
    xmlns:krita="http://krita.org/namespaces/svg/krita"
    xmlns:sodipodi="http://sodipodi.sourceforge.net/DTD/sodipodi-0.dtd"
    width="272.16pt"
    height="272.16pt"
    viewBox="0 0 272.16 272.16">
<defs/>
<path id="shape0" transform="matrix(0.72 0 0 0.72 35.77536 0)" fill="#000000" stroke-opacity="0" stroke="#000000" stroke-width="0" stroke-linecap="square" stroke-linejoin="bevel" d="M229.612 231.701C256.387 229.946 277.637 207.618 277.637 180.406C277.637 154.174 257.886 132.481 232.477 129.382C233.491 125.36 234.035 121.153 234.035 116.82C234.035 90.355 213.935 68.503 188.2 65.71C189.516 61.169 190.236 56.377 190.236 51.418C190.237 23.066 167.171 0 138.819 0C110.467 0 87.401 23.066 87.401 51.418C87.401 56.378 88.121 61.169 89.437 65.71C63.702 68.503 43.602 90.355 43.602 116.82C43.602 121.153 44.146 125.359 45.16 129.382C19.751 132.481 0 154.174 0 180.406C0 207.617 21.25 229.946 48.025 231.701L124.895 299.988L124.895 349.014L95.273 349.014C90.653 349.014 86.895 352.541 86.895 356.877L86.895 369.172C86.895 373.496 90.653 377.014 95.273 377.014L182.365 377.014C186.728 377.014 189.895 373.716 189.895 369.172L189.895 356.877C189.895 352.321 186.728 349.014 182.365 349.014L152.895 349.014L152.895 299.853ZM152.895 229.906C165.35 226.409 175.902 218.335 182.617 207.613C186.781 214.263 192.42 219.895 199.077 224.049L152.895 265.074ZM78.561 224.05C85.32 219.831 91.035 214.092 95.217 207.307C101.879 218.113 112.426 226.27 124.895 229.837L124.895 265.21Z" sodipodi:nodetypes="cccccccccccccccccccccccccccccccccccc"/><g id="group0" transform="matrix(0.72 0 0 0.72 0 0)" fill="none"/><g id="group1" transform="matrix(0.72 0 0 0.72 0 0)" fill="none"/><g id="group2" transform="matrix(0.72 0 0 0.72 0 0)" fill="none"/><g id="group3" transform="matrix(0.72 0 0 0.72 0 0)" fill="none"/><g id="group4" transform="matrix(0.72 0 0 0.72 0 0)" fill="none"/><g id="group5" transform="matrix(0.72 0 0 0.72 0 0)" fill="none"/><g id="group6" transform="matrix(0.72 0 0 0.72 0 0)" fill="none"/><g id="group7" transform="matrix(0.72 0 0 0.72 0 0)" fill="none"/><g id="group8" transform="matrix(0.72 0 0 0.72 0 0)" fill="none"/><g id="group9" transform="matrix(0.72 0 0 0.72 0 0)" fill="none"/><g id="group10" transform="matrix(0.72 0 0 0.72 0 0)" fill="none"/><g id="group11" transform="matrix(0.72 0 0 0.72 0 0)" fill="none"/><g id="group12" transform="matrix(0.72 0 0 0.72 0 0)" fill="none"/><g id="group13" transform="matrix(0.72 0 0 0.72 0 0)" fill="none"/><g id="group14" transform="matrix(0.72 0 0 0.72 0 0)" fill="none"/>
</svg>
