<?xml version="1.0" standalone="no"?>
<!DOCTYPE svg PUBLIC "-//W3C//DTD SVG 20010904//EN" "http://www.w3.org/TR/2001/REC-SVG-20010904/DTD/svg10.dtd">
<!-- Created using Krita: https://krita.org -->
<svg xmlns="http://www.w3.org/2000/svg" 
    xmlns:xlink="http://www.w3.org/1999/xlink"
    xmlns:krita="http://krita.org/namespaces/svg/krita"
    xmlns:sodipodi="http://sodipodi.sourceforge.net/DTD/sodipodi-0.dtd"
    width="272.16pt"
    height="272.16pt"
    viewBox="0 0 272.16 272.16">
<defs/>
<g id="group0" transform="matrix(0.516652919783226 0 0 0.516652919783226 3.81685253549409 3.81685253549416)" fill="none">
  <path id="shape0" transform="translate(155.449, 86.033)" fill="#000000" stroke-opacity="0" stroke="#000000" stroke-width="0" stroke-linecap="square" stroke-linejoin="bevel" d="M6.187 57.823C9.609 57.823 12.389 55.043 12.389 51.62L12.389 6.195C12.389 2.781 9.609 0 6.187 0C2.773 0 0 2.781 0 6.195L0 51.62C2.84217e-14 55.043 2.773 57.823 6.187 57.823Z" sodipodi:nodetypes="ccccccc"/>
  <path id="shape1" transform="translate(155.449175752538, 155.657114921597)" fill="#000000" stroke-opacity="0" stroke="#000000" stroke-width="0" stroke-linecap="square" stroke-linejoin="bevel" d="M154.643 95.5189C171.978 88.0339 184.383 74.7699 187.678 65.0489L200.42 14.1979C201.911 9.79789 200.901 5.26989 197.816 2.50489C194.73 -0.260115 190.106 -0.773115 185.866 1.15089L141.058 21.6189C133.918 24.8809 122.634 32.9189 118.506 43.8189L101.74 87.0959C101.34 87.0559 100.954 86.9759 100.546 86.9759C100.137 86.9759 99.7518 87.0469 99.3518 87.0959L82.5938 43.8189C78.4668 32.9189 67.1828 24.8809 60.0338 21.6189L15.2258 1.15089C10.9868 -0.773115 6.36282 -0.260115 3.27682 2.50489C0.190824 5.26989 -0.811176 9.79789 0.680824 14.1979L13.4228 65.0489C16.7168 74.7699 29.1148 88.0339 46.4578 95.5189C62.3898 102.387 77.8098 106.106 89.2788 108.125L89.2788 166.044L82.5948 148.782C78.4678 137.883 67.1838 129.844 60.0348 126.582L15.2268 106.114C10.9878 104.19 6.36382 104.703 3.27782 107.468C0.191824 110.233 -0.810176 114.761 0.681824 119.161L13.4238 170.012C16.7178 179.734 29.1158 192.997 46.4588 200.482C62.3908 207.35 77.8108 211.077 89.2798 213.088L89.2798 271.008L82.5958 253.744C78.4688 242.845 67.1848 234.806 60.0358 231.545L15.2278 211.076C10.9888 209.153 6.36482 209.666 3.27882 212.431C0.192824 215.196 -0.809176 219.723 0.682824 224.124L13.4248 274.975C16.7188 284.695 29.1168 297.959 46.4598 305.445C62.3918 312.313 77.8118 316.032 89.2808 318.051L89.2808 345.075C89.2808 351.301 94.3208 356.343 100.549 356.343C106.776 356.343 111.817 351.302 111.817 345.075L111.817 318.051C123.285 316.031 138.704 312.313 154.645 305.445C171.98 297.959 184.385 284.695 187.68 274.975L200.422 224.124C201.913 219.724 200.903 215.196 197.818 212.431C194.732 209.666 190.108 209.153 185.868 211.076L141.06 231.545C133.92 234.806 122.636 242.845 118.508 253.744L111.816 271.023L111.816 213.087C123.284 211.076 138.703 207.349 154.644 200.481C171.979 192.996 184.384 179.732 187.679 170.011L200.421 119.16C201.912 114.76 200.902 110.232 197.817 107.467C194.731 104.702 190.107 104.189 185.867 106.113L141.059 126.581C133.919 129.843 122.635 137.882 118.507 148.781L111.815 166.068L111.815 108.124C123.283 106.105 138.702 102.387 154.643 95.5189Z" sodipodi:nodetypes="ccccccccccccccccccccccccccccccccccccccccccccccccccccccccccc"/>
  <path id="shape2" transform="translate(344.161, 86.033)" fill="#000000" stroke-opacity="0" stroke="#000000" stroke-width="0" stroke-linecap="square" stroke-linejoin="bevel" d="M6.195 0C2.773 0 0 2.781 0 6.195L0 51.62C0 55.042 2.773 57.823 6.195 57.823C9.609 57.823 12.39 55.043 12.39 51.62L12.39 6.195C12.39 2.781 9.609 0 6.195 0Z" sodipodi:nodetypes="ccccccc"/>
  <path id="shape3" transform="translate(249.520999730397, 0)" fill="#000000" stroke-opacity="0" stroke="#000000" stroke-width="0" stroke-linecap="square" stroke-linejoin="bevel" d="M6.194 57.816C9.616 57.816 12.389 55.043 12.389 51.621L12.389 6.195C12.389 2.773 9.616 0 6.194 0C2.78 0 2.69603e-07 2.773 2.69603e-07 6.195L2.69603e-07 51.62C-0.00099973 55.042 2.78 57.816 6.194 57.816Z" sodipodi:nodetypes="ccccccc"/>
  <path id="shape4" transform="translate(198.79, 46.9)" fill="#000000" stroke-opacity="0" stroke="#000000" stroke-width="0" stroke-linecap="square" stroke-linejoin="bevel" d="M6.195 57.815C9.617 57.815 12.39 55.042 12.39 51.62L12.39 6.195C12.39 2.773 9.617 0 6.195 0C2.781 0 0 2.773 0 6.195L0 51.62C-2.84217e-14 55.042 2.781 57.815 6.195 57.815Z" sodipodi:nodetypes="ccccccc"/>
  <path id="shape5" transform="translate(301.204, 46.9)" fill="#000000" stroke-opacity="0" stroke="#000000" stroke-width="0" stroke-linecap="square" stroke-linejoin="bevel" d="M6.195 57.815C9.617 57.815 12.39 55.042 12.39 51.62L12.39 6.195C12.39 2.773 9.617 0 6.195 0C2.781 0 0 2.773 0 6.195L0 51.62C0 55.042 2.781 57.815 6.195 57.815Z" sodipodi:nodetypes="ccccccc"/>
  <path id="shape6" transform="translate(217.26875, 65.525)" fill="#000000" stroke-opacity="0" stroke="#000000" stroke-width="0" stroke-linecap="square" stroke-linejoin="bevel" d="M28.2842 115.766C30.4082 119.413 34.1902 121.648 38.2452 121.648C42.3082 121.64 46.0752 119.412 48.2072 115.766L73.3003 72.73C77.5563 65.429 77.5563 56.221 73.3003 48.919L48.2072 5.891C46.0752 2.237 42.3082 0.009 38.2452 0C34.1902 0 30.4083 2.236 28.2842 5.891L3.19125 48.912C-1.06375 56.221 -1.06375 65.429 3.19125 72.738Z" sodipodi:nodetypes="ccccccccccc"/>
 </g>
</svg>
