<?xml version="1.0" encoding="UTF-8" standalone="no"?>
<!-- Created with Inkscape (http://www.inkscape.org/) -->

<svg
   width="128"
   height="128"
   viewBox="0 0 33.866666 33.866666"
   version="1.1"
   id="svg5"
   inkscape:version="1.2.1 (9c6d41e410, 2022-07-14)"
   sodipodi:docname="meteoricFerrum.svg"
   xml:space="preserve"
   xmlns:inkscape="http://www.inkscape.org/namespaces/inkscape"
   xmlns:sodipodi="http://sodipodi.sourceforge.net/DTD/sodipodi-0.dtd"
   xmlns="http://www.w3.org/2000/svg"
   xmlns:svg="http://www.w3.org/2000/svg"><sodipodi:namedview
     id="namedview7"
     pagecolor="#ffffff"
     bordercolor="#000000"
     borderopacity="0.25"
     inkscape:showpageshadow="2"
     inkscape:pageopacity="0.0"
     inkscape:pagecheckerboard="0"
     inkscape:deskcolor="#d1d1d1"
     inkscape:document-units="px"
     showgrid="false"
     showguides="true"
     inkscape:zoom="5.9651515"
     inkscape:cx="62.529845"
     inkscape:cy="55.656591"
     inkscape:window-width="1920"
     inkscape:window-height="1017"
     inkscape:window-x="-8"
     inkscape:window-y="-8"
     inkscape:window-maximized="1"
     inkscape:current-layer="layer2"><sodipodi:guide
       position="16.41129,17.943279"
       orientation="1,0"
       id="guide274"
       inkscape:locked="false" /><sodipodi:guide
       position="-1.2419355,17.411021"
       orientation="0,-1"
       id="guide276"
       inkscape:locked="false" /></sodipodi:namedview><defs
     id="defs2" /><g
     inkscape:groupmode="layer"
     id="layer2"
     inkscape:label="Layer 2"
     style="display:inline"><g
       id="layer2-1"
       inkscape:label="Layer 2"
       style="display:inline"
       transform="matrix(0.81452882,0,0,0.81452882,3.7198731,3.3386352)"><g
         aria-label="m"
         id="text24480"
         style="font-weight:bold;font-size:22.5778px;-inkscape-font-specification:'sans-serif Bold';text-align:center;text-anchor:middle;stroke:#000000;stroke-width:0.123"
         transform="matrix(0.48536624,0,0,0.48536624,17.403107,1.5989067)"><path
           d="m 29.423167,0.24309231 q 2.099736,0 3.160892,1.08373439 1.083735,1.0611567 1.083735,3.4318258 V 12.79635 H 30.303701 V 5.5940311 q 0,-2.6641805 -1.851379,-2.6641805 -1.33209,0 -1.896535,0.9482676 -0.564446,0.9482677 -0.564446,2.7319139 V 12.79635 H 22.627249 V 5.5940311 q 0,-2.6641805 -1.851379,-2.6641805 -1.399824,0 -1.941691,1.0611566 -0.51929,1.0385789 -0.51929,3.0028475 V 12.79635 H 14.950797 V 0.46887032 h 2.573869 l 0.451556,1.58044608 h 0.180623 q 0.564445,-0.9482677 1.53529,-1.37724588 0.993423,-0.42897821 2.05458,-0.42897821 1.354668,0 2.280358,0.45155601 0.948267,0.42897818 1.467557,1.35466808 h 0.293511 Q 26.352586,1.1010487 27.34601,0.67207052 28.362011,0.24309231 29.423167,0.24309231 Z"
           id="path24482" /></g><g
         aria-label="Fe"
         id="text24487"
         style="font-weight:bold;font-size:22.5778px;-inkscape-font-specification:'sans-serif Bold';text-align:center;letter-spacing:-2.38125px;text-anchor:middle;stroke:#000000;stroke-width:0.123"
         transform="matrix(1.521943,0,0,1.521943,-2.0246378,-8.7677125)"><path
           d="M 4.7573693,24.024523 H 1.393277 V 7.903973 h 9.23432 V 10.70362 H 4.7573693 v 4.154316 h 5.4638277 v 2.799647 H 4.7573693 Z"
           id="path24489" /><path
           d="m 16.216306,11.471266 q 2.551292,0 4.041427,1.467557 1.490135,1.444979 1.490135,4.131737 v 1.625602 h -7.947386 q 0.04515,1.422401 0.835378,2.235202 0.812801,0.812801 2.235203,0.812801 1.174045,0 2.144891,-0.225778 0.993423,-0.248356 2.032002,-0.745068 v 2.596448 q -0.92569,0.451556 -1.919113,0.654756 -0.993423,0.225778 -2.415825,0.225778 -1.85138,0 -3.273781,-0.677334 -1.422401,-0.699912 -2.235202,-2.077158 -0.812801,-1.399824 -0.812801,-3.544715 0,-2.144891 0.72249,-3.58987 0.745067,-1.444979 2.054579,-2.167469 1.309513,-0.722489 3.048003,-0.722489 z m 0.02258,2.393246 q -0.993423,0 -1.625601,0.632179 -0.632179,0.632178 -0.745068,1.964269 h 4.718761 q -0.02258,-1.106313 -0.609601,-1.85138 -0.564445,-0.745068 -1.738491,-0.745068 z"
           id="path24491" /></g></g></g></svg>
