<?xml version="1.0" encoding="UTF-8" standalone="no"?>
<!-- Created with Inkscape (http://www.inkscape.org/) -->

<svg
   width="128"
   height="128"
   viewBox="0 0 33.866666 33.866666"
   version="1.1"
   id="svg5"
   inkscape:version="1.2.1 (9c6d41e410, 2022-07-14)"
   sodipodi:docname="platinum.svg"
   xmlns:inkscape="http://www.inkscape.org/namespaces/inkscape"
   xmlns:sodipodi="http://sodipodi.sourceforge.net/DTD/sodipodi-0.dtd"
   xmlns="http://www.w3.org/2000/svg"
   xmlns:svg="http://www.w3.org/2000/svg">
  <sodipodi:namedview
     id="namedview7"
     pagecolor="#ffffff"
     bordercolor="#000000"
     borderopacity="0.25"
     inkscape:showpageshadow="2"
     inkscape:pageopacity="0.0"
     inkscape:pagecheckerboard="0"
     inkscape:deskcolor="#d1d1d1"
     inkscape:document-units="px"
     showgrid="false"
     showguides="true"
     inkscape:zoom="5.9651515"
     inkscape:cx="73.426467"
     inkscape:cy="69.067818"
     inkscape:window-width="1920"
     inkscape:window-height="1017"
     inkscape:window-x="-8"
     inkscape:window-y="-8"
     inkscape:window-maximized="1"
     inkscape:current-layer="layer2">
    <sodipodi:guide
       position="16.41129,17.943279"
       orientation="1,0"
       id="guide274"
       inkscape:locked="false" />
    <sodipodi:guide
       position="-1.2419355,17.411021"
       orientation="0,-1"
       id="guide276"
       inkscape:locked="false" />
  </sodipodi:namedview>
  <defs
     id="defs2" />
  <g
     inkscape:groupmode="layer"
     id="layer2"
     inkscape:label="Layer 2"
     style="display:inline">
    <g
       aria-label="Pt"
       id="text114"
       style="font-size:22.5778px;stroke-width:0.264583">
      <path
         d="m 11.956291,7.8754162 q 3.115736,0 4.538138,1.3546681 1.444979,1.3320907 1.444979,3.6801817 0,1.422401 -0.587023,2.641602 -0.587023,1.219202 -1.964268,1.964269 -1.354668,0.745068 -3.70276,0.745068 H 10.2178 v 5.734761 H 6.8085524 V 7.8754162 Z M 11.775669,10.675064 H 10.2178 v 4.786493 h 1.12889 q 1.44498,0 2.280358,-0.564445 0.857957,-0.587023 0.857957,-1.873957 0,-2.348091 -2.709336,-2.348091 z"
         style="font-weight:bold;-inkscape-font-specification:'sans-serif Bold';text-align:center;text-anchor:middle"
         id="path168" />
      <path
         d="m 25.909377,21.534986 q 0.564445,0 1.083735,-0.09031 0.519289,-0.112889 1.038579,-0.293511 v 2.506136 q -0.541868,0.248356 -1.354668,0.4064 -0.790223,0.158045 -1.738491,0.158045 -1.106312,0 -1.986846,-0.361245 Q 22.093729,23.499254 21.57444,22.61872 21.077728,21.738186 21.077728,20.135162 V 14.1972 h -1.603024 v -1.422401 l 1.85138,-1.12889 0.970845,-2.5964471 h 2.144891 v 2.6190251 h 3.454404 V 14.1972 H 24.44182 v 5.937962 q 0,0.699912 0.406401,1.061157 0.4064,0.338667 1.061156,0.338667 z"
         style="font-weight:bold;-inkscape-font-specification:'sans-serif Bold';text-align:center;text-anchor:middle"
         id="path170" />
    </g>
  </g>
</svg>
