<?xml version="1.0" encoding="UTF-8" standalone="no"?>
<!-- Created with Inkscape (http://www.inkscape.org/) -->

<svg
   width="128"
   height="128"
   viewBox="0 0 33.866666 33.866666"
   version="1.1"
   id="svg5"
   inkscape:version="1.2.1 (9c6d41e410, 2022-07-14)"
   sodipodi:docname="plumbum.svg"
   xmlns:inkscape="http://www.inkscape.org/namespaces/inkscape"
   xmlns:sodipodi="http://sodipodi.sourceforge.net/DTD/sodipodi-0.dtd"
   xmlns="http://www.w3.org/2000/svg"
   xmlns:svg="http://www.w3.org/2000/svg">
  <sodipodi:namedview
     id="namedview7"
     pagecolor="#ffffff"
     bordercolor="#000000"
     borderopacity="0.25"
     inkscape:showpageshadow="2"
     inkscape:pageopacity="0.0"
     inkscape:pagecheckerboard="0"
     inkscape:deskcolor="#d1d1d1"
     inkscape:document-units="px"
     showgrid="false"
     showguides="true"
     inkscape:zoom="5.9651515"
     inkscape:cx="73.426467"
     inkscape:cy="69.067818"
     inkscape:window-width="1920"
     inkscape:window-height="1017"
     inkscape:window-x="-8"
     inkscape:window-y="-8"
     inkscape:window-maximized="1"
     inkscape:current-layer="layer2">
    <sodipodi:guide
       position="16.41129,17.943279"
       orientation="1,0"
       id="guide274"
       inkscape:locked="false" />
    <sodipodi:guide
       position="-1.2419355,17.411021"
       orientation="0,-1"
       id="guide276"
       inkscape:locked="false" />
  </sodipodi:namedview>
  <defs
     id="defs2" />
  <g
     inkscape:groupmode="layer"
     id="layer2"
     inkscape:label="Layer 2"
     style="display:inline">
    <g
       aria-label="Pb"
       id="text114"
       style="font-size:22.5778px;stroke-width:0.264583">
      <path
         d="m 9.7098065,7.8754162 q 3.1157365,0 4.5381375,1.3546681 1.44498,1.3320907 1.44498,3.6801817 0,1.422401 -0.587023,2.641602 -0.587023,1.219202 -1.964269,1.964269 -1.354668,0.745068 -3.7027591,0.745068 H 7.9713158 v 5.734761 H 4.5620679 V 7.8754162 Z M 9.5291841,10.675064 H 7.9713158 v 4.786493 h 1.1288901 q 1.4449791,0 2.2803581,-0.564445 0.857956,-0.587023 0.857956,-1.873957 0,-2.348091 -2.7093359,-2.348091 z"
         style="font-weight:bold;-inkscape-font-specification:'sans-serif Bold';text-align:center;text-anchor:middle"
         id="path168" />
      <path
         d="m 21.834091,6.8368374 v 3.9962706 q 0,0.699912 -0.04516,1.377246 -0.04515,0.677334 -0.09031,1.061157 h 0.135467 q 0.496712,-0.767646 1.33209,-1.286935 0.835379,-0.541867 2.167469,-0.541867 2.077158,0 3.364093,1.625601 1.286934,1.603024 1.286934,4.741339 0,3.160892 -1.309512,4.786493 -1.309513,1.625602 -3.431826,1.625602 -1.354668,0 -2.144891,-0.474134 -0.767645,-0.496711 -1.264357,-1.106312 h -0.225778 l -0.564445,1.354668 H 18.469999 V 6.8368374 Z m 2.415825,7.2926296 q -1.309513,0 -1.85138,0.835379 -0.541867,0.8128 -0.564445,2.46098 v 0.361245 q 0,1.783646 0.51929,2.754491 0.541867,0.948268 1.94169,0.948268 1.038579,0 1.64818,-0.948268 0.6096,-0.970845 0.6096,-2.777069 0,-1.806224 -0.632178,-2.709336 -0.609601,-0.92569 -1.670757,-0.92569 z"
         style="font-weight:bold;-inkscape-font-specification:'sans-serif Bold';text-align:center;text-anchor:middle"
         id="path170" />
    </g>
  </g>
</svg>
