<?xml version="1.0" encoding="UTF-8" standalone="no"?>
<svg
   width="48px"
   height="48px"
   viewBox="0 0 48 48"
   fill="none"
   version="1.1"
   id="svg170"
   sodipodi:docname="ingots.svg"
   inkscape:version="1.2.1 (9c6d41e410, 2022-07-14)"
   xmlns:inkscape="http://www.inkscape.org/namespaces/inkscape"
   xmlns:sodipodi="http://sodipodi.sourceforge.net/DTD/sodipodi-0.dtd"
   xmlns="http://www.w3.org/2000/svg"
   xmlns:svg="http://www.w3.org/2000/svg">
  <defs
     id="defs174" />
  <sodipodi:namedview
     id="namedview172"
     pagecolor="#ffffff"
     bordercolor="#000000"
     borderopacity="0.25"
     inkscape:showpageshadow="2"
     inkscape:pageopacity="0.0"
     inkscape:pagecheckerboard="0"
     inkscape:deskcolor="#d1d1d1"
     showgrid="false"
     inkscape:zoom="16.958333"
     inkscape:cx="20.04914"
     inkscape:cy="25.297297"
     inkscape:window-width="1920"
     inkscape:window-height="1017"
     inkscape:window-x="1912"
     inkscape:window-y="-8"
     inkscape:window-maximized="1"
     inkscape:current-layer="svg170" />
  <path
     style="color:#000000;clip-rule:evenodd;fill:#000000;fill-rule:evenodd;stroke-linejoin:round;-inkscape-stroke:none"
     d="M 21.916016,3.515625 14.279297,5.3085937 A 2.0002,2.0002 0 0 0 12.9375,6.3828125 L 9.9726563,12.496094 a 2.0002,2.0002 0 0 0 0.4492187,2.347656 l 13.951172,12.771484 a 2.0002,2.0002 0 0 0 1.726562,0.490235 l 12.015625,-2.304688 a 2.0002,2.0002 0 0 0 1.533203,-2.55664 l -2.521484,-8.15625 A 2.0002,2.0002 0 0 0 36.460937,14.115234 L 23.617187,3.8964844 A 2.0002,2.0002 0 0 0 21.916016,3.515625 Z m -0.03125,4.1152344 11.603515,9.2285156 1.677735,5.433594 -8.833985,1.695312 -12.109375,-11.08789 1.898438,-3.916016 z"
     id="path156" />
  <path
     style="color:#000000;fill:#000000;stroke-linecap:round;-inkscape-stroke:none"
     d="m 16.041016,5.7402344 a 2,2 0 0 0 -2.820313,0.2109375 2,2 0 0 0 0.210938,2.8203125 L 25.765625,19.384766 A 2,2 0 0 0 28.585937,19.171875 2,2 0 0 0 28.375,16.351562 Z"
     id="path158" />
  <path
     style="color:#000000;fill:#000000;stroke-linecap:round;-inkscape-stroke:none"
     d="m 11.082031,18.833984 a 2,2 0 0 0 -1.3242185,0.767578 2,2 0 0 0 0.3750005,2.804688 l 13.80664,10.552734 a 2,2 0 0 0 2.804688,-0.375 2,2 0 0 0 -0.375,-2.802734 L 12.560547,19.228516 a 2,2 0 0 0 -1.478516,-0.394532 z"
     id="path158-3" />
  <path
     style="color:#000000;fill:#000000;stroke-linecap:round;-inkscape-stroke:none"
     d="m 37.820312,22.824219 a 2,2 0 0 0 -1.298828,0.808593 2,2 0 0 0 0.460938,2.791016 l 4.609375,3.298828 a 2,2 0 0 0 2.791015,-0.460937 2,2 0 0 0 -0.460937,-2.791016 L 39.3125,23.169922 a 2,2 0 0 0 -1.492188,-0.345703 z"
     id="path158-3-0" />
  <path
     style="color:#000000;fill:#000000;stroke-linecap:round;stroke-linejoin:round;-inkscape-stroke:none"
     d="m 34.814453,13.720703 -8.146484,1.669922 a 2.0002,2.0002 0 0 0 -1.574219,1.65625 l -1.347656,8.791016 a 2,2 0 0 0 1.673828,2.279296 2,2 0 0 0 2.279297,-1.673828 l 1.136718,-7.414062 6.78125,-1.390625 a 2,2 0 0 0 1.558594,-2.361328 2,2 0 0 0 -2.361328,-1.556641 z"
     id="path160" />
  <path
     style="color:#000000;fill:#000000;stroke-linecap:round;stroke-linejoin:round;-inkscape-stroke:none"
     d="m 10.701172,18.962891 -6.0078126,1.40625 a 2.0002,2.0002 0 0 0 -1.4003906,1.203125 l -2.83007817,7.0625 a 2.0002,2.0002 0 0 0 0.453125,2.169921 l 12.76953137,12.5625 a 2.0002,2.0002 0 0 0 1.787109,0.53711 l 12.853516,-2.515625 a 2.0002,2.0002 0 0 0 1.521484,-2.574219 l -2.517578,-7.828125 a 2,2 0 0 0 -2.515625,-1.291016 2,2 0 0 0 -1.292969,2.515625 l 1.828125,5.683594 -9.609375,1.88086 L 4.6699219,28.886719 6.6171875,24.027344 11.611328,22.857422 a 2,2 0 0 0 1.492188,-2.402344 2,2 0 0 0 -2.402344,-1.492187 z"
     id="path162" />
  <path
     style="color:#000000;fill:#000000;stroke-linecap:round;-inkscape-stroke:none"
     d="m 5.0976562,20.316406 a 2,2 0 0 0 -1.3984374,0.623047 2,2 0 0 0 0.072266,2.826172 L 15.564453,34.966797 a 2,2 0 0 0 2.826172,-0.07227 2,2 0 0 0 -0.07227,-2.828125 L 6.5253906,20.865234 A 2,2 0 0 0 5.0976562,20.316406 Z"
     id="path164" />
  <path
     style="color:#000000;fill:#000000;stroke-linecap:round;-inkscape-stroke:none"
     d="m 19.550781,20.261719 a 2,2 0 0 0 -2.828125,0.05078 2,2 0 0 0 0.05273,2.828125 l 16.509765,15.919922 a 2,2 0 0 0 2.828125,-0.05273 2,2 0 0 0 -0.05273,-2.828125 z"
     id="path164-5" />
  <path
     style="color:#000000;fill:#000000;stroke-linecap:round;stroke-linejoin:round;-inkscape-stroke:none"
     d="M 25.134766,29.642578 16.875,30.847656 a 2.0002,2.0002 0 0 0 -1.654297,1.50586 l -2.076172,8.548828 a 2,2 0 0 0 1.472657,2.414062 2,2 0 0 0 2.414062,-1.470703 l 1.757812,-7.236328 6.923829,-1.007813 a 2,2 0 0 0 1.689453,-2.267578 2,2 0 0 0 -2.267578,-1.691406 z"
     id="path166" />
  <path
     style="color:#000000;clip-rule:evenodd;fill:#000000;fill-rule:evenodd;stroke-linejoin:round;-inkscape-stroke:none"
     d="m 42.919922,26.513672 -7.039063,1.568359 a 2.0002,2.0002 0 0 0 -1.548828,1.708985 l -0.976562,7.951171 a 2.0002,2.0002 0 0 0 2.36914,2.205079 l 10.166016,-1.990235 a 2.0002,2.0002 0 0 0 1.539062,-2.511719 l -2.152343,-7.529296 a 2.0002,2.0002 0 0 0 -2.357422,-1.402344 z m -0.970703,4.314453 1.035156,3.621094 -5.322266,1.042968 0.466797,-3.8125 z"
     id="path168" />
  <path
     style="color:#000000;fill:#000000;stroke-linecap:round;-inkscape-stroke:none"
     d="m 32.443359,24.089844 a 2,2 0 0 0 -2.810547,0.314453 2,2 0 0 0 0.3125,2.810547 l 5.306641,4.242187 A 2,2 0 0 0 38.0625,31.144531 2,2 0 0 0 37.75,28.333984 Z"
     id="path164-0" />
</svg>
