<?xml version="1.0" encoding="UTF-8" standalone="no"?>
<!-- Created with Inkscape (http://www.inkscape.org/) -->

<svg
   width="128"
   height="128"
   viewBox="0 0 33.866666 33.866666"
   version="1.1"
   id="svg5"
   inkscape:version="1.2.1 (9c6d41e410, 2022-07-14)"
   sodipodi:docname="bear.svg"
   xml:space="preserve"
   xmlns:inkscape="http://www.inkscape.org/namespaces/inkscape"
   xmlns:sodipodi="http://sodipodi.sourceforge.net/DTD/sodipodi-0.dtd"
   xmlns="http://www.w3.org/2000/svg"
   xmlns:svg="http://www.w3.org/2000/svg"><sodipodi:namedview
     id="namedview7"
     pagecolor="#ffffff"
     bordercolor="#000000"
     borderopacity="0.25"
     inkscape:showpageshadow="2"
     inkscape:pageopacity="0.0"
     inkscape:pagecheckerboard="0"
     inkscape:deskcolor="#d1d1d1"
     inkscape:document-units="px"
     showgrid="false"
     showguides="true"
     inkscape:zoom="2.1089996"
     inkscape:cx="-34.13941"
     inkscape:cy="91.986743"
     inkscape:window-width="1920"
     inkscape:window-height="1017"
     inkscape:window-x="-8"
     inkscape:window-y="-8"
     inkscape:window-maximized="1"
     inkscape:current-layer="layer2"><sodipodi:guide
       position="16.41129,17.943279"
       orientation="1,0"
       id="guide274"
       inkscape:locked="false" /><sodipodi:guide
       position="-1.2419355,17.411021"
       orientation="0,-1"
       id="guide276"
       inkscape:locked="false" /></sodipodi:namedview><defs
     id="defs2" /><g
     inkscape:groupmode="layer"
     id="layer2"
     inkscape:label="Layer 2"
     style="display:inline"><g
       style="fill:none"
       id="g504"
       transform="matrix(1.1140351,0,0,1.1140351,-77.010397,-103.39379)"><path
         fill-rule="evenodd"
         clip-rule="evenodd"
         d="m 98.606237,107.5448 -9.219524,2.67865 -2.108033,4.46026 -0.06728,2.74093 c 1.014148,0.18938 1.268309,1.03658 1.210997,1.70438 l -3.239292,-0.0373 -2.088098,-4.06158 0.249176,-3.05739 -6.8673,2.01086 -2.030787,3.43365 c 1.744234,0.58058 1.096376,1.85138 1.096376,1.85138 l -3.956921,-0.02 -1.480107,-4.23601 c 0,0 1.876297,-6.29419 2.526648,-8.52931 1.009165,-3.51338 3.463551,-5.85315 7.647223,-5.70613 3.797447,0.12708 8.686288,0.5432 10.943825,0.71513 0.827266,-2.242584 2.549074,-1.559841 2.549074,-1.559841 l 0.229242,1.853871 c 1.911184,0.40615 2.915364,1.29322 3.03746,2.54908 l 2.265016,0.53323 z m -18.262134,6.62561 -0.186883,2.95024 c 0.964313,0.0972 1.58227,1.07645 1.58227,2.0582 h -4.183672 l -1.353027,-2.66618 1.021623,-1.42529 z m 12.762811,0.49835 c 0.90451,1.36798 -0.926936,3.70525 -0.926936,3.70525 l -0.6653,-0.27659 c 0,0 0.306487,-1.8414 -0.951854,-2.35222 -1.25834,-0.51081 -1.811511,-0.80484 -1.811511,-0.80484 l 2.075638,-3.73764 c 0,0 1.721809,2.6313 2.279963,3.476 z"
         fill="#000000"
         id="path495"
         style="stroke-width:0.249177" /></g></g></svg>
