<?xml version="1.0" encoding="UTF-8" standalone="no"?>
<!-- Created with Inkscape (http://www.inkscape.org/) -->

<svg
   width="128"
   height="128"
   viewBox="0 0 33.866666 33.866666"
   version="1.1"
   id="svg5"
   inkscape:version="1.2.1 (9c6d41e410, 2022-07-14)"
   sodipodi:docname="spider.svg"
   xml:space="preserve"
   xmlns:inkscape="http://www.inkscape.org/namespaces/inkscape"
   xmlns:sodipodi="http://sodipodi.sourceforge.net/DTD/sodipodi-0.dtd"
   xmlns="http://www.w3.org/2000/svg"
   xmlns:svg="http://www.w3.org/2000/svg"><sodipodi:namedview
     id="namedview7"
     pagecolor="#ffffff"
     bordercolor="#000000"
     borderopacity="0.25"
     inkscape:showpageshadow="2"
     inkscape:pageopacity="0.0"
     inkscape:pagecheckerboard="0"
     inkscape:deskcolor="#d1d1d1"
     inkscape:document-units="px"
     showgrid="false"
     showguides="true"
     inkscape:zoom="2.9825758"
     inkscape:cx="-6.3703327"
     inkscape:cy="65.379731"
     inkscape:window-width="1920"
     inkscape:window-height="1017"
     inkscape:window-x="-8"
     inkscape:window-y="-8"
     inkscape:window-maximized="1"
     inkscape:current-layer="layer2"><sodipodi:guide
       position="16.41129,17.943279"
       orientation="1,0"
       id="guide274"
       inkscape:locked="false" /><sodipodi:guide
       position="-1.2419355,17.411021"
       orientation="0,-1"
       id="guide276"
       inkscape:locked="false" /></sodipodi:namedview><defs
     id="defs2" /><g
     inkscape:groupmode="layer"
     id="layer2"
     inkscape:label="Layer 2"
     style="display:inline"><g
       id="g352"
       transform="matrix(0.81562026,0,0,0.81562026,2.0091616,1.4385925)"><path
         fill="#31373d"
         d="M 14.999,17 A 0.996,0.996 0 0 1 14.4,16.8 C 9.863,13.397 6.959,7.585 7,1.993 7.004,1.44 7.412,1.018 8.007,1 A 1,1 0 0 1 9,2.007 C 8.963,6.987 11.554,12.166 15.6,15.2 A 1,1 0 0 1 14.999,17 Z"
         id="path316" /><path
         fill="#31373d"
         d="M 16,19 C 15.623,19 6.727,18.902 3.081,10.394 A 1,1 0 1 1 4.919,9.606 C 8.052,16.916 15.677,17 16,17 a 1,1 0 0 1 0,2 z"
         id="path318" /><path
         fill="#31373d"
         d="M 4,29 A 1,1 0 0 1 3.052,27.683 C 4.44,23.519 7.771,18.629 15.762,18.991 15.864,18.996 15.945,19 16,19 a 1,1 0 1 1 0,2 C 15.924,21 15.813,20.995 15.672,20.989 10.261,20.752 6.651,23.211 4.949,28.316 4.809,28.735 4.419,29 4,29 Z"
         id="path320" /><path
         fill="#31373d"
         d="M 8,36 A 1,1 0 0 1 7,35 c 0,-4.495 3.228,-12.703 8.485,-15.857 a 1.0000082,1.0000082 0 1 1 1.029,1.715 C 11.997,23.568 9,31.165 9,35 A 1,1 0 0 1 8,36 Z M 21.001,17 A 1,1 0 0 1 20.4,15.2 C 24.446,12.165 27.037,6.987 27,2.007 A 1,1 0 0 1 27.992,1 H 28 a 1,1 0 0 1 1,0.993 C 29.042,7.585 26.137,13.397 21.6,16.8 21.42,16.935 21.21,17 21.001,17 Z"
         id="path322" /><path
         fill="#31373d"
         d="m 20,19 a 1,1 0 1 1 0,-2 c 0.323,0 7.948,-0.084 11.081,-7.394 a 0.99943897,0.99943897 0 1 1 1.837,0.788 C 29.272,18.902 20.377,19 20,19 Z"
         id="path324" /><path
         fill="#31373d"
         d="M 32,29 A 0.999,0.999 0 0 1 31.052,28.316 C 29.35,23.211 25.759,20.757 20.328,20.989 20.187,20.995 20.076,21 20,21 a 1,1 0 1 1 0,-2 c 0.055,0 0.136,-0.004 0.238,-0.009 7.979,-0.36 11.323,4.528 12.71,8.692 A 1,1 0 0 1 32,29 Z"
         id="path326" /><path
         fill="#31373d"
         d="M 28,36 A 1,1 0 0 1 27,35 C 27,31.165 24.003,23.568 19.485,20.857 a 1.0000082,1.0000082 0 1 1 1.029,-1.715 C 25.771,22.297 29,30.505 29,35 a 1,1 0 0 1 -1,1 z"
         id="path328" /><path
         id="ellipse330"
         style="fill:#31373d"
         d="M 24,25.208 A 6,6.7919998 0 0 1 18,32 a 6,6.7919998 0 0 1 -6,-6.792 6,6.7919998 0 0 1 6,-6.792 6,6.7919998 0 0 1 6,6.792 z" /><path
         id="ellipse332"
         style="fill:#31373d"
         d="m 22,17 a 4,6 0 0 1 -4,6 4,6 0 0 1 -4,-6 4,6 0 0 1 4,-6 4,6 0 0 1 4,6 z" /><path
         fill="#31373d"
         d="M 16,14 A 0.997,0.997 0 0 1 15.293,13.707 C 14,12.414 14,11.076 14,10 a 1,1 0 0 1 2,0 c 0,0.92 0,1.586 0.707,2.293 A 0.999,0.999 0 0 1 16,14 Z m 4,0 A 0.999,0.999 0 0 1 19.293,12.293 C 20,11.586 20,10.92 20,10 a 1,1 0 1 1 2,0 c 0,1.076 0,2.414 -1.293,3.707 A 0.997,0.997 0 0 1 20,14 Z"
         id="path334" /></g></g></svg>
